<svg width="148" height="240" viewBox="0 0 148 240" fill="none" xmlns="http://www.w3.org/2000/svg">
<g clip-path="url(#clip0_75_569)">
<rect width="148" height="240" fill="white"/>
<rect x="6" y="6" width="136" height="228" fill="#505255"/>
<ellipse cx="73.5" cy="120" rx="54.5" ry="67" fill="white"/>
<path d="M35.168 95.008C35.168 95.008 35.4453 95.0507 36 95.136C36.5547 95.1787 37.1733 95.3707 37.856 95.712C38.5813 96.0107 39.2 96.5653 39.712 97.376C40.224 98.144 40.4373 99.2747 40.352 100.768C40.3093 101.749 40.2453 103.072 40.16 104.736C40.1173 106.357 40.096 108.149 40.096 110.112C40.096 112.032 40.1387 113.952 40.224 115.872C40.352 117.792 40.544 119.563 40.8 121.184C41.0987 122.805 41.4827 124.107 41.952 125.088C42.464 126.027 43.0827 126.475 43.808 126.432C44.576 126.389 45.152 125.877 45.536 124.896C45.92 123.872 46.176 122.592 46.304 121.056C46.432 119.477 46.4747 117.813 46.432 116.064C46.3893 114.315 46.304 112.651 46.176 111.072C46.048 109.451 45.92 108.128 45.792 107.104C45.7067 106.037 45.6427 105.44 45.6 105.312C45.5573 105.141 45.4933 104.779 45.408 104.224C45.3227 103.669 45.3653 103.072 45.536 102.432C45.7067 101.792 46.1333 101.216 46.816 100.704C47.5413 100.192 48.672 99.872 50.208 99.744C51.744 99.616 52.9387 99.808 53.792 100.32C54.6453 100.832 55.2427 101.451 55.584 102.176C55.968 102.901 56.1813 103.541 56.224 104.096C56.3093 104.651 56.352 104.928 56.352 104.928C56.352 104.928 56.416 105.419 56.544 106.4C56.7147 107.381 56.8427 108.683 56.928 110.304C57.056 111.883 57.056 113.632 56.928 115.552C56.8427 117.472 56.5653 119.413 56.096 121.376C55.6693 123.296 54.9653 125.067 53.984 126.688C53.0027 128.267 51.68 129.547 50.016 130.528C48.352 131.509 46.2613 132 43.744 132C41.2267 132 39.0933 131.488 37.344 130.464C35.6373 129.397 34.2293 128.011 33.12 126.304C32.0533 124.555 31.2213 122.613 30.624 120.48C30.0693 118.347 29.6853 116.171 29.472 113.952C29.3013 111.691 29.216 109.557 29.216 107.552C29.2587 105.547 29.3227 103.797 29.408 102.304C29.536 100.811 29.6213 99.744 29.664 99.104C29.7493 97.9947 30.0693 97.1627 30.624 96.608C31.1787 96.0107 31.7973 95.6053 32.48 95.392C33.2053 95.1787 33.824 95.072 34.336 95.072C34.8907 95.0293 35.168 95.008 35.168 95.008ZM68.3055 132C66.7695 132 65.5962 131.829 64.7855 131.488C64.0175 131.104 63.4628 130.677 63.1215 130.208C62.8228 129.696 62.6522 129.269 62.6095 128.928C62.6095 128.544 62.6095 128.352 62.6095 128.352C62.6095 128.352 62.5455 127.712 62.4175 126.432C62.2895 125.152 62.1188 123.509 61.9055 121.504C61.6922 119.456 61.4575 117.28 61.2015 114.976C60.9882 112.629 60.7535 110.389 60.4975 108.256C60.2842 106.08 60.1135 104.245 59.9855 102.752C59.8575 101.216 59.7722 100.256 59.7295 99.872C59.6868 98.7627 59.9215 97.8027 60.4335 96.992C60.9882 96.1387 62.3108 95.648 64.4015 95.52C65.8095 95.4347 66.9402 95.648 67.7935 96.16C68.6468 96.672 69.2655 97.2053 69.6495 97.76C70.0335 98.272 70.2255 98.528 70.2255 98.528L76.2415 113.12L78.6095 117.536L77.1375 105.376C77.1375 105.376 77.1375 104.672 77.1375 103.264C77.1802 101.856 77.2655 100.171 77.3935 98.208C77.4788 97.2267 77.7988 96.48 78.3535 95.968C78.9082 95.456 79.5268 95.0933 80.2095 94.88C80.9348 94.6667 81.5535 94.56 82.0655 94.56C82.6202 94.5173 82.8975 94.496 82.8975 94.496C82.8975 94.496 83.1322 94.5173 83.6015 94.56C84.1135 94.6027 84.6895 94.7947 85.3295 95.136C85.9695 95.4347 86.5242 95.9893 86.9935 96.8C87.5055 97.568 87.7402 98.6987 87.6975 100.192C87.6548 102.027 87.7188 104.117 87.8895 106.464C88.0602 108.768 88.2735 111.136 88.5295 113.568C88.8282 116 89.1055 118.283 89.3615 120.416C89.6602 122.507 89.9162 124.256 90.1295 125.664C90.3855 127.072 90.5348 127.947 90.5775 128.288C90.6628 128.8 90.6842 129.419 90.6415 130.144C90.5988 130.869 90.2575 131.509 89.6175 132.064C89.0202 132.619 87.8895 132.917 86.2255 132.96C84.5615 132.96 83.3242 132.768 82.5135 132.384C81.7028 132 81.1482 131.616 80.8495 131.232C80.5935 130.805 80.4655 130.592 80.4655 130.592L70.8655 113.376C70.8655 113.376 70.9508 113.803 71.1215 114.656C71.2922 115.509 71.4842 116.619 71.6975 117.984C71.9535 119.349 72.1882 120.821 72.4015 122.4C72.6575 123.979 72.8495 125.493 72.9775 126.944C73.1055 128.395 72.9348 129.483 72.4655 130.208C72.0388 130.891 71.4842 131.36 70.8015 131.616C70.1615 131.872 69.5855 132 69.0735 132C68.5615 132 68.3055 132 68.3055 132ZM93.975 113.376C93.975 109.963 94.5723 106.848 95.767 104.032C96.9617 101.173 98.583 98.912 100.631 97.248C102.679 95.5413 104.94 94.688 107.415 94.688C109.25 94.688 110.999 95.1787 112.663 96.16C114.327 97.0987 115.799 98.4427 117.079 100.192C118.359 101.899 119.362 103.883 120.087 106.144C120.812 108.405 121.175 110.816 121.175 113.376C121.175 115.936 120.812 118.347 120.087 120.608C119.362 122.869 118.359 124.875 117.079 126.624C115.799 128.331 114.327 129.675 112.663 130.656C110.999 131.595 109.25 132.064 107.415 132.064C104.94 132.064 102.679 131.232 100.631 129.568C98.583 127.861 96.9617 125.6 95.767 122.784C94.5723 119.968 93.975 116.832 93.975 113.376ZM103.767 113.12C103.767 115.595 103.938 117.877 104.279 119.968C104.62 122.016 105.09 123.659 105.687 124.896C106.284 126.091 106.946 126.688 107.671 126.688C108.396 126.688 109.058 126.091 109.655 124.896C110.252 123.659 110.722 122.016 111.063 119.968C111.404 117.877 111.575 115.595 111.575 113.12C111.575 110.603 111.404 108.32 111.063 106.272C110.722 104.224 110.252 102.581 109.655 101.344C109.058 100.107 108.396 99.488 107.671 99.488C106.946 99.488 106.284 100.107 105.687 101.344C105.09 102.581 104.62 104.224 104.279 106.272C103.938 108.32 103.767 110.603 103.767 113.12Z" fill="#505255"/>
<path d="M28 136.8H122.775V140H28V136.8Z" fill="#505255"/>
</g>
<defs>
<clipPath id="clip0_75_569">
<rect width="148" height="240" fill="white"/>
</clipPath>
</defs>
</svg>
