<svg width="148" height="240" viewBox="0 0 148 240" fill="none" xmlns="http://www.w3.org/2000/svg">
<rect width="148" height="240" fill="white"/>
<rect x="6" y="6" width="136" height="228" fill="#505255"/>
<ellipse cx="73.5" cy="120" rx="54.5" ry="67" fill="white"/>
<path d="M56.54 95.092C56.244 95.092 55.4547 95.092 54.172 95.092C52.8893 95.092 51.4587 94.796 49.88 94.204C48.3013 93.612 46.9693 92.5267 45.884 90.948C44.7987 89.2707 44.3053 86.804 44.404 83.548C44.6013 77.036 47.1667 72.004 52.1 68.452C57.0333 64.9 63.4467 63.1733 71.34 63.272C75.2867 63.272 79.184 63.6667 83.032 64.456C86.9787 65.1467 90.5307 66.3307 93.688 68.008C96.8453 69.6853 99.3613 72.004 101.236 74.964C103.209 77.8253 104.196 81.5253 104.196 86.064C104.196 89.7147 103.259 93.6613 101.384 97.904C99.5093 102.048 97.1907 106.192 94.428 110.336C91.6653 114.48 88.8533 118.279 85.992 121.732C83.2293 125.087 80.8613 127.8 78.888 129.872C77.0133 131.944 76.0267 132.98 75.928 132.98C76.0267 132.98 76.9147 132.881 78.592 132.684C80.2693 132.388 82.1933 132.092 84.364 131.796C86.5347 131.5 88.4587 131.253 90.136 131.056C91.8133 130.76 92.652 130.612 92.652 130.612C92.652 130.612 93.1947 130.612 94.28 130.612C95.464 130.612 96.796 130.76 98.276 131.056C99.8547 131.253 101.285 131.747 102.568 132.536C103.851 133.325 104.591 134.559 104.788 136.236C105.281 139.591 104.788 141.811 103.308 142.896C101.927 143.883 100.101 144.573 97.832 144.968C96.944 145.067 95.02 145.313 92.06 145.708C89.1987 146.103 85.844 146.547 81.996 147.04C78.2467 147.533 74.5467 148.027 70.896 148.52C67.344 148.915 64.384 149.26 62.016 149.556C59.648 149.852 58.464 150 58.464 150C58.464 150 57.6747 150 56.096 150C54.616 149.901 52.988 149.605 51.212 149.112C49.5347 148.619 48.4 147.731 47.808 146.448C46.92 144.475 46.5747 142.896 46.772 141.712C47.068 140.429 48.4493 138.407 50.916 135.644C51.9027 134.559 53.4813 132.733 55.652 130.168C57.8227 127.504 60.1907 124.445 62.756 120.992C65.42 117.44 67.9853 113.74 70.452 109.892C72.9187 105.945 74.9413 102.147 76.52 98.496C78.0987 94.7467 78.9373 91.392 79.036 88.432C79.1347 83.4987 78.8387 80.0947 78.148 78.22C77.4573 76.3453 76.668 75.3093 75.78 75.112C74.9907 74.816 74.448 74.668 74.152 74.668C73.856 74.668 73.1653 74.8653 72.08 75.26C70.9947 75.556 69.9093 76.1973 68.824 77.184C67.8373 78.072 67.344 79.5027 67.344 81.476C67.344 83.3507 67.344 85.2747 67.344 87.248C67.344 89.1227 66.604 90.7507 65.124 92.132C63.7427 93.5133 60.8813 94.5 56.54 95.092Z" fill="#505255"/>
<path d="M41 161.1H108.488V168.5H41V161.1Z" fill="#505255"/>
</svg>
