<svg width="240" height="240" viewBox="0 0 240 240" fill="none" xmlns="http://www.w3.org/2000/svg">
<g clip-path="url(#clip0_30_344)">
<rect x="46" width="148" height="240" fill="white"/>
<rect x="46" width="148" height="240" fill="white"/>
<rect x="52" y="6" width="136" height="228" fill="#3C3F42"/>
<ellipse cx="119.5" cy="120" rx="54.5" ry="67" fill="white"/>
<path d="M87.544 93.392C87.544 93.392 88.1413 93.392 89.336 93.392C90.5307 93.3067 91.9387 93.52 93.56 94.032C95.1813 94.4587 96.632 95.3547 97.912 96.72C99.2773 98 100.088 100.005 100.344 102.736C100.515 104.869 100.856 107.643 101.368 111.056C101.88 114.384 102.435 117.883 103.032 121.552C103.629 125.221 104.184 128.677 104.696 131.92C105.293 135.077 105.763 137.68 106.104 139.728C106.531 141.776 106.744 142.8 106.744 142.8L112.248 122.32C112.248 122.32 112.461 121.723 112.888 120.528C113.315 119.248 114.083 118.011 115.192 116.816C116.387 115.621 118.136 115.024 120.44 115.024C122.744 115.024 124.493 115.493 125.688 116.432C126.883 117.285 127.736 118.352 128.248 119.632C128.845 120.912 129.315 122.149 129.656 123.344C129.912 124.197 130.296 125.648 130.808 127.696C131.405 129.659 131.96 131.749 132.472 133.968C133.069 136.187 133.581 138.064 134.008 139.6C134.435 141.136 134.648 141.904 134.648 141.904L135.8 131.28L141.176 93.648C141.176 93.648 141.432 93.0933 141.944 91.984C142.541 90.7893 143.651 89.6373 145.272 88.528C146.979 87.4187 149.496 86.992 152.824 87.248C157.859 87.5893 160.931 88.6133 162.04 90.32C163.235 92.0267 163.405 94.1173 162.552 96.592C162.125 97.7867 161.485 100.389 160.632 104.4C159.779 108.325 158.797 113.061 157.688 118.608C156.579 124.155 155.512 130 154.488 136.144C153.464 142.203 152.568 147.963 151.8 153.424C151.459 156.24 150.691 158.416 149.496 159.952C148.387 161.403 147.192 162.427 145.912 163.024C144.632 163.621 143.523 163.963 142.584 164.048C141.645 164.133 141.176 164.176 141.176 164.176C141.176 164.176 140.621 164.176 139.512 164.176C138.403 164.261 137.037 164.091 135.416 163.664C133.88 163.237 132.344 162.341 130.808 160.976C129.357 159.611 128.205 157.477 127.352 154.576C125.731 148.773 124.323 143.909 123.128 139.984C121.933 136.059 121.336 134.096 121.336 134.096L114.168 155.856C114.168 155.856 113.912 156.368 113.4 157.392C112.888 158.416 111.864 159.44 110.328 160.464C108.877 161.488 106.701 162 103.8 162C99.448 162 96.4187 161.317 94.712 159.952C93.0907 158.501 91.8107 156.197 90.872 153.04C90.616 151.931 90.104 149.968 89.336 147.152C88.568 144.251 87.7147 140.88 86.776 137.04C85.8373 133.2 84.856 129.275 83.832 125.264C82.808 121.168 81.8693 117.413 81.016 114C80.1627 110.501 79.4373 107.685 78.84 105.552C78.328 103.333 78.072 102.224 78.072 102.224C78.072 102.224 77.9867 101.84 77.816 101.072C77.6453 100.304 77.7307 99.408 78.072 98.384C78.4133 97.2747 79.2667 96.2507 80.632 95.312C82.0827 94.3733 84.3867 93.7333 87.544 93.392Z" fill="#3C3F42"/>
<rect x="99" y="168" width="24" height="40" fill="white"/>
<rect x="99" y="168" width="24" height="40" fill="white"/>
<rect x="100" y="169" width="22" height="38" fill="#119F63"/>
<rect x="87" y="179" width="24" height="40" fill="white"/>
<rect x="87" y="179" width="24" height="40" fill="white"/>
<rect x="88" y="180" width="22" height="38" fill="#E7CB36"/>
<rect x="128" y="167" width="24" height="40" fill="white"/>
<rect x="128" y="167" width="24" height="40" fill="white"/>
<rect x="129" y="168" width="22" height="38" fill="#E73636"/>
<rect x="116" y="180" width="24" height="40" fill="white"/>
<rect x="116" y="180" width="24" height="40" fill="white"/>
<rect x="117" y="181" width="22" height="38" fill="#367DE7"/>
<path d="M102.84 84.352L101.976 80.176C101.976 80.176 101.964 80.092 101.94 79.924C101.916 79.732 101.952 79.516 102.048 79.276C102.168 79.012 102.408 78.772 102.768 78.556C103.128 78.34 103.704 78.196 104.496 78.124C105.288 78.052 105.912 78.1 106.368 78.268C106.848 78.436 107.208 78.64 107.448 78.88C107.688 79.12 107.844 79.348 107.916 79.564C107.988 79.756 108.024 79.852 108.024 79.852C108.024 79.852 108.072 80.08 108.168 80.536C108.264 80.968 108.36 81.472 108.456 82.048C108.576 82.6 108.684 83.092 108.78 83.524C108.876 83.956 108.924 84.172 108.924 84.172L112.92 84.352C112.92 84.352 113.064 84.364 113.352 84.388C113.64 84.388 113.964 84.436 114.324 84.532C114.684 84.604 115.008 84.736 115.296 84.928C115.584 85.12 115.728 85.408 115.728 85.792C115.728 86.176 115.608 86.464 115.368 86.656C115.128 86.848 114.852 86.98 114.54 87.052C114.252 87.124 113.988 87.172 113.748 87.196C113.508 87.196 113.388 87.196 113.388 87.196H109.428C109.428 87.196 109.428 87.364 109.428 87.7C109.452 88.036 109.476 88.456 109.5 88.96C109.524 89.44 109.548 89.932 109.572 90.436C109.596 90.916 109.62 91.324 109.644 91.66C109.668 91.996 109.68 92.164 109.68 92.164C109.68 92.164 109.668 92.26 109.644 92.452C109.62 92.644 109.536 92.86 109.392 93.1C109.248 93.34 108.996 93.556 108.636 93.748C108.3 93.94 107.796 94.036 107.124 94.036C105.804 94.036 104.928 93.856 104.496 93.496C104.064 93.136 103.824 92.788 103.776 92.452C103.752 92.284 103.716 91.936 103.668 91.408C103.62 90.88 103.572 90.304 103.524 89.68C103.476 89.056 103.428 88.528 103.38 88.096C103.356 87.64 103.344 87.412 103.344 87.412L98.556 87.556C98.556 87.556 98.376 87.544 98.016 87.52C97.68 87.472 97.332 87.364 96.972 87.196C96.612 87.004 96.432 86.704 96.432 86.296C96.432 85.864 96.588 85.552 96.9 85.36C97.212 85.144 97.524 85 97.836 84.928C98.148 84.856 98.316 84.82 98.34 84.82C98.364 84.82 98.628 84.796 99.132 84.748C99.636 84.7 100.236 84.64 100.932 84.568C101.628 84.472 102.264 84.4 102.84 84.352ZM118.061 69.04C118.061 69.04 118.077 68.896 118.109 68.608C118.173 68.32 118.301 68 118.493 67.648C118.717 67.264 119.085 66.944 119.597 66.688C120.109 66.4 120.829 66.272 121.757 66.304C123.005 66.336 123.853 66.544 124.301 66.928C124.781 67.312 125.037 67.712 125.069 68.128C125.101 68.512 125.117 68.784 125.117 68.944C125.117 69.04 125.069 69.52 124.973 70.384C124.909 71.216 124.813 72.24 124.685 73.456C124.557 74.64 124.413 75.824 124.253 77.008C124.125 78.192 124.013 79.184 123.917 79.984C123.853 80.784 123.821 81.184 123.821 81.184L128.333 80.848L127.901 72.64C127.901 72.64 127.901 72.528 127.901 72.304C127.933 72.08 128.045 71.824 128.237 71.536C128.461 71.216 128.829 70.928 129.341 70.672C129.853 70.416 130.605 70.256 131.597 70.192C132.589 70.128 133.373 70.208 133.949 70.432C134.525 70.656 134.957 70.928 135.245 71.248C135.533 71.536 135.709 71.808 135.773 72.064C135.869 72.32 135.917 72.448 135.917 72.448L136.925 91.264C136.925 91.264 136.909 91.408 136.877 91.696C136.877 91.952 136.765 92.272 136.541 92.656C136.349 93.008 135.981 93.328 135.437 93.616C134.893 93.872 134.093 94 133.037 94C131.981 94 131.165 93.872 130.589 93.616C130.013 93.36 129.597 93.056 129.341 92.704C129.117 92.352 128.973 92.048 128.909 91.792C128.877 91.536 128.861 91.408 128.861 91.408L128.525 84.976L122.381 85.696C122.381 85.696 122.125 85.728 121.613 85.792C121.101 85.824 120.509 85.792 119.837 85.696C119.197 85.6 118.621 85.344 118.109 84.928C117.629 84.512 117.405 83.856 117.437 82.96C117.501 81.168 117.581 79.088 117.677 76.72C117.805 74.32 117.933 71.76 118.061 69.04Z" fill="#3C3F42"/>
</g>
<defs>
<clipPath id="clip0_30_344">
<rect width="240" height="240" fill="white"/>
</clipPath>
</defs>
</svg>
