<svg width="240" height="240" viewBox="0 0 240 240" fill="none" xmlns="http://www.w3.org/2000/svg">
<rect x="46" width="148" height="240" fill="white"/>
<rect x="52" y="6" width="136" height="228" fill="#505255"/>
<ellipse cx="119.5" cy="120" rx="54.5" ry="67" fill="white"/>
<path d="M141.24 149C137.491 149 134.679 148.556 132.804 147.668C130.929 146.78 129.696 145.793 129.104 144.708C128.512 143.623 128.216 142.636 128.216 141.748C128.216 140.86 128.216 140.416 128.216 140.416L128.068 111.556C122.839 111.655 117.856 111.507 113.12 111.112C108.483 110.619 104.339 109.632 100.688 108.152C97.136 106.573 94.2747 104.205 92.104 101.048C89.9333 97.8907 88.7 93.5987 88.404 88.172C88.108 82.7453 89.0947 78.404 91.364 75.148C93.6333 71.7933 96.544 69.2773 100.096 67.6C103.747 65.824 107.447 64.5907 111.196 63.9C114.945 63.2093 118.201 62.8147 120.964 62.716C124.615 62.5187 128.364 62.9133 132.212 63.9C136.159 64.788 139.711 66.564 142.868 69.228C146.124 71.892 148.541 75.74 150.12 80.772C151.107 83.732 151.847 87.3827 152.34 91.724C152.833 96.0653 153.129 100.703 153.228 105.636C153.327 110.471 153.376 115.256 153.376 119.992C153.376 124.629 153.327 128.773 153.228 132.424C153.129 136.075 153.08 138.837 153.08 140.712C153.08 143.08 152.488 144.856 151.304 146.04C150.12 147.125 148.739 147.915 147.16 148.408C145.581 148.803 144.2 149 143.016 149C141.832 149 141.24 149 141.24 149ZM128.956 96.904C128.956 96.904 128.956 96.2627 128.956 94.98C129.055 93.5987 129.005 91.9707 128.808 90.096C128.611 88.1227 128.216 86.1493 127.624 84.176C127.131 82.2027 126.292 80.5747 125.108 79.292C123.924 77.9107 122.296 77.1707 120.224 77.072C117.659 76.9733 115.735 77.516 114.452 78.7C113.169 79.884 112.281 81.2653 111.788 82.844C111.295 84.4227 110.999 85.8533 110.9 87.136C110.9 88.32 110.9 88.8627 110.9 88.764C110.9 88.6653 110.949 89.2573 111.048 90.54C111.147 91.724 111.689 93.056 112.676 94.536C113.663 95.9173 115.389 96.9533 117.856 97.644C120.421 98.3347 124.121 98.088 128.956 96.904Z" fill="#505255"/>
<path d="M85 160.1H156.188V167.5H85V160.1Z" fill="#505255"/>
</svg>
