<svg width="148" height="240" viewBox="0 0 148 240" fill="none" xmlns="http://www.w3.org/2000/svg">
<rect width="148" height="240" fill="white"/>
<rect x="6" y="6" width="136" height="228" fill="#505255"/>
<ellipse cx="73.5" cy="120" rx="54.5" ry="67" fill="white"/>
<path d="M55.616 142.564C55.32 135.953 55.764 129.54 56.948 123.324C58.2307 117.009 59.8587 111.188 61.832 105.86C63.8053 100.433 65.828 95.6973 67.9 91.652C69.972 87.6067 71.6987 84.4493 73.08 82.18C74.56 79.9107 75.3 78.776 75.3 78.776C75.3 78.776 74.412 78.8747 72.636 79.072C70.9587 79.1707 68.936 79.368 66.568 79.664C64.2987 79.8613 62.128 80.0587 60.056 80.256C57.984 80.4533 56.6027 80.552 55.912 80.552C55.024 80.552 53.6427 80.6013 51.768 80.7C49.8933 80.7987 48.1667 80.5027 46.588 79.812C45.108 79.0227 44.3187 77.4933 44.22 75.224C44.1213 73.5467 44.664 72.2147 45.848 71.228C47.1307 70.1427 48.5613 69.3533 50.14 68.86C51.7187 68.3667 53.1 68.0707 54.284 67.972C55.5667 67.7747 56.208 67.676 56.208 67.676L89.804 65.9C89.804 65.9 90.4453 65.9493 91.728 66.048C93.0107 66.048 94.4907 66.2947 96.168 66.788C97.944 67.1827 99.424 67.972 100.608 69.156C101.891 70.2413 102.483 71.82 102.384 73.892C102.384 75.964 101.249 78.6773 98.98 82.032C95.3293 87.4587 92.32 92.984 89.952 98.608C87.6827 104.232 85.8573 109.659 84.476 114.888C83.1933 120.019 82.2067 124.656 81.516 128.8C80.924 132.845 80.5293 136.101 80.332 138.568C80.1347 140.936 80.036 142.12 80.036 142.12C80.036 142.12 80.0853 142.564 80.184 143.452C80.2827 144.34 80.036 145.376 79.444 146.56C78.9507 147.744 77.8653 148.78 76.188 149.668C74.5107 150.556 71.896 151 68.344 151C64.792 151 62.128 150.605 60.352 149.816C58.576 148.928 57.3427 147.941 56.652 146.856C55.9613 145.672 55.616 144.685 55.616 143.896C55.616 143.008 55.616 142.564 55.616 142.564Z" fill="#505255"/>
<path d="M42 162.1H107.12V169.5H42V162.1Z" fill="#505255"/>
</svg>
