<svg width="148" height="240" viewBox="0 0 148 240" fill="none" xmlns="http://www.w3.org/2000/svg">
<rect width="148" height="240" fill="white"/>
<rect x="6" y="6" width="136" height="228" fill="#505255"/>
<ellipse cx="73.5" cy="120" rx="54.5" ry="67" fill="white"/>
<path d="M95.24 149C91.4907 149 88.6787 148.556 86.804 147.668C84.9293 146.78 83.696 145.793 83.104 144.708C82.512 143.623 82.216 142.636 82.216 141.748C82.216 140.86 82.216 140.416 82.216 140.416L82.068 111.556C76.8387 111.655 71.856 111.507 67.12 111.112C62.4827 110.619 58.3387 109.632 54.688 108.152C51.136 106.573 48.2747 104.205 46.104 101.048C43.9333 97.8907 42.7 93.5987 42.404 88.172C42.108 82.7453 43.0947 78.404 45.364 75.148C47.6333 71.7933 50.544 69.2773 54.096 67.6C57.7467 65.824 61.4467 64.5907 65.196 63.9C68.9453 63.2093 72.2013 62.8147 74.964 62.716C78.6147 62.5187 82.364 62.9133 86.212 63.9C90.1587 64.788 93.7107 66.564 96.868 69.228C100.124 71.892 102.541 75.74 104.12 80.772C105.107 83.732 105.847 87.3827 106.34 91.724C106.833 96.0653 107.129 100.703 107.228 105.636C107.327 110.471 107.376 115.256 107.376 119.992C107.376 124.629 107.327 128.773 107.228 132.424C107.129 136.075 107.08 138.837 107.08 140.712C107.08 143.08 106.488 144.856 105.304 146.04C104.12 147.125 102.739 147.915 101.16 148.408C99.5813 148.803 98.2 149 97.016 149C95.832 149 95.24 149 95.24 149ZM82.956 96.904C82.956 96.904 82.956 96.2627 82.956 94.98C83.0547 93.5987 83.0053 91.9707 82.808 90.096C82.6107 88.1227 82.216 86.1493 81.624 84.176C81.1307 82.2027 80.292 80.5747 79.108 79.292C77.924 77.9107 76.296 77.1707 74.224 77.072C71.6587 76.9733 69.7347 77.516 68.452 78.7C67.1693 79.884 66.2813 81.2653 65.788 82.844C65.2947 84.4227 64.9987 85.8533 64.9 87.136C64.9 88.32 64.9 88.8627 64.9 88.764C64.9 88.6653 64.9493 89.2573 65.048 90.54C65.1467 91.724 65.6893 93.056 66.676 94.536C67.6627 95.9173 69.3893 96.9533 71.856 97.644C74.4213 98.3347 78.1213 98.088 82.956 96.904Z" fill="#505255"/>
<path d="M39 160.1H110.188V167.5H39V160.1Z" fill="#505255"/>
</svg>
