<svg width="148" height="240" viewBox="0 0 148 240" fill="none" xmlns="http://www.w3.org/2000/svg">
<rect width="148" height="240" fill="white"/>
<rect width="148" height="240" fill="white"/>
<rect x="6" y="6" width="136" height="228" fill="#3C3F42"/>
<ellipse cx="73.5" cy="120" rx="54.5" ry="67" fill="white"/>
<path d="M39.544 87.392C39.544 87.392 40.1413 87.392 41.336 87.392C42.5307 87.3067 43.9387 87.52 45.56 88.032C47.1813 88.4587 48.632 89.3547 49.912 90.72C51.2773 92 52.088 94.0053 52.344 96.736C52.5147 98.8693 52.856 101.643 53.368 105.056C53.88 108.384 54.4347 111.883 55.032 115.552C55.6293 119.221 56.184 122.677 56.696 125.92C57.2933 129.077 57.7627 131.68 58.104 133.728C58.5307 135.776 58.744 136.8 58.744 136.8L64.248 116.32C64.248 116.32 64.4613 115.723 64.888 114.528C65.3147 113.248 66.0827 112.011 67.192 110.816C68.3867 109.621 70.136 109.024 72.44 109.024C74.744 109.024 76.4933 109.493 77.688 110.432C78.8827 111.285 79.736 112.352 80.248 113.632C80.8453 114.912 81.3147 116.149 81.656 117.344C81.912 118.197 82.296 119.648 82.808 121.696C83.4053 123.659 83.96 125.749 84.472 127.968C85.0693 130.187 85.5813 132.064 86.008 133.6C86.4347 135.136 86.648 135.904 86.648 135.904L87.8 125.28L93.176 87.648C93.176 87.648 93.432 87.0933 93.944 85.984C94.5413 84.7893 95.6507 83.6373 97.272 82.528C98.9787 81.4187 101.496 80.992 104.824 81.248C109.859 81.5893 112.931 82.6133 114.04 84.32C115.235 86.0267 115.405 88.1173 114.552 90.592C114.125 91.7867 113.485 94.3893 112.632 98.4C111.779 102.325 110.797 107.061 109.688 112.608C108.579 118.155 107.512 124 106.488 130.144C105.464 136.203 104.568 141.963 103.8 147.424C103.459 150.24 102.691 152.416 101.496 153.952C100.387 155.403 99.192 156.427 97.912 157.024C96.632 157.621 95.5227 157.963 94.584 158.048C93.6453 158.133 93.176 158.176 93.176 158.176C93.176 158.176 92.6213 158.176 91.512 158.176C90.4027 158.261 89.0373 158.091 87.416 157.664C85.88 157.237 84.344 156.341 82.808 154.976C81.3573 153.611 80.2053 151.477 79.352 148.576C77.7307 142.773 76.3227 137.909 75.128 133.984C73.9333 130.059 73.336 128.096 73.336 128.096L66.168 149.856C66.168 149.856 65.912 150.368 65.4 151.392C64.888 152.416 63.864 153.44 62.328 154.464C60.8773 155.488 58.7013 156 55.8 156C51.448 156 48.4187 155.317 46.712 153.952C45.0907 152.501 43.8107 150.197 42.872 147.04C42.616 145.931 42.104 143.968 41.336 141.152C40.568 138.251 39.7147 134.88 38.776 131.04C37.8373 127.2 36.856 123.275 35.832 119.264C34.808 115.168 33.8693 111.413 33.016 108C32.1627 104.501 31.4373 101.685 30.84 99.552C30.328 97.3333 30.072 96.224 30.072 96.224C30.072 96.224 29.9867 95.84 29.816 95.072C29.6453 94.304 29.7307 93.408 30.072 92.384C30.4133 91.2747 31.2667 90.2507 32.632 89.312C34.0827 88.3733 36.3867 87.7333 39.544 87.392Z" fill="#3C3F42"/>
<rect x="53" y="168" width="24" height="40" fill="white"/>
<rect x="53" y="168" width="24" height="40" fill="white"/>
<rect x="54" y="169" width="22" height="38" fill="#119F63"/>
<rect x="41" y="179" width="24" height="40" fill="white"/>
<rect x="41" y="179" width="24" height="40" fill="white"/>
<rect x="42" y="180" width="22" height="38" fill="#E7CB36"/>
<rect x="82" y="167" width="24" height="40" fill="white"/>
<rect x="82" y="167" width="24" height="40" fill="white"/>
<rect x="83" y="168" width="22" height="38" fill="#E73636"/>
<rect x="70" y="180" width="24" height="40" fill="white"/>
<rect x="70" y="180" width="24" height="40" fill="white"/>
<rect x="71" y="181" width="22" height="38" fill="#367DE7"/>
</svg>
