<svg width="148" height="240" viewBox="0 0 148 240" fill="none" xmlns="http://www.w3.org/2000/svg">
<rect width="148" height="240" fill="white"/>
<rect x="6" y="6" width="136" height="228" fill="#505255"/>
<ellipse cx="73.5" cy="120" rx="54.5" ry="67" fill="white"/>
<path d="M44.108 76C44.0093 75.408 44.0587 74.52 44.256 73.336C44.4533 72.152 45.144 70.9187 46.328 69.636C47.6107 68.2547 49.732 67.0213 52.692 65.936C55.7507 64.8507 60.0427 64.1107 65.568 63.716C73.0667 63.2227 79.036 63.864 83.476 65.64C87.916 67.416 91.1227 69.784 93.096 72.744C95.168 75.6053 96.4013 78.516 96.796 81.476C97.388 85.8173 97.2893 89.4187 96.5 92.28C95.8093 95.1413 94.8227 96.868 93.54 97.46C93.54 97.46 94.0333 97.6573 95.02 98.052C96.1053 98.4467 97.3387 99.3347 98.72 100.716C100.2 101.999 101.483 104.071 102.568 106.932C103.752 109.793 104.492 113.74 104.788 118.772C105.183 125.383 104.689 131.056 103.308 135.792C101.927 140.429 99.164 143.981 95.02 146.448C90.9747 148.816 84.956 150 76.964 150C68.972 150 62.6573 149.112 58.02 147.336C53.3827 145.461 50.028 143.143 47.956 140.38C45.9827 137.617 44.996 134.904 44.996 132.24C44.996 129.576 45.736 127.553 47.216 126.172C48.7947 124.791 50.3733 123.853 51.952 123.36C53.5307 122.867 54.4187 122.62 54.616 122.62C54.8133 122.62 55.5533 122.62 56.836 122.62C58.2173 122.521 59.7467 122.62 61.424 122.916C63.2 123.212 64.7787 123.853 66.16 124.84C67.5413 125.827 68.38 127.356 68.676 129.428C69.0707 132.191 69.8107 134.164 70.896 135.348C71.9813 136.532 73.0173 137.272 74.004 137.568C75.0893 137.864 75.632 138.012 75.632 138.012C75.632 138.012 75.928 138.012 76.52 138.012C77.2107 137.913 77.9013 137.519 78.592 136.828C79.3813 136.039 80.0227 134.608 80.516 132.536C81.0093 130.365 81.108 127.208 80.812 123.064C80.4173 117.539 79.5787 113.592 78.296 111.224C77.0133 108.856 75.6813 107.425 74.3 106.932C73.0173 106.34 72.08 106.044 71.488 106.044C71.0933 106.044 70.2547 106.044 68.972 106.044C67.788 106.044 66.5053 105.896 65.124 105.6C63.7427 105.304 62.5587 104.811 61.572 104.12C60.5853 103.429 60.1413 102.443 60.24 101.16C60.3387 99.384 60.8813 98.052 61.868 97.164C62.8547 96.276 63.8907 95.684 64.976 95.388C66.0613 95.092 66.7027 94.944 66.9 94.944C67.196 94.8453 67.8867 94.648 68.972 94.352C70.0573 94.056 71.044 93.2667 71.932 91.984C72.9187 90.6027 73.2147 88.432 72.82 85.472C72.524 82.4133 71.636 80.44 70.156 79.552C68.676 78.5653 67.2453 78.1213 65.864 78.22C64.5813 78.22 63.8413 78.22 63.644 78.22C63.5453 78.22 62.5587 78.4667 60.684 78.96C58.8093 79.3547 56.6387 79.6507 54.172 79.848C51.804 80.0453 49.6333 79.8973 47.66 79.404C45.6867 78.9107 44.5027 77.776 44.108 76Z" fill="#505255"/>
<path d="M41 161.1H108.784V168.5H41V161.1Z" fill="#505255"/>
</svg>
