<svg width="148" height="240" viewBox="0 0 148 240" fill="none" xmlns="http://www.w3.org/2000/svg">
<rect width="148" height="240" fill="white"/>
<rect x="6" y="6" width="136" height="228" fill="#505255"/>
<ellipse cx="73.5" cy="120" rx="54.5" ry="67" fill="white"/>
<path d="M46.476 73.04C46.476 73.04 46.5253 72.596 46.624 71.708C46.8213 70.82 47.216 69.8333 47.808 68.748C48.4987 67.564 49.6333 66.5773 51.212 65.788C52.7907 64.9 55.0107 64.5053 57.872 64.604C61.72 64.7027 64.3347 65.344 65.716 66.528C67.196 67.712 67.9853 68.9453 68.084 70.228C68.1827 71.412 68.232 72.2507 68.232 72.744C68.232 73.04 68.084 74.52 67.788 77.184C67.5907 79.7493 67.2947 82.9067 66.9 86.656C66.5053 90.3067 66.0613 93.9573 65.568 97.608C65.1733 101.259 64.828 104.317 64.532 106.784C64.3347 109.251 64.236 110.484 64.236 110.484L78.148 109.448L76.816 84.14C76.816 84.14 76.816 83.7947 76.816 83.104C76.9147 82.4133 77.26 81.624 77.852 80.736C78.5427 79.7493 79.6773 78.8613 81.256 78.072C82.8347 77.2827 85.1533 76.7893 88.212 76.592C91.2707 76.3947 93.688 76.6413 95.464 77.332C97.24 78.0227 98.572 78.8613 99.46 79.848C100.348 80.736 100.891 81.5747 101.088 82.364C101.384 83.1533 101.532 83.548 101.532 83.548L104.64 141.564C104.64 141.564 104.591 142.008 104.492 142.896C104.492 143.685 104.147 144.672 103.456 145.856C102.864 146.941 101.729 147.928 100.052 148.816C98.3747 149.605 95.908 150 92.652 150C89.396 150 86.88 149.605 85.104 148.816C83.328 148.027 82.0453 147.089 81.256 146.004C80.5653 144.919 80.1213 143.981 79.924 143.192C79.8253 142.403 79.776 142.008 79.776 142.008L78.74 122.176L59.796 124.396C59.796 124.396 59.0067 124.495 57.428 124.692C55.8493 124.791 54.024 124.692 51.952 124.396C49.9787 124.1 48.2027 123.311 46.624 122.028C45.144 120.745 44.4533 118.723 44.552 115.96C44.7493 110.435 44.996 104.021 45.292 96.72C45.6867 89.32 46.0813 81.4267 46.476 73.04Z" fill="#505255"/>
<path d="M41 161.1H108.044V168.5H41V161.1Z" fill="#505255"/>
</svg>
