<svg width="240" height="240" viewBox="0 0 240 240" fill="none" xmlns="http://www.w3.org/2000/svg">
<rect x="46" width="148" height="240" fill="white"/>
<rect x="52" y="6" width="136" height="228" fill="#505255"/>
<ellipse cx="119.5" cy="120" rx="54.5" ry="67" fill="white"/>
<ellipse cx="120" cy="120.5" rx="49" ry="63.5" fill="#505255"/>
<g clip-path="url(#clip0_67_518)">
<g filter="url(#filter0_d_67_518)">
<ellipse cx="122.5" cy="123" rx="53.5" ry="31" fill="#C52323"/>
</g>
<path d="M74.064 102.384C74.064 102.384 74.376 102.432 75 102.528C75.624 102.576 76.32 102.792 77.088 103.176C77.904 103.512 78.6 104.136 79.176 105.048C79.752 105.912 79.992 107.184 79.896 108.864C79.848 109.968 79.776 111.456 79.68 113.328C79.632 115.152 79.608 117.168 79.608 119.376C79.608 121.536 79.656 123.696 79.752 125.856C79.896 128.016 80.112 130.008 80.4 131.832C80.736 133.656 81.168 135.12 81.696 136.224C82.272 137.28 82.968 137.784 83.784 137.736C84.648 137.688 85.296 137.112 85.728 136.008C86.16 134.856 86.448 133.416 86.592 131.688C86.736 129.912 86.784 128.04 86.736 126.072C86.688 124.104 86.592 122.232 86.448 120.456C86.304 118.632 86.16 117.144 86.016 115.992C85.92 114.792 85.848 114.12 85.8 113.976C85.752 113.784 85.68 113.376 85.584 112.752C85.488 112.128 85.536 111.456 85.728 110.736C85.92 110.016 86.4 109.368 87.168 108.792C87.984 108.216 89.256 107.856 90.984 107.712C92.712 107.568 94.056 107.784 95.016 108.36C95.976 108.936 96.648 109.632 97.032 110.448C97.464 111.264 97.704 111.984 97.752 112.608C97.848 113.232 97.896 113.544 97.896 113.544C97.896 113.544 97.968 114.096 98.112 115.2C98.304 116.304 98.448 117.768 98.544 119.592C98.688 121.368 98.688 123.336 98.544 125.496C98.448 127.656 98.136 129.84 97.608 132.048C97.128 134.208 96.336 136.2 95.232 138.024C94.128 139.8 92.64 141.24 90.768 142.344C88.896 143.448 86.544 144 83.712 144C80.88 144 78.48 143.424 76.512 142.272C74.592 141.072 73.008 139.512 71.76 137.592C70.56 135.624 69.624 133.44 68.952 131.04C68.328 128.64 67.896 126.192 67.656 123.696C67.464 121.152 67.368 118.752 67.368 116.496C67.416 114.24 67.488 112.272 67.584 110.592C67.728 108.912 67.824 107.712 67.872 106.992C67.968 105.744 68.328 104.808 68.952 104.184C69.576 103.512 70.272 103.056 71.04 102.816C71.856 102.576 72.552 102.456 73.128 102.456C73.752 102.408 74.064 102.384 74.064 102.384ZM111.344 144C109.616 144 108.296 143.808 107.384 143.424C106.52 142.992 105.896 142.512 105.512 141.984C105.176 141.408 104.984 140.928 104.936 140.544C104.936 140.112 104.936 139.896 104.936 139.896C104.936 139.896 104.864 139.176 104.72 137.736C104.576 136.296 104.384 134.448 104.144 132.192C103.904 129.888 103.64 127.44 103.352 124.848C103.112 122.208 102.848 119.688 102.56 117.288C102.32 114.84 102.128 112.776 101.984 111.096C101.84 109.368 101.744 108.288 101.696 107.856C101.648 106.608 101.912 105.528 102.488 104.616C103.112 103.656 104.6 103.104 106.952 102.96C108.536 102.864 109.808 103.104 110.768 103.68C111.728 104.256 112.424 104.856 112.856 105.48C113.288 106.056 113.504 106.344 113.504 106.344L120.272 122.76L122.936 127.728L121.28 114.048C121.28 114.048 121.28 113.256 121.28 111.672C121.328 110.088 121.424 108.192 121.568 105.984C121.664 104.88 122.024 104.04 122.648 103.464C123.272 102.888 123.968 102.48 124.736 102.24C125.552 102 126.248 101.88 126.824 101.88C127.448 101.832 127.76 101.808 127.76 101.808C127.76 101.808 128.024 101.832 128.552 101.88C129.128 101.928 129.776 102.144 130.496 102.528C131.216 102.864 131.84 103.488 132.368 104.4C132.944 105.264 133.208 106.536 133.16 108.216C133.112 110.28 133.184 112.632 133.376 115.272C133.568 117.864 133.808 120.528 134.096 123.264C134.432 126 134.744 128.568 135.032 130.968C135.368 133.32 135.656 135.288 135.896 136.872C136.184 138.456 136.352 139.44 136.4 139.824C136.496 140.4 136.52 141.096 136.472 141.912C136.424 142.728 136.04 143.448 135.32 144.072C134.648 144.696 133.376 145.032 131.504 145.08C129.632 145.08 128.24 144.864 127.328 144.432C126.416 144 125.792 143.568 125.456 143.136C125.168 142.656 125.024 142.416 125.024 142.416L114.224 123.048C114.224 123.048 114.32 123.528 114.512 124.488C114.704 125.448 114.92 126.696 115.16 128.232C115.448 129.768 115.712 131.424 115.952 133.2C116.24 134.976 116.456 136.68 116.6 138.312C116.744 139.944 116.552 141.168 116.024 141.984C115.544 142.752 114.92 143.28 114.152 143.568C113.432 143.856 112.784 144 112.208 144C111.632 144 111.344 144 111.344 144ZM140.222 123.048C140.222 119.208 140.894 115.704 142.238 112.536C143.582 109.32 145.406 106.776 147.71 104.904C150.014 102.984 152.558 102.024 155.342 102.024C157.406 102.024 159.374 102.576 161.246 103.68C163.118 104.736 164.774 106.248 166.214 108.216C167.654 110.136 168.782 112.368 169.598 114.912C170.414 117.456 170.822 120.168 170.822 123.048C170.822 125.928 170.414 128.64 169.598 131.184C168.782 133.728 167.654 135.984 166.214 137.952C164.774 139.872 163.118 141.384 161.246 142.488C159.374 143.544 157.406 144.072 155.342 144.072C152.558 144.072 150.014 143.136 147.71 141.264C145.406 139.344 143.582 136.8 142.238 133.632C140.894 130.464 140.222 126.936 140.222 123.048ZM151.238 122.76C151.238 125.544 151.43 128.112 151.814 130.464C152.198 132.768 152.726 134.616 153.398 136.008C154.07 137.352 154.814 138.024 155.63 138.024C156.446 138.024 157.19 137.352 157.862 136.008C158.534 134.616 159.062 132.768 159.446 130.464C159.83 128.112 160.022 125.544 160.022 122.76C160.022 119.928 159.83 117.36 159.446 115.056C159.062 112.752 158.534 110.904 157.862 109.512C157.19 108.12 156.446 107.424 155.63 107.424C154.814 107.424 154.07 108.12 153.398 109.512C152.726 110.904 152.198 112.752 151.814 115.056C151.43 117.36 151.238 119.928 151.238 122.76Z" fill="black"/>
<path d="M77.176 103.806C77.176 103.806 77.4923 103.855 78.125 103.952C78.7577 104.001 79.4633 104.22 80.242 104.609C81.0693 104.95 81.775 105.582 82.359 106.507C82.943 107.383 83.1863 108.673 83.089 110.376C83.0403 111.495 82.9673 113.004 82.87 114.902C82.8213 116.751 82.797 118.795 82.797 121.034C82.797 123.224 82.8457 125.414 82.943 127.604C83.089 129.794 83.308 131.814 83.6 133.663C83.9407 135.512 84.3787 136.997 84.914 138.116C85.498 139.187 86.2037 139.698 87.031 139.649C87.907 139.6 88.564 139.016 89.002 137.897C89.44 136.729 89.732 135.269 89.878 133.517C90.024 131.716 90.0727 129.818 90.024 127.823C89.9753 125.828 89.878 123.93 89.732 122.129C89.586 120.28 89.44 118.771 89.294 117.603C89.1967 116.386 89.1237 115.705 89.075 115.559C89.0263 115.364 88.9533 114.951 88.856 114.318C88.7587 113.685 88.8073 113.004 89.002 112.274C89.1967 111.544 89.6833 110.887 90.462 110.303C91.2893 109.719 92.579 109.354 94.331 109.208C96.083 109.062 97.4457 109.281 98.419 109.865C99.3923 110.449 100.074 111.155 100.463 111.982C100.901 112.809 101.144 113.539 101.193 114.172C101.29 114.805 101.339 115.121 101.339 115.121C101.339 115.121 101.412 115.681 101.558 116.8C101.753 117.919 101.899 119.404 101.996 121.253C102.142 123.054 102.142 125.049 101.996 127.239C101.899 129.429 101.582 131.643 101.047 133.882C100.56 136.072 99.7573 138.092 98.638 139.941C97.5187 141.742 96.01 143.202 94.112 144.321C92.214 145.44 89.8293 146 86.958 146C84.0867 146 81.6533 145.416 79.658 144.248C77.7113 143.031 76.1053 141.45 74.84 139.503C73.6233 137.508 72.6743 135.293 71.993 132.86C71.3603 130.427 70.9223 127.945 70.679 125.414C70.4843 122.835 70.387 120.401 70.387 118.114C70.4357 115.827 70.5087 113.831 70.606 112.128C70.752 110.425 70.8493 109.208 70.898 108.478C70.9953 107.213 71.3603 106.264 71.993 105.631C72.6257 104.95 73.3313 104.487 74.11 104.244C74.9373 104.001 75.643 103.879 76.227 103.879C76.8597 103.83 77.176 103.806 77.176 103.806ZM114.973 146C113.221 146 111.883 145.805 110.958 145.416C110.082 144.978 109.45 144.491 109.06 143.956C108.72 143.372 108.525 142.885 108.476 142.496C108.476 142.058 108.476 141.839 108.476 141.839C108.476 141.839 108.403 141.109 108.257 139.649C108.111 138.189 107.917 136.315 107.673 134.028C107.43 131.692 107.162 129.21 106.87 126.582C106.627 123.905 106.359 121.35 106.067 118.917C105.824 116.435 105.629 114.342 105.483 112.639C105.337 110.887 105.24 109.792 105.191 109.354C105.143 108.089 105.41 106.994 105.994 106.069C106.627 105.096 108.136 104.536 110.52 104.39C112.126 104.293 113.416 104.536 114.389 105.12C115.363 105.704 116.068 106.312 116.506 106.945C116.944 107.529 117.163 107.821 117.163 107.821L124.025 124.465L126.726 129.502L125.047 115.632C125.047 115.632 125.047 114.829 125.047 113.223C125.096 111.617 125.193 109.695 125.339 107.456C125.437 106.337 125.802 105.485 126.434 104.901C127.067 104.317 127.773 103.903 128.551 103.66C129.379 103.417 130.084 103.295 130.668 103.295C131.301 103.246 131.617 103.222 131.617 103.222C131.617 103.222 131.885 103.246 132.42 103.295C133.004 103.344 133.661 103.563 134.391 103.952C135.121 104.293 135.754 104.925 136.289 105.85C136.873 106.726 137.141 108.016 137.092 109.719C137.044 111.812 137.117 114.196 137.311 116.873C137.506 119.501 137.749 122.202 138.041 124.976C138.382 127.75 138.698 130.354 138.99 132.787C139.331 135.172 139.623 137.167 139.866 138.773C140.158 140.379 140.329 141.377 140.377 141.766C140.475 142.35 140.499 143.056 140.45 143.883C140.402 144.71 140.012 145.44 139.282 146.073C138.601 146.706 137.311 147.046 135.413 147.095C133.515 147.095 132.104 146.876 131.179 146.438C130.255 146 129.622 145.562 129.281 145.124C128.989 144.637 128.843 144.394 128.843 144.394L117.893 124.757C117.893 124.757 117.991 125.244 118.185 126.217C118.38 127.19 118.599 128.456 118.842 130.013C119.134 131.57 119.402 133.249 119.645 135.05C119.937 136.851 120.156 138.578 120.302 140.233C120.448 141.888 120.254 143.129 119.718 143.956C119.232 144.735 118.599 145.27 117.82 145.562C117.09 145.854 116.433 146 115.849 146C115.265 146 114.973 146 114.973 146ZM144.253 124.757C144.253 120.864 144.934 117.311 146.297 114.099C147.659 110.838 149.509 108.259 151.845 106.361C154.181 104.414 156.76 103.441 159.583 103.441C161.675 103.441 163.671 104.001 165.569 105.12C167.467 106.191 169.146 107.724 170.606 109.719C172.066 111.666 173.209 113.929 174.037 116.508C174.864 119.087 175.278 121.837 175.278 124.757C175.278 127.677 174.864 130.427 174.037 133.006C173.209 135.585 172.066 137.873 170.606 139.868C169.146 141.815 167.467 143.348 165.569 144.467C163.671 145.538 161.675 146.073 159.583 146.073C156.76 146.073 154.181 145.124 151.845 143.226C149.509 141.279 147.659 138.7 146.297 135.488C144.934 132.276 144.253 128.699 144.253 124.757ZM155.422 124.465C155.422 127.288 155.616 129.891 156.006 132.276C156.395 134.612 156.93 136.486 157.612 137.897C158.293 139.26 159.047 139.941 159.875 139.941C160.702 139.941 161.456 139.26 162.138 137.897C162.819 136.486 163.354 134.612 163.744 132.276C164.133 129.891 164.328 127.288 164.328 124.465C164.328 121.594 164.133 118.99 163.744 116.654C163.354 114.318 162.819 112.444 162.138 111.033C161.456 109.622 160.702 108.916 159.875 108.916C159.047 108.916 158.293 109.622 157.612 111.033C156.93 112.444 156.395 114.318 156.006 116.654C155.616 118.99 155.422 121.594 155.422 124.465Z" fill="#968424"/>
</g>
<defs>
<filter id="filter0_d_67_518" x="65" y="92" width="115" height="70" filterUnits="userSpaceOnUse" color-interpolation-filters="sRGB">
<feFlood flood-opacity="0" result="BackgroundImageFix"/>
<feColorMatrix in="SourceAlpha" type="matrix" values="0 0 0 0 0 0 0 0 0 0 0 0 0 0 0 0 0 0 127 0" result="hardAlpha"/>
<feOffset dy="4"/>
<feGaussianBlur stdDeviation="2"/>
<feComposite in2="hardAlpha" operator="out"/>
<feColorMatrix type="matrix" values="0 0 0 0 0 0 0 0 0 0 0 0 0 0 0 0 0 0 0.25 0"/>
<feBlend mode="normal" in2="BackgroundImageFix" result="effect1_dropShadow_67_518"/>
<feBlend mode="normal" in="SourceGraphic" in2="effect1_dropShadow_67_518" result="shape"/>
</filter>
<clipPath id="clip0_67_518">
<rect width="107" height="106" fill="white" transform="translate(67 74)"/>
</clipPath>
</defs>
</svg>
