<svg width="240" height="240" viewBox="0 0 240 240" fill="none" xmlns="http://www.w3.org/2000/svg">
<rect x="46" width="148" height="240" fill="white"/>
<rect x="52" y="6" width="136" height="228" fill="#505255"/>
<ellipse cx="119.5" cy="120" rx="54.5" ry="67" fill="white"/>
<path d="M90.168 79.248C91.96 79.248 93.6667 79.3333 95.288 79.504C96.9947 79.5893 98.4027 80.1013 99.512 81.04C100.621 81.9787 101.261 83.6853 101.432 86.16C101.517 87.3547 101.688 89.36 101.944 92.176C102.285 94.9067 102.627 98.1067 102.968 101.776C103.395 105.445 103.821 109.243 104.248 113.168C104.76 117.008 105.229 120.72 105.656 124.304C106.083 127.803 106.467 130.832 106.808 133.392C107.149 135.952 107.405 137.659 107.576 138.512C107.832 139.792 108.088 141.328 108.344 143.12C108.6 144.827 108.6 146.533 108.344 148.24C108.088 149.861 107.277 151.227 105.912 152.336C104.632 153.445 102.499 154 99.512 154C96.6107 154 94.3493 153.701 92.728 153.104C91.1067 152.421 89.9547 151.611 89.272 150.672C88.5893 149.733 88.1627 148.88 87.992 148.112C87.9067 147.259 87.8213 146.661 87.736 146.32C87.6507 146.064 87.4373 144.869 87.096 142.736C86.7547 140.603 86.328 138.043 85.816 135.056C85.3893 132.069 84.92 129.125 84.408 126.224C83.9813 123.237 83.5973 120.763 83.256 118.8C82.9147 116.837 82.744 115.856 82.744 115.856C82.744 115.856 82.1893 115.899 81.08 115.984C80.056 115.984 78.776 115.941 77.24 115.856C75.7893 115.685 74.3813 115.344 73.016 114.832C71.736 114.235 70.7973 113.339 70.2 112.144C69.688 110.864 69.816 109.157 70.584 107.024C71.608 104.293 72.6747 101.349 73.784 98.192C74.8933 95.0347 76.1733 92.0053 77.624 89.104C79.16 86.2027 80.9093 83.856 82.872 82.064C84.92 80.1867 87.352 79.248 90.168 79.248ZM140.556 80.528C140.556 80.528 141.452 80.5707 143.244 80.656C145.036 80.7413 147.255 81.2107 149.9 82.064C152.545 82.832 155.233 84.3253 157.964 86.544C160.695 88.6773 162.999 91.792 164.876 95.888C166.839 99.984 167.948 105.403 168.204 112.144C168.545 122.811 167.82 131.216 166.028 137.36C164.236 143.419 161.377 147.728 157.452 150.288C153.527 152.763 148.535 154 142.476 154C133.431 154 126.391 150.885 121.356 144.656C116.321 138.341 113.804 128.357 113.804 114.704C113.804 107.877 114.529 102.245 115.98 97.808C117.431 93.3707 119.393 89.9147 121.868 87.44C124.343 84.9653 127.159 83.216 130.316 82.192C133.559 81.0827 136.972 80.528 140.556 80.528ZM141.452 90.768C140.855 90.9387 140.172 91.152 139.404 91.408C138.721 91.664 138.039 92.4747 137.356 93.84C136.759 95.2053 136.204 97.5093 135.692 100.752C135.265 103.995 134.967 108.645 134.796 114.704C134.625 121.616 134.753 127.077 135.18 131.088C135.607 135.013 136.247 137.829 137.1 139.536C138.039 141.157 139.148 142.011 140.428 142.096C141.452 142.181 142.391 141.925 143.244 141.328C144.183 140.731 144.993 139.493 145.676 137.616C146.444 135.739 146.999 132.965 147.34 129.296C147.767 125.627 147.98 120.763 147.98 114.704C147.98 108.645 147.639 103.995 146.956 100.752C146.359 97.424 145.591 95.0773 144.652 93.712C143.799 92.2613 143.031 91.408 142.348 91.152C141.751 90.896 141.452 90.768 141.452 90.768Z" fill="#505255"/>
<path d="M67 163.6H170.38V170H67V163.6Z" fill="#505255"/>
</svg>
