<svg width="240" height="240" viewBox="0 0 240 240" fill="none" xmlns="http://www.w3.org/2000/svg">
<rect x="46" width="148" height="240" fill="white"/>
<rect x="52" y="6" width="136" height="228" fill="#505255"/>
<ellipse cx="119.5" cy="120" rx="54.5" ry="67" fill="white"/>
<path d="M107.46 70.672C108.151 70.1787 109.088 69.3893 110.272 68.304C111.456 67.2187 112.887 66.232 114.564 65.344C116.241 64.3573 118.215 63.7653 120.484 63.568C122.753 63.3707 125.319 63.9133 128.18 65.196C131.535 66.676 133.656 68.0573 134.544 69.34C135.432 70.524 135.531 71.6587 134.84 72.744C134.248 73.7307 133.311 74.668 132.028 75.556C130.844 76.444 129.759 77.332 128.772 78.22C126.897 79.8973 125.269 81.772 123.888 83.844C122.605 85.8173 121.619 87.544 120.928 89.024C120.237 90.4053 119.892 91.096 119.892 91.096C125.911 89.616 131.239 89.7147 135.876 91.392C140.513 92.9707 144.164 95.8813 146.828 100.124C149.591 104.268 151.021 109.399 151.12 115.516C151.219 121.633 150.183 127.307 148.012 132.536C145.94 137.765 142.585 142.008 137.948 145.264C133.409 148.421 127.588 150 120.484 150C113.281 150 107.361 148.372 102.724 145.116C98.0867 141.761 94.6333 137.223 92.364 131.5C90.0947 125.777 88.96 119.315 88.96 112.112C88.96 107.771 89.552 103.577 90.736 99.532C92.0187 95.388 93.548 91.5893 95.324 88.136C97.1987 84.6827 99.0733 81.6733 100.948 79.108C102.823 76.444 104.352 74.372 105.536 72.892C106.819 71.412 107.46 70.672 107.46 70.672ZM119.596 100.864C116.537 101.16 114.367 102.344 113.084 104.416C111.801 106.389 111.061 108.609 110.864 111.076C110.765 113.444 110.765 115.417 110.864 116.996C111.16 121.337 112.147 125.185 113.824 128.54C115.501 131.895 118.067 133.424 121.52 133.128C124.973 132.832 127.341 130.957 128.624 127.504C129.907 124.051 130.351 118.92 129.956 112.112C129.759 108.757 129.117 106.291 128.032 104.712C126.947 103.035 125.763 101.949 124.48 101.456C123.197 100.963 122.063 100.765 121.076 100.864C120.089 100.864 119.596 100.864 119.596 100.864Z" fill="#505255"/>
<path d="M86 161.1H154.376V168.5H86V161.1Z" fill="#505255"/>
</svg>
