<svg width="148" height="240" viewBox="0 0 148 240" fill="none" xmlns="http://www.w3.org/2000/svg">
<g clip-path="url(#clip0_52_469)">
<rect width="148" height="240" fill="white"/>
<rect width="148" height="240" fill="white"/>
<rect x="6" y="6" width="136" height="228" fill="#505255"/>
<ellipse cx="73.5" cy="120" rx="54.5" ry="67" fill="white"/>
<path d="M48.804 153.008L41.996 88.48C41.996 88.48 41.848 88.184 41.552 87.592C41.3547 87 41.3053 86.2107 41.404 85.224C41.5027 84.2373 42.0453 83.2013 43.032 82.116C44.1173 81.0307 45.9427 80.044 48.508 79.156C51.9613 77.8733 56.0067 76.8373 60.644 76.048C65.38 75.16 70.3627 74.9133 75.592 75.308C80.92 75.7027 86.1493 77.2813 91.28 80.044C94.3387 81.6227 96.608 83.892 98.088 86.852C99.568 89.812 100.456 92.9693 100.752 96.324C101.048 99.6787 101.048 102.885 100.752 105.944C100.555 109.003 100.209 111.519 99.716 113.492C99.3213 115.465 99.124 116.452 99.124 116.452C99.124 116.452 98.7787 117.192 98.088 118.672C97.3973 120.152 96.0653 121.829 94.092 123.704C92.2173 125.48 89.4547 126.911 85.804 127.996L106.82 150.64C106.82 150.64 107.165 151.035 107.856 151.824C108.547 152.613 109.089 153.6 109.484 154.784C109.977 155.869 109.879 157.004 109.188 158.188C108.596 159.273 106.968 160.211 104.304 161C101.541 161.789 99.0747 161.987 96.904 161.592C94.832 161.197 93.1053 160.556 91.724 159.668C90.4413 158.78 89.4547 157.941 88.764 157.152C88.0733 156.363 87.728 155.968 87.728 155.968L68.192 131.844L73.076 152.712C73.076 152.712 73.1747 153.156 73.372 154.044C73.5693 154.833 73.4707 155.771 73.076 156.856C72.6813 157.941 71.6947 158.928 70.116 159.816C68.5373 160.605 66.0213 161 62.568 161C59.1147 161 56.4013 160.605 54.428 159.816C52.5533 159.027 51.2213 158.089 50.432 157.004C49.6427 155.919 49.1493 154.981 48.952 154.192C48.8533 153.403 48.804 153.008 48.804 153.008ZM62.864 88.332L66.416 118.08C66.416 118.08 66.9587 118.129 68.044 118.228C69.228 118.327 70.6093 118.228 72.188 117.932C73.8653 117.636 75.444 116.945 76.924 115.86C78.5027 114.676 79.7853 112.9 80.772 110.532C81.7587 108.065 82.104 104.711 81.808 100.468C81.512 96.4227 80.7227 93.4627 79.44 91.588C78.1573 89.6147 76.5787 88.3813 74.704 87.888C72.8293 87.296 70.856 87.148 68.784 87.444C66.712 87.6413 64.7387 87.9373 62.864 88.332Z" fill="#505255"/>
</g>
<defs>
<clipPath id="clip0_52_469">
<rect width="148" height="240" fill="white"/>
</clipPath>
</defs>
</svg>
