<svg width="148" height="240" viewBox="0 0 148 240" fill="none" xmlns="http://www.w3.org/2000/svg">
<rect width="148" height="240" fill="white"/>
<rect x="6" y="6" width="136" height="228" fill="#505255"/>
<ellipse cx="73.5" cy="120" rx="54.5" ry="67" fill="white"/>
<path d="M44.168 79.248C45.96 79.248 47.6667 79.3333 49.288 79.504C50.9947 79.5893 52.4027 80.1013 53.512 81.04C54.6213 81.9787 55.2613 83.6853 55.432 86.16C55.5173 87.3547 55.688 89.36 55.944 92.176C56.2853 94.9067 56.6267 98.1067 56.968 101.776C57.3947 105.445 57.8213 109.243 58.248 113.168C58.76 117.008 59.2293 120.72 59.656 124.304C60.0827 127.803 60.4667 130.832 60.808 133.392C61.1493 135.952 61.4053 137.659 61.576 138.512C61.832 139.792 62.088 141.328 62.344 143.12C62.6 144.827 62.6 146.533 62.344 148.24C62.088 149.861 61.2773 151.227 59.912 152.336C58.632 153.445 56.4987 154 53.512 154C50.6107 154 48.3493 153.701 46.728 153.104C45.1067 152.421 43.9547 151.611 43.272 150.672C42.5893 149.733 42.1627 148.88 41.992 148.112C41.9067 147.259 41.8213 146.661 41.736 146.32C41.6507 146.064 41.4373 144.869 41.096 142.736C40.7547 140.603 40.328 138.043 39.816 135.056C39.3893 132.069 38.92 129.125 38.408 126.224C37.9813 123.237 37.5973 120.763 37.256 118.8C36.9147 116.837 36.744 115.856 36.744 115.856C36.744 115.856 36.1893 115.899 35.08 115.984C34.056 115.984 32.776 115.941 31.24 115.856C29.7893 115.685 28.3813 115.344 27.016 114.832C25.736 114.235 24.7973 113.339 24.2 112.144C23.688 110.864 23.816 109.157 24.584 107.024C25.608 104.293 26.6747 101.349 27.784 98.192C28.8933 95.0347 30.1733 92.0053 31.624 89.104C33.16 86.2027 34.9093 83.856 36.872 82.064C38.92 80.1867 41.352 79.248 44.168 79.248ZM94.556 80.528C94.556 80.528 95.452 80.5707 97.244 80.656C99.036 80.7413 101.255 81.2107 103.9 82.064C106.545 82.832 109.233 84.3253 111.964 86.544C114.695 88.6773 116.999 91.792 118.876 95.888C120.839 99.984 121.948 105.403 122.204 112.144C122.545 122.811 121.82 131.216 120.028 137.36C118.236 143.419 115.377 147.728 111.452 150.288C107.527 152.763 102.535 154 96.476 154C87.4307 154 80.3907 150.885 75.356 144.656C70.3213 138.341 67.804 128.357 67.804 114.704C67.804 107.877 68.5293 102.245 69.98 97.808C71.4307 93.3707 73.3933 89.9147 75.868 87.44C78.3427 84.9653 81.1587 83.216 84.316 82.192C87.5587 81.0827 90.972 80.528 94.556 80.528ZM95.452 90.768C94.8547 90.9387 94.172 91.152 93.404 91.408C92.7213 91.664 92.0387 92.4747 91.356 93.84C90.7587 95.2053 90.204 97.5093 89.692 100.752C89.2653 103.995 88.9667 108.645 88.796 114.704C88.6253 121.616 88.7533 127.077 89.18 131.088C89.6067 135.013 90.2467 137.829 91.1 139.536C92.0387 141.157 93.148 142.011 94.428 142.096C95.452 142.181 96.3907 141.925 97.244 141.328C98.1827 140.731 98.9933 139.493 99.676 137.616C100.444 135.739 100.999 132.965 101.34 129.296C101.767 125.627 101.98 120.763 101.98 114.704C101.98 108.645 101.639 103.995 100.956 100.752C100.359 97.424 99.5907 95.0773 98.652 93.712C97.7987 92.2613 97.0307 91.408 96.348 91.152C95.7507 90.896 95.452 90.768 95.452 90.768Z" fill="#505255"/>
<path d="M21 163.6H124.38V170H21V163.6Z" fill="#505255"/>
</svg>
