<svg width="148" height="240" viewBox="0 0 148 240" fill="none" xmlns="http://www.w3.org/2000/svg">
<rect width="148" height="240" fill="white"/>
<rect x="6" y="6" width="136" height="228" fill="#505255"/>
<ellipse cx="73.5" cy="120" rx="54.5" ry="67" fill="white"/>
<path d="M46.808 75.04C46.808 75.04 46.9067 74.448 47.104 73.264C47.4 72.08 48.1893 70.896 49.472 69.712C50.8533 68.4293 53.0733 67.7387 56.132 67.64C58.0067 67.5413 60.3747 67.492 63.236 67.492C66.0973 67.3933 69.1067 67.2947 72.264 67.196C75.52 67.0973 78.5293 66.9987 81.292 66.9C84.0547 66.8013 86.324 66.752 88.1 66.752C89.876 66.6533 90.764 66.604 90.764 66.604C90.764 66.604 91.356 66.604 92.54 66.604C93.8227 66.604 95.3027 66.8013 96.98 67.196C98.6573 67.492 100.137 68.084 101.42 68.972C102.703 69.86 103.393 71.192 103.492 72.968C103.591 74.744 103.097 76.1747 102.012 77.26C100.927 78.2467 99.644 79.036 98.164 79.628C96.7827 80.1213 95.5493 80.4667 94.464 80.664C93.3787 80.7627 92.836 80.812 92.836 80.812L67.972 81.404L66.936 93.836C66.936 93.836 67.7253 93.7373 69.304 93.54C70.9813 93.244 73.1027 93.096 75.668 93.096C78.332 93.096 81.0453 93.392 83.808 93.984C86.6693 94.4773 89.3333 95.464 91.8 96.944C96.4373 99.8053 99.5947 103.16 101.272 107.008C102.949 110.757 103.837 115.74 103.936 121.956C103.936 125.015 103.541 128.32 102.752 131.872C101.963 135.325 100.433 138.581 98.164 141.64C95.9933 144.699 92.836 147.215 88.692 149.188C84.6467 151.063 79.2693 152 72.56 152C65.9493 152 60.4733 151.161 56.132 149.484C51.8893 147.807 48.8307 145.833 46.956 143.564C45.18 141.196 44.5387 139.025 45.032 137.052C45.624 134.98 47.3507 133.549 50.212 132.76C54.06 131.675 57.1187 131.428 59.388 132.02C61.6573 132.513 63.2853 133.204 64.272 134.092C65.2587 134.881 65.752 135.276 65.752 135.276C65.752 135.276 66.196 135.72 67.084 136.608C68.0707 137.496 69.9453 137.989 72.708 138.088C75.4707 138.187 77.3947 136.657 78.48 133.5C79.664 130.244 80.0093 126.051 79.516 120.92C79.1213 115.789 78.332 111.991 77.148 109.524C75.964 107.057 74.2373 105.676 71.968 105.38C70.488 105.183 69.2053 105.479 68.12 106.268C67.1333 106.959 66.344 107.748 65.752 108.636C65.16 109.425 64.8147 109.869 64.716 109.968C64.6173 109.968 64.124 110.313 63.236 111.004C62.4467 111.695 61.164 112.287 59.388 112.78C57.612 113.175 55.2933 113.027 52.432 112.336C48.1893 111.251 45.5253 109.968 44.44 108.488C43.4533 106.909 43.1573 104.591 43.552 101.532C43.9467 98.3747 44.3907 94.4773 44.884 89.84C45.476 85.104 46.1173 80.1707 46.808 75.04Z" fill="#505255"/>
<path d="M40 163.1H107.34V170.5H40V163.1Z" fill="#505255"/>
</svg>
