<svg width="240" height="240" viewBox="0 0 240 240" fill="none" xmlns="http://www.w3.org/2000/svg">
<rect x="46" width="148" height="240" fill="white"/>
<rect x="52" y="6" width="136" height="228" fill="#505255"/>
<ellipse cx="119.5" cy="120" rx="54.5" ry="67" fill="white"/>
<path d="M101.616 142.564C101.32 135.953 101.764 129.54 102.948 123.324C104.231 117.009 105.859 111.188 107.832 105.86C109.805 100.433 111.828 95.6973 113.9 91.652C115.972 87.6067 117.699 84.4493 119.08 82.18C120.56 79.9107 121.3 78.776 121.3 78.776C121.3 78.776 120.412 78.8747 118.636 79.072C116.959 79.1707 114.936 79.368 112.568 79.664C110.299 79.8613 108.128 80.0587 106.056 80.256C103.984 80.4533 102.603 80.552 101.912 80.552C101.024 80.552 99.6427 80.6013 97.768 80.7C95.8933 80.7987 94.1667 80.5027 92.588 79.812C91.108 79.0227 90.3187 77.4933 90.22 75.224C90.1213 73.5467 90.664 72.2147 91.848 71.228C93.1307 70.1427 94.5613 69.3533 96.14 68.86C97.7187 68.3667 99.1 68.0707 100.284 67.972C101.567 67.7747 102.208 67.676 102.208 67.676L135.804 65.9C135.804 65.9 136.445 65.9493 137.728 66.048C139.011 66.048 140.491 66.2947 142.168 66.788C143.944 67.1827 145.424 67.972 146.608 69.156C147.891 70.2413 148.483 71.82 148.384 73.892C148.384 75.964 147.249 78.6773 144.98 82.032C141.329 87.4587 138.32 92.984 135.952 98.608C133.683 104.232 131.857 109.659 130.476 114.888C129.193 120.019 128.207 124.656 127.516 128.8C126.924 132.845 126.529 136.101 126.332 138.568C126.135 140.936 126.036 142.12 126.036 142.12C126.036 142.12 126.085 142.564 126.184 143.452C126.283 144.34 126.036 145.376 125.444 146.56C124.951 147.744 123.865 148.78 122.188 149.668C120.511 150.556 117.896 151 114.344 151C110.792 151 108.128 150.605 106.352 149.816C104.576 148.928 103.343 147.941 102.652 146.856C101.961 145.672 101.616 144.685 101.616 143.896C101.616 143.008 101.616 142.564 101.616 142.564Z" fill="#505255"/>
<path d="M88 162.1H153.12V169.5H88V162.1Z" fill="#505255"/>
</svg>
