<svg width="240" height="240" viewBox="0 0 240 240" fill="none" xmlns="http://www.w3.org/2000/svg">
<rect x="46" width="148" height="240" fill="white"/>
<rect x="52" y="6" width="136" height="228" fill="#505255"/>
<ellipse cx="119.5" cy="120" rx="54.5" ry="67" fill="white"/>
<path d="M99.432 102.64C99.432 102.64 98.7907 102.097 97.508 101.012C96.2253 99.9267 94.9427 98.1013 93.66 95.536C92.3773 92.9707 91.736 89.5667 91.736 85.324C91.8347 80.9827 93.1667 77.2333 95.732 74.076C98.396 70.82 101.899 68.304 106.24 66.528C110.581 64.6533 115.317 63.716 120.448 63.716C125.677 63.6173 130.413 64.456 134.656 66.232C138.997 68.008 142.451 70.4747 145.016 73.632C147.68 76.7893 149.012 80.4893 149.012 84.732C149.012 88.876 148.371 92.28 147.088 94.944C145.904 97.608 144.671 99.5813 143.388 100.864C142.204 102.147 141.612 102.788 141.612 102.788C141.612 102.788 142.105 103.183 143.092 103.972C144.079 104.761 145.164 105.945 146.348 107.524C147.631 109.103 148.716 111.125 149.604 113.592C150.492 115.96 150.887 118.821 150.788 122.176C150.689 126.616 149.703 130.957 147.828 135.2C145.953 139.443 142.845 142.995 138.504 145.856C134.261 148.619 128.341 150 120.744 150C113.147 150 107.029 148.569 102.392 145.708C97.7547 142.847 94.4 139.344 92.328 135.2C90.3547 131.056 89.516 127.06 89.812 123.212C90.3053 117.391 91.3413 113 92.92 110.04C94.5973 106.981 96.768 104.515 99.432 102.64ZM120.448 72.3C118.771 72.3987 117.192 73.0893 115.712 74.372C114.331 75.6547 113.344 78.6147 112.752 83.252C112.357 86.3107 112.604 88.728 113.492 90.504C114.38 92.1813 115.515 93.4147 116.896 94.204C118.376 94.8947 119.757 95.24 121.04 95.24C123.013 95.24 124.641 94.2533 125.924 92.28C127.207 90.208 127.749 86.8533 127.552 82.216C127.453 78.664 126.812 76.2467 125.628 74.964C124.444 73.5827 123.26 72.7933 122.076 72.596C120.991 72.3987 120.448 72.3 120.448 72.3ZM120.3 110.484C119.215 110.484 117.981 110.731 116.6 111.224C115.317 111.717 114.084 112.951 112.9 114.924C111.815 116.799 111.025 119.907 110.532 124.248C110.137 128.589 110.581 131.845 111.864 134.016C113.147 136.088 114.676 137.469 116.452 138.16C118.327 138.752 119.856 139.097 121.04 139.196C122.224 139.196 123.507 138.801 124.888 138.012C126.368 137.223 127.651 135.693 128.736 133.424C129.821 131.155 130.315 127.8 130.216 123.36C130.216 120.005 129.673 117.44 128.588 115.664C127.601 113.888 126.467 112.655 125.184 111.964C123.901 111.175 122.767 110.731 121.78 110.632C120.793 110.533 120.3 110.484 120.3 110.484Z" fill="#505255"/>
<path d="M87 161.1H153.748V168.5H87V161.1Z" fill="#505255"/>
</svg>
