<svg width="148" height="240" viewBox="0 0 148 240" fill="none" xmlns="http://www.w3.org/2000/svg">
<rect width="148" height="240" fill="white"/>
<rect x="6" y="6" width="136" height="228" fill="#505255"/>
<ellipse cx="73.5" cy="120" rx="54.5" ry="67" fill="white"/>
<path d="M61.46 70.672C62.1507 70.1787 63.088 69.3893 64.272 68.304C65.456 67.2187 66.8867 66.232 68.564 65.344C70.2413 64.3573 72.2147 63.7653 74.484 63.568C76.7533 63.3707 79.3187 63.9133 82.18 65.196C85.5347 66.676 87.656 68.0573 88.544 69.34C89.432 70.524 89.5307 71.6587 88.84 72.744C88.248 73.7307 87.3107 74.668 86.028 75.556C84.844 76.444 83.7587 77.332 82.772 78.22C80.8973 79.8973 79.2693 81.772 77.888 83.844C76.6053 85.8173 75.6187 87.544 74.928 89.024C74.2373 90.4053 73.892 91.096 73.892 91.096C79.9107 89.616 85.2387 89.7147 89.876 91.392C94.5133 92.9707 98.164 95.8813 100.828 100.124C103.591 104.268 105.021 109.399 105.12 115.516C105.219 121.633 104.183 127.307 102.012 132.536C99.94 137.765 96.5853 142.008 91.948 145.264C87.4093 148.421 81.588 150 74.484 150C67.2813 150 61.3613 148.372 56.724 145.116C52.0867 141.761 48.6333 137.223 46.364 131.5C44.0947 125.777 42.96 119.315 42.96 112.112C42.96 107.771 43.552 103.577 44.736 99.532C46.0187 95.388 47.548 91.5893 49.324 88.136C51.1987 84.6827 53.0733 81.6733 54.948 79.108C56.8227 76.444 58.352 74.372 59.536 72.892C60.8187 71.412 61.46 70.672 61.46 70.672ZM73.596 100.864C70.5373 101.16 68.3667 102.344 67.084 104.416C65.8013 106.389 65.0613 108.609 64.864 111.076C64.7653 113.444 64.7653 115.417 64.864 116.996C65.16 121.337 66.1467 125.185 67.824 128.54C69.5013 131.895 72.0667 133.424 75.52 133.128C78.9733 132.832 81.3413 130.957 82.624 127.504C83.9067 124.051 84.3507 118.92 83.956 112.112C83.7587 108.757 83.1173 106.291 82.032 104.712C80.9467 103.035 79.7627 101.949 78.48 101.456C77.1973 100.963 76.0627 100.765 75.076 100.864C74.0893 100.864 73.596 100.864 73.596 100.864Z" fill="#505255"/>
<path d="M40 161.1H108.376V168.5H40V161.1Z" fill="#505255"/>
</svg>
