<svg width="148" height="240" viewBox="0 0 148 240" fill="none" xmlns="http://www.w3.org/2000/svg">
<rect width="148" height="236.066" fill="white"/>
<rect width="148" height="236.066" fill="white"/>
<rect x="6" y="5.90161" width="136" height="224.262" fill="#505255"/>
<ellipse cx="73.5" cy="118.033" rx="54.5" ry="65.9016" fill="white"/>
<path d="M52.028 167.626C51.6333 161.805 51.1893 155.737 50.696 149.422C50.2027 143.009 49.7093 136.891 49.216 131.07C48.8213 125.249 48.476 120.315 48.18 116.27C47.884 112.126 47.6373 109.462 47.44 108.278C47.144 106.009 47.2427 104.479 47.736 103.69C48.328 102.802 48.624 102.358 48.624 102.358C48.624 102.358 48.2787 102.013 47.588 101.322C46.8973 100.533 46.552 99.6938 46.552 98.8058C46.552 97.2272 47.4893 95.9445 49.364 94.9578C51.3373 93.9712 53.5573 93.2312 56.024 92.7378C58.4907 92.2445 60.6613 91.8992 62.536 91.7018C64.5093 91.5045 65.496 91.4058 65.496 91.4058C65.496 91.4058 66.4827 91.3565 68.456 91.2578C70.4293 91.1592 72.9453 91.2578 76.004 91.5538C79.1613 91.8498 82.516 92.6392 86.068 93.9218C89.7187 95.1058 93.172 97.0298 96.428 99.6938C99.7827 102.358 102.595 106.009 104.864 110.646C107.133 115.185 108.515 121.006 109.008 128.11C109.6 136.497 109.205 143.551 107.824 149.274C106.541 154.997 104.568 159.683 101.904 163.334C99.3387 166.886 96.3787 169.649 93.024 171.622C89.6693 173.595 86.1667 174.977 82.516 175.766C78.964 176.457 75.56 176.901 72.304 177.098C69.1467 177.197 66.384 177.246 64.016 177.246C60.5627 177.246 57.948 176.753 56.172 175.766C54.4947 174.779 53.36 173.694 52.768 172.51C52.2747 171.227 52.028 170.093 52.028 169.106C52.028 168.119 52.028 167.626 52.028 167.626ZM67.864 104.726L74.376 164.666C74.376 164.666 74.82 164.617 75.708 164.518C76.596 164.419 77.6813 163.975 78.964 163.186C80.3453 162.397 81.628 160.966 82.812 158.894C84.0947 156.822 85.0813 153.911 85.772 150.162C86.4627 146.314 86.6107 141.331 86.216 135.214C85.8213 127.518 84.9827 121.549 83.7 117.306C82.516 112.965 81.036 109.857 79.26 107.982C77.5827 106.107 75.7573 105.022 73.784 104.726C71.8107 104.43 69.8373 104.43 67.864 104.726Z" fill="#505255"/>
<path d="M57.84 76.6308L56.976 72.4548C56.976 72.4548 56.964 72.3708 56.94 72.2028C56.916 72.0108 56.952 71.7948 57.048 71.5548C57.168 71.2908 57.408 71.0508 57.768 70.8348C58.128 70.6188 58.704 70.4748 59.496 70.4028C60.288 70.3308 60.912 70.3788 61.368 70.5468C61.848 70.7148 62.208 70.9188 62.448 71.1588C62.688 71.3988 62.844 71.6268 62.916 71.8428C62.988 72.0348 63.024 72.1308 63.024 72.1308C63.024 72.1308 63.072 72.3588 63.168 72.8148C63.264 73.2468 63.36 73.7508 63.456 74.3268C63.576 74.8788 63.684 75.3708 63.78 75.8028C63.876 76.2348 63.924 76.4508 63.924 76.4508L67.92 76.6308C67.92 76.6308 68.064 76.6428 68.352 76.6668C68.64 76.6668 68.964 76.7148 69.324 76.8108C69.684 76.8828 70.008 77.0148 70.296 77.2068C70.584 77.3988 70.728 77.6868 70.728 78.0708C70.728 78.4548 70.608 78.7428 70.368 78.9348C70.128 79.1268 69.852 79.2588 69.54 79.3308C69.252 79.4028 68.988 79.4508 68.748 79.4748C68.508 79.4748 68.388 79.4748 68.388 79.4748H64.428C64.428 79.4748 64.428 79.6428 64.428 79.9788C64.452 80.3148 64.476 80.7348 64.5 81.2388C64.524 81.7188 64.548 82.2108 64.572 82.7148C64.596 83.1948 64.62 83.6028 64.644 83.9388C64.668 84.2748 64.68 84.4428 64.68 84.4428C64.68 84.4428 64.668 84.5388 64.644 84.7308C64.62 84.9228 64.536 85.1388 64.392 85.3788C64.248 85.6188 63.996 85.8348 63.636 86.0268C63.3 86.2188 62.796 86.3148 62.124 86.3148C60.804 86.3148 59.928 86.1348 59.496 85.7748C59.064 85.4148 58.824 85.0668 58.776 84.7308C58.752 84.5628 58.716 84.2148 58.668 83.6868C58.62 83.1588 58.572 82.5828 58.524 81.9588C58.476 81.3348 58.428 80.8068 58.38 80.3748C58.356 79.9188 58.344 79.6908 58.344 79.6908L53.556 79.8348C53.556 79.8348 53.376 79.8228 53.016 79.7988C52.68 79.7508 52.332 79.6428 51.972 79.4748C51.612 79.2828 51.432 78.9828 51.432 78.5748C51.432 78.1428 51.588 77.8308 51.9 77.6388C52.212 77.4228 52.524 77.2788 52.836 77.2068C53.148 77.1348 53.316 77.0988 53.34 77.0988C53.364 77.0988 53.628 77.0748 54.132 77.0268C54.636 76.9788 55.236 76.9188 55.932 76.8468C56.628 76.7508 57.264 76.6788 57.84 76.6308ZM76.3252 68.4708C76.2292 68.4708 75.9732 68.4708 75.5572 68.4708C75.1412 68.4708 74.6772 68.3748 74.1652 68.1828C73.6532 67.9908 73.2212 67.6388 72.8692 67.1268C72.5172 66.5828 72.3572 65.7828 72.3892 64.7268C72.4532 62.6148 73.2852 60.9828 74.8852 59.8308C76.4852 58.6788 78.5652 58.1188 81.1252 58.1508C82.4052 58.1508 83.6692 58.2788 84.9172 58.5348C86.1972 58.7588 87.3492 59.1428 88.3732 59.6868C89.3972 60.2308 90.2132 60.9828 90.8212 61.9428C91.4612 62.8708 91.7812 64.0708 91.7812 65.5428C91.7812 66.7268 91.4772 68.0068 90.8692 69.3828C90.2612 70.7268 89.5092 72.0708 88.6132 73.4148C87.7172 74.7588 86.8052 75.9908 85.8772 77.1108C84.9812 78.1988 84.2132 79.0788 83.5732 79.7508C82.9652 80.4228 82.6452 80.7588 82.6132 80.7588C82.6452 80.7588 82.9332 80.7268 83.4772 80.6628C84.0212 80.5668 84.6452 80.4708 85.3492 80.3748C86.0532 80.2788 86.6772 80.1988 87.2212 80.1348C87.7652 80.0388 88.0372 79.9908 88.0372 79.9908C88.0372 79.9908 88.2132 79.9908 88.5652 79.9908C88.9492 79.9908 89.3812 80.0388 89.8612 80.1348C90.3732 80.1988 90.8372 80.3588 91.2532 80.6148C91.6692 80.8708 91.9092 81.2708 91.9732 81.8148C92.1332 82.9028 91.9732 83.6228 91.4932 83.9748C91.0452 84.2948 90.4532 84.5188 89.7172 84.6468C89.4292 84.6788 88.8052 84.7588 87.8452 84.8868C86.9172 85.0148 85.8292 85.1588 84.5812 85.3188C83.3652 85.4788 82.1652 85.6388 80.9812 85.7988C79.8292 85.9268 78.8692 86.0388 78.1012 86.1348C77.3332 86.2308 76.9492 86.2788 76.9492 86.2788C76.9492 86.2788 76.6932 86.2788 76.1812 86.2788C75.7012 86.2468 75.1732 86.1508 74.5972 85.9908C74.0532 85.8308 73.6852 85.5428 73.4932 85.1268C73.2052 84.4868 73.0932 83.9748 73.1572 83.5908C73.2532 83.1748 73.7012 82.5188 74.5012 81.6228C74.8212 81.2708 75.3332 80.6788 76.0372 79.8468C76.7412 78.9828 77.5092 77.9908 78.3412 76.8708C79.2052 75.7188 80.0372 74.5188 80.8372 73.2708C81.6372 71.9908 82.2932 70.7588 82.8052 69.5748C83.3172 68.3588 83.5892 67.2708 83.6212 66.3108C83.6532 64.7108 83.5572 63.6068 83.3332 62.9988C83.1092 62.3908 82.8532 62.0548 82.5652 61.9908C82.3092 61.8948 82.1332 61.8468 82.0372 61.8468C81.9412 61.8468 81.7172 61.9108 81.3652 62.0388C81.0132 62.1348 80.6612 62.3428 80.3092 62.6628C79.9892 62.9508 79.8292 63.4148 79.8292 64.0548C79.8292 64.6628 79.8292 65.2868 79.8292 65.9268C79.8292 66.5348 79.5892 67.0628 79.1092 67.5108C78.6612 67.9588 77.7332 68.2788 76.3252 68.4708Z" fill="#505255"/>
</svg>
