<svg width="148" height="240" viewBox="0 0 148 240" fill="none" xmlns="http://www.w3.org/2000/svg">
<rect width="148" height="240" fill="white"/>
<rect x="6" y="6" width="136" height="228" fill="#505255"/>
<ellipse cx="73.5" cy="120" rx="54.5" ry="67" fill="white"/>
<path d="M53.432 102.64C53.432 102.64 52.7907 102.097 51.508 101.012C50.2253 99.9267 48.9427 98.1013 47.66 95.536C46.3773 92.9707 45.736 89.5667 45.736 85.324C45.8347 80.9827 47.1667 77.2333 49.732 74.076C52.396 70.82 55.8987 68.304 60.24 66.528C64.5813 64.6533 69.3173 63.716 74.448 63.716C79.6773 63.6173 84.4133 64.456 88.656 66.232C92.9973 68.008 96.4507 70.4747 99.016 73.632C101.68 76.7893 103.012 80.4893 103.012 84.732C103.012 88.876 102.371 92.28 101.088 94.944C99.904 97.608 98.6707 99.5813 97.388 100.864C96.204 102.147 95.612 102.788 95.612 102.788C95.612 102.788 96.1053 103.183 97.092 103.972C98.0787 104.761 99.164 105.945 100.348 107.524C101.631 109.103 102.716 111.125 103.604 113.592C104.492 115.96 104.887 118.821 104.788 122.176C104.689 126.616 103.703 130.957 101.828 135.2C99.9533 139.443 96.8453 142.995 92.504 145.856C88.2613 148.619 82.3413 150 74.744 150C67.1467 150 61.0293 148.569 56.392 145.708C51.7547 142.847 48.4 139.344 46.328 135.2C44.3547 131.056 43.516 127.06 43.812 123.212C44.3053 117.391 45.3413 113 46.92 110.04C48.5973 106.981 50.768 104.515 53.432 102.64ZM74.448 72.3C72.7707 72.3987 71.192 73.0893 69.712 74.372C68.3307 75.6547 67.344 78.6147 66.752 83.252C66.3573 86.3107 66.604 88.728 67.492 90.504C68.38 92.1813 69.5147 93.4147 70.896 94.204C72.376 94.8947 73.7573 95.24 75.04 95.24C77.0133 95.24 78.6413 94.2533 79.924 92.28C81.2067 90.208 81.7493 86.8533 81.552 82.216C81.4533 78.664 80.812 76.2467 79.628 74.964C78.444 73.5827 77.26 72.7933 76.076 72.596C74.9907 72.3987 74.448 72.3 74.448 72.3ZM74.3 110.484C73.2147 110.484 71.9813 110.731 70.6 111.224C69.3173 111.717 68.084 112.951 66.9 114.924C65.8147 116.799 65.0253 119.907 64.532 124.248C64.1373 128.589 64.5813 131.845 65.864 134.016C67.1467 136.088 68.676 137.469 70.452 138.16C72.3267 138.752 73.856 139.097 75.04 139.196C76.224 139.196 77.5067 138.801 78.888 138.012C80.368 137.223 81.6507 135.693 82.736 133.424C83.8213 131.155 84.3147 127.8 84.216 123.36C84.216 120.005 83.6733 117.44 82.588 115.664C81.6013 113.888 80.4667 112.655 79.184 111.964C77.9013 111.175 76.7667 110.731 75.78 110.632C74.7933 110.533 74.3 110.484 74.3 110.484Z" fill="#505255"/>
<path d="M41 161.1H107.748V168.5H41V161.1Z" fill="#505255"/>
</svg>
