<svg width="148" height="240" viewBox="0 0 148 240" fill="none" xmlns="http://www.w3.org/2000/svg">
<g clip-path="url(#clip0_72_561)">
<rect width="148" height="240" fill="white"/>
<rect width="148" height="240" fill="white"/>
<rect x="6" y="6" width="136" height="228" fill="#505255"/>
<ellipse cx="73.5" cy="120" rx="54.5" ry="67" fill="white"/>
<path d="M90.06 103.948C86.7053 103.948 84.14 103.553 82.364 102.764C80.588 101.876 79.3053 100.889 78.516 99.804C77.8253 98.7187 77.4307 97.732 77.332 96.844C77.2333 95.8573 77.184 95.2653 77.184 95.068C77.184 94.5747 76.9867 93.7853 76.592 92.7C76.296 91.516 75.3093 90.924 73.632 90.924C70.8693 90.924 68.4027 91.7627 66.232 93.44C64.16 95.1173 63.0253 97.584 62.828 100.84C62.6307 104.096 63.4693 106.908 65.344 109.276C67.2187 111.644 70.9187 112.877 76.444 112.976C79.2067 112.976 82.1173 113.371 85.176 114.16C88.2347 114.949 91.096 116.232 93.76 118.008C96.5227 119.685 98.6933 122.004 100.272 124.964C101.949 127.825 102.788 131.427 102.788 135.768C102.689 144.451 100.371 151.16 95.832 155.896C91.2933 160.632 83.7453 163 73.188 163C66.1827 163 60.5587 162.161 56.316 160.484C52.0733 158.708 48.9653 156.636 46.992 154.268C45.1173 151.9 44.1307 149.779 44.032 147.904C43.9333 146.029 44.032 144.204 44.328 142.428C44.7227 140.652 45.7587 139.123 47.436 137.84C49.212 136.557 52.024 135.768 55.872 135.472C59.8187 135.176 62.6307 135.521 64.308 136.508C65.9853 137.396 67.0213 138.432 67.416 139.616C67.9093 140.8 68.156 141.54 68.156 141.836C68.156 142.132 68.2547 142.872 68.452 144.056C68.748 145.141 69.2413 146.227 69.932 147.312C70.7213 148.299 71.8067 148.792 73.188 148.792C75.26 148.792 77.036 147.953 78.516 146.276C79.996 144.599 80.9333 141.885 81.328 138.136C82.0187 130.736 78.3187 127.036 70.228 127.036C68.2547 127.036 65.6893 126.74 62.532 126.148C59.4733 125.457 56.4147 124.273 53.356 122.596C50.2973 120.82 47.732 118.353 45.66 115.196C43.588 112.039 42.6013 107.895 42.7 102.764C42.7987 97.6333 43.736 93.44 45.512 90.184C47.288 86.8293 49.6067 84.264 52.468 82.488C55.428 80.6133 58.6347 79.2813 62.088 78.492C65.64 77.7027 69.1427 77.2587 72.596 77.16C77.2333 77.0613 81.6733 77.604 85.916 78.788C90.2573 79.972 93.8587 81.7973 96.72 84.264C99.68 86.632 101.357 89.74 101.752 93.588C102.048 96.4493 101.604 98.62 100.42 100.1C99.3347 101.481 97.9533 102.468 96.276 103.06C94.6973 103.553 93.2667 103.849 91.984 103.948C90.7013 103.948 90.06 103.948 90.06 103.948Z" fill="#505255"/>
</g>
<defs>
<clipPath id="clip0_72_561">
<rect width="148" height="240" fill="white"/>
</clipPath>
</defs>
</svg>
