<svg width="240" height="240" viewBox="0 0 240 240" fill="none" xmlns="http://www.w3.org/2000/svg">
<rect x="46" width="148" height="240" fill="white"/>
<rect x="46" width="148" height="240" fill="white"/>
<rect x="52" y="6" width="136" height="228" fill="#3C3F42"/>
<ellipse cx="119.5" cy="120" rx="54.5" ry="67" fill="white"/>
<path d="M85.544 87.392C85.544 87.392 86.1413 87.392 87.336 87.392C88.5307 87.3067 89.9387 87.52 91.56 88.032C93.1813 88.4587 94.632 89.3547 95.912 90.72C97.2773 92 98.088 94.0053 98.344 96.736C98.5147 98.8693 98.856 101.643 99.368 105.056C99.88 108.384 100.435 111.883 101.032 115.552C101.629 119.221 102.184 122.677 102.696 125.92C103.293 129.077 103.763 131.68 104.104 133.728C104.531 135.776 104.744 136.8 104.744 136.8L110.248 116.32C110.248 116.32 110.461 115.723 110.888 114.528C111.315 113.248 112.083 112.011 113.192 110.816C114.387 109.621 116.136 109.024 118.44 109.024C120.744 109.024 122.493 109.493 123.688 110.432C124.883 111.285 125.736 112.352 126.248 113.632C126.845 114.912 127.315 116.149 127.656 117.344C127.912 118.197 128.296 119.648 128.808 121.696C129.405 123.659 129.96 125.749 130.472 127.968C131.069 130.187 131.581 132.064 132.008 133.6C132.435 135.136 132.648 135.904 132.648 135.904L133.8 125.28L139.176 87.648C139.176 87.648 139.432 87.0933 139.944 85.984C140.541 84.7893 141.651 83.6373 143.272 82.528C144.979 81.4187 147.496 80.992 150.824 81.248C155.859 81.5893 158.931 82.6133 160.04 84.32C161.235 86.0267 161.405 88.1173 160.552 90.592C160.125 91.7867 159.485 94.3893 158.632 98.4C157.779 102.325 156.797 107.061 155.688 112.608C154.579 118.155 153.512 124 152.488 130.144C151.464 136.203 150.568 141.963 149.8 147.424C149.459 150.24 148.691 152.416 147.496 153.952C146.387 155.403 145.192 156.427 143.912 157.024C142.632 157.621 141.523 157.963 140.584 158.048C139.645 158.133 139.176 158.176 139.176 158.176C139.176 158.176 138.621 158.176 137.512 158.176C136.403 158.261 135.037 158.091 133.416 157.664C131.88 157.237 130.344 156.341 128.808 154.976C127.357 153.611 126.205 151.477 125.352 148.576C123.731 142.773 122.323 137.909 121.128 133.984C119.933 130.059 119.336 128.096 119.336 128.096L112.168 149.856C112.168 149.856 111.912 150.368 111.4 151.392C110.888 152.416 109.864 153.44 108.328 154.464C106.877 155.488 104.701 156 101.8 156C97.448 156 94.4187 155.317 92.712 153.952C91.0907 152.501 89.8107 150.197 88.872 147.04C88.616 145.931 88.104 143.968 87.336 141.152C86.568 138.251 85.7147 134.88 84.776 131.04C83.8373 127.2 82.856 123.275 81.832 119.264C80.808 115.168 79.8693 111.413 79.016 108C78.1627 104.501 77.4373 101.685 76.84 99.552C76.328 97.3333 76.072 96.224 76.072 96.224C76.072 96.224 75.9867 95.84 75.816 95.072C75.6453 94.304 75.7307 93.408 76.072 92.384C76.4133 91.2747 77.2667 90.2507 78.632 89.312C80.0827 88.3733 82.3867 87.7333 85.544 87.392Z" fill="#3C3F42"/>
<rect x="99" y="168" width="24" height="40" fill="white"/>
<rect x="99" y="168" width="24" height="40" fill="white"/>
<rect x="100" y="169" width="22" height="38" fill="#119F63"/>
<rect x="87" y="179" width="24" height="40" fill="white"/>
<rect x="87" y="179" width="24" height="40" fill="white"/>
<rect x="88" y="180" width="22" height="38" fill="#E7CB36"/>
<rect x="128" y="167" width="24" height="40" fill="white"/>
<rect x="128" y="167" width="24" height="40" fill="white"/>
<rect x="129" y="168" width="22" height="38" fill="#E73636"/>
<rect x="116" y="180" width="24" height="40" fill="white"/>
<rect x="116" y="180" width="24" height="40" fill="white"/>
<rect x="117" y="181" width="22" height="38" fill="#367DE7"/>
</svg>
