<svg width="240" height="240" viewBox="0 0 240 240" fill="none" xmlns="http://www.w3.org/2000/svg">
<rect x="46" width="148" height="240" fill="white"/>
<rect x="52" y="6" width="136" height="228" fill="#505255"/>
<ellipse cx="119.5" cy="120" rx="54.5" ry="67" fill="white"/>
<path d="M120.788 71.568C122.86 71.568 124.833 71.6667 126.708 71.864C128.681 71.9627 130.309 72.5547 131.592 73.64C132.875 74.7253 133.615 76.6987 133.812 79.56C133.911 80.9413 134.108 83.26 134.404 86.516C134.799 89.6733 135.193 93.3733 135.588 97.616C136.081 101.859 136.575 106.249 137.068 110.788C137.66 115.228 138.203 119.52 138.696 123.664C139.189 127.709 139.633 131.212 140.028 134.172C140.423 137.132 140.719 139.105 140.916 140.092C141.212 141.572 141.508 143.348 141.804 145.42C142.1 147.393 142.1 149.367 141.804 151.34C141.508 153.215 140.571 154.793 138.992 156.076C137.512 157.359 135.045 158 131.592 158C128.237 158 125.623 157.655 123.748 156.964C121.873 156.175 120.541 155.237 119.752 154.152C118.963 153.067 118.469 152.08 118.272 151.192C118.173 150.205 118.075 149.515 117.976 149.12C117.877 148.824 117.631 147.443 117.236 144.976C116.841 142.509 116.348 139.549 115.756 136.096C115.263 132.643 114.72 129.239 114.128 125.884C113.635 122.431 113.191 119.569 112.796 117.3C112.401 115.031 112.204 113.896 112.204 113.896C112.204 113.896 111.563 113.945 110.28 114.044C109.096 114.044 107.616 113.995 105.84 113.896C104.163 113.699 102.535 113.304 100.956 112.712C99.476 112.021 98.3907 110.985 97.7 109.604C97.108 108.124 97.256 106.151 98.144 103.684C99.328 100.527 100.561 97.1227 101.844 93.472C103.127 89.8213 104.607 86.3187 106.284 82.964C108.06 79.6093 110.083 76.896 112.352 74.824C114.72 72.6533 117.532 71.568 120.788 71.568Z" fill="#505255"/>
<path d="M94 169.1H145.504V176.5H94V169.1Z" fill="#505255"/>
</svg>
