<svg width="240" height="240" viewBox="0 0 240 240" fill="none" xmlns="http://www.w3.org/2000/svg">
<rect x="46" width="148" height="240" fill="white"/>
<rect x="52" y="6" width="136" height="228" fill="#505255"/>
<ellipse cx="119.5" cy="120" rx="54.5" ry="67" fill="white"/>
<path d="M102.54 95.092C102.244 95.092 101.455 95.092 100.172 95.092C98.8893 95.092 97.4587 94.796 95.88 94.204C94.3013 93.612 92.9693 92.5267 91.884 90.948C90.7987 89.2707 90.3053 86.804 90.404 83.548C90.6013 77.036 93.1667 72.004 98.1 68.452C103.033 64.9 109.447 63.1733 117.34 63.272C121.287 63.272 125.184 63.6667 129.032 64.456C132.979 65.1467 136.531 66.3307 139.688 68.008C142.845 69.6853 145.361 72.004 147.236 74.964C149.209 77.8253 150.196 81.5253 150.196 86.064C150.196 89.7147 149.259 93.6613 147.384 97.904C145.509 102.048 143.191 106.192 140.428 110.336C137.665 114.48 134.853 118.279 131.992 121.732C129.229 125.087 126.861 127.8 124.888 129.872C123.013 131.944 122.027 132.98 121.928 132.98C122.027 132.98 122.915 132.881 124.592 132.684C126.269 132.388 128.193 132.092 130.364 131.796C132.535 131.5 134.459 131.253 136.136 131.056C137.813 130.76 138.652 130.612 138.652 130.612C138.652 130.612 139.195 130.612 140.28 130.612C141.464 130.612 142.796 130.76 144.276 131.056C145.855 131.253 147.285 131.747 148.568 132.536C149.851 133.325 150.591 134.559 150.788 136.236C151.281 139.591 150.788 141.811 149.308 142.896C147.927 143.883 146.101 144.573 143.832 144.968C142.944 145.067 141.02 145.313 138.06 145.708C135.199 146.103 131.844 146.547 127.996 147.04C124.247 147.533 120.547 148.027 116.896 148.52C113.344 148.915 110.384 149.26 108.016 149.556C105.648 149.852 104.464 150 104.464 150C104.464 150 103.675 150 102.096 150C100.616 149.901 98.988 149.605 97.212 149.112C95.5347 148.619 94.4 147.731 93.808 146.448C92.92 144.475 92.5747 142.896 92.772 141.712C93.068 140.429 94.4493 138.407 96.916 135.644C97.9027 134.559 99.4813 132.733 101.652 130.168C103.823 127.504 106.191 124.445 108.756 120.992C111.42 117.44 113.985 113.74 116.452 109.892C118.919 105.945 120.941 102.147 122.52 98.496C124.099 94.7467 124.937 91.392 125.036 88.432C125.135 83.4987 124.839 80.0947 124.148 78.22C123.457 76.3453 122.668 75.3093 121.78 75.112C120.991 74.816 120.448 74.668 120.152 74.668C119.856 74.668 119.165 74.8653 118.08 75.26C116.995 75.556 115.909 76.1973 114.824 77.184C113.837 78.072 113.344 79.5027 113.344 81.476C113.344 83.3507 113.344 85.2747 113.344 87.248C113.344 89.1227 112.604 90.7507 111.124 92.132C109.743 93.5133 106.881 94.5 102.54 95.092Z" fill="#505255"/>
<path d="M87 161.1H154.488V168.5H87V161.1Z" fill="#505255"/>
</svg>
