<svg width="240" height="240" viewBox="0 0 240 240" fill="none" xmlns="http://www.w3.org/2000/svg">
<g clip-path="url(#clip0_8_24)">
<g filter="url(#filter0_d_8_24)">
<ellipse cx="120" cy="84" rx="120" ry="60" fill="#C52323"/>
</g>
<path d="M63.7 52C63.7 50.6667 67.3 50 74.5 50C81.7667 50 85.4 50.6667 85.4 52V97.9C85.4 104.7 82.9667 110.267 78.1 114.6C73.2333 118.867 66.5 121 57.9 121C49.3667 121 42.4 118.8 37 114.4C31.6667 109.933 29 103.933 29 96.4V52.1C29 50.7667 32.6 50.1 39.8 50.1C47.0667 50.1 50.7 50.7667 50.7 52.1V97.2C50.7 98.5333 51.4 99.6 52.8 100.4C54.2667 101.2 55.8 101.6 57.4 101.6C59 101.6 60.4333 101.233 61.7 100.5C63.0333 99.7667 63.7 98.6667 63.7 97.2V52ZM148.593 117.8C148.593 119.2 145.46 119.9 139.193 119.9C132.926 119.9 129.526 119.4 128.993 118.4L112.293 87.2V118.3C112.293 119.5 109.193 120.1 102.993 120.1C96.8596 120.1 93.793 119.5 93.793 118.3V51.4C93.793 50.4 96.4263 49.9 101.693 49.9C103.76 49.9 106.16 50.1 108.893 50.5C111.693 50.8333 113.393 51.5 113.993 52.5L129.993 83.3V51.9C129.993 50.6333 133.093 50 139.293 50C145.493 50 148.593 50.6333 148.593 51.9V117.8ZM188.337 121C179.003 121 171.37 117.933 165.437 111.8C159.57 105.667 156.637 96.7333 156.637 85C156.637 73.2 159.603 64.2667 165.537 58.2C171.537 52.1333 179.237 49.1 188.637 49.1C198.103 49.1 205.737 52.1 211.537 58.1C217.337 64.0333 220.237 73.0667 220.237 85.2C220.237 97.2667 217.27 106.267 211.337 112.2C205.403 118.067 197.737 121 188.337 121ZM188.437 68.3C185.237 68.3 182.537 69.7667 180.337 72.7C178.203 75.6333 177.137 79.7667 177.137 85.1C177.137 90.3667 178.17 94.4333 180.237 97.3C182.303 100.1 185.003 101.5 188.337 101.5C191.737 101.5 194.47 100.067 196.537 97.2C198.67 94.3333 199.737 90.2333 199.737 84.9C199.737 79.5667 198.637 75.4667 196.437 72.6C194.303 69.7333 191.637 68.3 188.437 68.3Z" fill="black"/>
<path d="M67.323 55.68C67.323 54.36 70.887 53.7 78.015 53.7C85.209 53.7 88.806 54.36 88.806 55.68V101.121C88.806 107.853 86.397 113.364 81.579 117.654C76.761 121.878 70.095 123.99 61.581 123.99C53.133 123.99 46.236 121.812 40.89 117.456C35.61 113.034 32.97 107.094 32.97 99.636V55.779C32.97 54.459 36.534 53.799 43.662 53.799C50.856 53.799 54.453 54.459 54.453 55.779V100.428C54.453 101.748 55.146 102.804 56.532 103.596C57.984 104.388 59.502 104.784 61.086 104.784C62.67 104.784 64.089 104.421 65.343 103.695C66.663 102.969 67.323 101.88 67.323 100.428V55.68ZM151.367 120.822C151.367 122.208 148.265 122.901 142.061 122.901C135.857 122.901 132.491 122.406 131.963 121.416L115.43 90.528V121.317C115.43 122.505 112.361 123.099 106.223 123.099C100.151 123.099 97.115 122.505 97.115 121.317V55.086C97.115 54.096 99.722 53.601 104.936 53.601C106.982 53.601 109.358 53.799 112.064 54.195C114.836 54.525 116.519 55.185 117.113 56.175L132.953 86.667V55.581C132.953 54.327 136.022 53.7 142.16 53.7C148.298 53.7 151.367 54.327 151.367 55.581V120.822ZM190.713 123.99C181.473 123.99 173.916 120.954 168.042 114.882C162.234 108.81 159.33 99.966 159.33 88.35C159.33 76.668 162.267 67.824 168.141 61.818C174.081 55.812 181.704 52.809 191.01 52.809C200.382 52.809 207.939 55.779 213.681 61.719C219.423 67.593 222.294 76.536 222.294 88.548C222.294 100.494 219.357 109.404 213.483 115.278C207.609 121.086 200.019 123.99 190.713 123.99ZM190.812 71.817C187.644 71.817 184.971 73.269 182.793 76.173C180.681 79.077 179.625 83.169 179.625 88.449C179.625 93.663 180.648 97.689 182.694 100.527C184.74 103.299 187.413 104.685 190.713 104.685C194.079 104.685 196.785 103.266 198.831 100.428C200.943 97.59 201.999 93.531 201.999 88.251C201.999 82.971 200.91 78.912 198.732 76.074C196.62 73.236 193.98 71.817 190.812 71.817Z" fill="#968424"/>
</g>
<defs>
<filter id="filter0_d_8_24" x="-4" y="24" width="248" height="128" filterUnits="userSpaceOnUse" color-interpolation-filters="sRGB">
<feFlood flood-opacity="0" result="BackgroundImageFix"/>
<feColorMatrix in="SourceAlpha" type="matrix" values="0 0 0 0 0 0 0 0 0 0 0 0 0 0 0 0 0 0 127 0" result="hardAlpha"/>
<feOffset dy="4"/>
<feGaussianBlur stdDeviation="2"/>
<feComposite in2="hardAlpha" operator="out"/>
<feColorMatrix type="matrix" values="0 0 0 0 0 0 0 0 0 0 0 0 0 0 0 0 0 0 0.25 0"/>
<feBlend mode="normal" in2="BackgroundImageFix" result="effect1_dropShadow_8_24"/>
<feBlend mode="normal" in="SourceGraphic" in2="effect1_dropShadow_8_24" result="shape"/>
</filter>
<clipPath id="clip0_8_24">
<rect width="240" height="240" fill="white"/>
</clipPath>
</defs>
</svg>
