<svg width="44" height="44" viewBox="0 0 44 44" fill="none" xmlns="http://www.w3.org/2000/svg">
<g clip-path="url(#clip0_2_16)">
<circle cx="22" cy="22" r="22" fill="#CE1D1D"/>
<path d="M8.917 15.72C8.917 15.44 9.673 15.3 11.185 15.3C12.711 15.3 13.474 15.44 13.474 15.72V25.359C13.474 26.787 12.963 27.956 11.941 28.866C10.919 29.762 9.505 30.21 7.699 30.21C5.907 30.21 4.444 29.748 3.31 28.824C2.19 27.886 1.63 26.626 1.63 25.044V15.741C1.63 15.461 2.386 15.321 3.898 15.321C5.424 15.321 6.187 15.461 6.187 15.741V25.212C6.187 25.492 6.334 25.716 6.628 25.884C6.936 26.052 7.258 26.136 7.594 26.136C7.93 26.136 8.231 26.059 8.497 25.905C8.777 25.751 8.917 25.52 8.917 25.212V15.72ZM26.7445 29.538C26.7445 29.832 26.0865 29.979 24.7705 29.979C23.4545 29.979 22.7405 29.874 22.6285 29.664L19.1215 23.112V29.643C19.1215 29.895 18.4705 30.021 17.1685 30.021C15.8805 30.021 15.2365 29.895 15.2365 29.643V15.594C15.2365 15.384 15.7895 15.279 16.8955 15.279C17.3295 15.279 17.8335 15.321 18.4075 15.405C18.9955 15.475 19.3525 15.615 19.4785 15.825L22.8385 22.293V15.699C22.8385 15.433 23.4895 15.3 24.7915 15.3C26.0935 15.3 26.7445 15.433 26.7445 15.699V29.538ZM35.0907 30.21C33.1307 30.21 31.5277 29.566 30.2817 28.278C29.0497 26.99 28.4337 25.114 28.4337 22.65C28.4337 20.172 29.0567 18.296 30.3027 17.022C31.5627 15.748 33.1797 15.111 35.1537 15.111C37.1417 15.111 38.7447 15.741 39.9627 17.001C41.1807 18.247 41.7897 20.144 41.7897 22.692C41.7897 25.226 41.1667 27.116 39.9207 28.362C38.6747 29.594 37.0647 30.21 35.0907 30.21ZM35.1117 19.143C34.4397 19.143 33.8727 19.451 33.4107 20.067C32.9627 20.683 32.7387 21.551 32.7387 22.671C32.7387 23.777 32.9557 24.631 33.3897 25.233C33.8237 25.821 34.3907 26.115 35.0907 26.115C35.8047 26.115 36.3787 25.814 36.8127 25.212C37.2607 24.61 37.4847 23.749 37.4847 22.629C37.4847 21.509 37.2537 20.648 36.7917 20.046C36.3437 19.444 35.7837 19.143 35.1117 19.143Z" fill="black"/>
<path d="M9.917 15.72C9.917 15.44 10.673 15.3 12.185 15.3C13.711 15.3 14.474 15.44 14.474 15.72V25.359C14.474 26.787 13.963 27.956 12.941 28.866C11.919 29.762 10.505 30.21 8.699 30.21C6.907 30.21 5.444 29.748 4.31 28.824C3.19 27.886 2.63 26.626 2.63 25.044V15.741C2.63 15.461 3.386 15.321 4.898 15.321C6.424 15.321 7.187 15.461 7.187 15.741V25.212C7.187 25.492 7.334 25.716 7.628 25.884C7.936 26.052 8.258 26.136 8.594 26.136C8.93 26.136 9.231 26.059 9.497 25.905C9.777 25.751 9.917 25.52 9.917 25.212V15.72ZM27.7445 29.538C27.7445 29.832 27.0865 29.979 25.7705 29.979C24.4545 29.979 23.7405 29.874 23.6285 29.664L20.1215 23.112V29.643C20.1215 29.895 19.4705 30.021 18.1685 30.021C16.8805 30.021 16.2365 29.895 16.2365 29.643V15.594C16.2365 15.384 16.7895 15.279 17.8955 15.279C18.3295 15.279 18.8335 15.321 19.4075 15.405C19.9955 15.475 20.3525 15.615 20.4785 15.825L23.8385 22.293V15.699C23.8385 15.433 24.4895 15.3 25.7915 15.3C27.0935 15.3 27.7445 15.433 27.7445 15.699V29.538ZM36.0907 30.21C34.1307 30.21 32.5277 29.566 31.2817 28.278C30.0497 26.99 29.4337 25.114 29.4337 22.65C29.4337 20.172 30.0567 18.296 31.3027 17.022C32.5627 15.748 34.1797 15.111 36.1537 15.111C38.1417 15.111 39.7447 15.741 40.9627 17.001C42.1807 18.247 42.7897 20.144 42.7897 22.692C42.7897 25.226 42.1667 27.116 40.9207 28.362C39.6747 29.594 38.0647 30.21 36.0907 30.21ZM36.1117 19.143C35.4397 19.143 34.8727 19.451 34.4107 20.067C33.9627 20.683 33.7387 21.551 33.7387 22.671C33.7387 23.777 33.9557 24.631 34.3897 25.233C34.8237 25.821 35.3907 26.115 36.0907 26.115C36.8047 26.115 37.3787 25.814 37.8127 25.212C38.2607 24.61 38.4847 23.749 38.4847 22.629C38.4847 21.509 38.2537 20.648 37.7917 20.046C37.3437 19.444 36.7837 19.143 36.1117 19.143Z" fill="#968424"/>
</g>
<defs>
<clipPath id="clip0_2_16">
<rect width="44" height="44" fill="white"/>
</clipPath>
</defs>
</svg>
