<svg width="680" height="680" viewBox="0 0 680 680" fill="none" xmlns="http://www.w3.org/2000/svg">
<g clip-path="url(#clip0_9_28)">
<g filter="url(#filter0_d_9_28)">
<ellipse cx="339.5" cy="305.5" rx="278.5" ry="164.5" fill="#C52323"/>
</g>
<path d="M178.921 220.36C178.921 216.72 188.749 214.9 208.405 214.9C228.243 214.9 238.162 216.72 238.162 220.36V345.667C238.162 364.231 231.519 379.428 218.233 391.258C204.947 402.906 186.565 408.73 163.087 408.73C139.791 408.73 120.772 402.724 106.03 390.712C91.47 378.518 84.19 362.138 84.19 341.572V220.633C84.19 216.993 94.018 215.173 113.674 215.173C133.512 215.173 143.431 216.993 143.431 220.633V343.756C143.431 347.396 145.342 350.308 149.164 352.492C153.168 354.676 157.354 355.768 161.722 355.768C166.09 355.768 170.003 354.767 173.461 352.765C177.101 350.763 178.921 347.76 178.921 343.756V220.36ZM410.679 399.994C410.679 403.816 402.125 405.727 385.017 405.727C367.909 405.727 358.627 404.362 357.171 401.632L311.58 316.456V401.359C311.58 404.635 303.117 406.273 286.191 406.273C269.447 406.273 261.075 404.635 261.075 401.359V218.722C261.075 215.992 268.264 214.627 282.642 214.627C288.284 214.627 294.836 215.173 302.298 216.265C309.942 217.175 314.583 218.995 316.221 221.725L359.901 305.809V220.087C359.901 216.629 368.364 214.9 385.29 214.9C402.216 214.9 410.679 216.629 410.679 220.087V399.994ZM519.179 408.73C493.699 408.73 472.86 400.358 456.662 383.614C440.646 366.87 432.638 342.482 432.638 310.45C432.638 278.236 440.737 253.848 456.935 237.286C473.315 220.724 494.336 212.443 519.998 212.443C545.842 212.443 566.681 220.633 582.515 237.013C598.349 253.211 606.266 277.872 606.266 310.996C606.266 343.938 598.167 368.508 581.969 384.706C565.771 400.722 544.841 408.73 519.179 408.73ZM519.452 264.859C510.716 264.859 503.345 268.863 497.339 276.871C491.515 284.879 488.603 296.163 488.603 310.723C488.603 325.101 491.424 336.203 497.066 344.029C502.708 351.673 510.079 355.495 519.179 355.495C528.461 355.495 535.923 351.582 541.565 343.756C547.389 335.93 550.301 324.737 550.301 310.177C550.301 295.617 547.298 284.424 541.292 276.598C535.468 268.772 528.188 264.859 519.452 264.859Z" fill="black"/>
<path d="M195.544 223.04C195.544 219.413 205.336 217.6 224.92 217.6C244.685 217.6 254.568 219.413 254.568 223.04V347.888C254.568 366.384 247.949 381.525 234.712 393.312C221.475 404.917 203.16 410.72 179.768 410.72C156.557 410.72 137.608 404.736 122.92 392.768C108.413 380.619 101.16 364.299 101.16 343.808V223.312C101.16 219.685 110.952 217.872 130.536 217.872C150.301 217.872 160.184 219.685 160.184 223.312V345.984C160.184 349.611 162.088 352.512 165.896 354.688C169.885 356.864 174.056 357.952 178.408 357.952C182.76 357.952 186.659 356.955 190.104 354.96C193.731 352.965 195.544 349.973 195.544 345.984V223.04ZM426.453 402.016C426.453 405.824 417.93 407.728 400.885 407.728C383.84 407.728 374.592 406.368 373.141 403.648L327.717 318.784V403.376C327.717 406.64 319.285 408.272 302.421 408.272C285.738 408.272 277.397 406.64 277.397 403.376V221.408C277.397 218.688 284.56 217.328 298.885 217.328C304.506 217.328 311.034 217.872 318.469 218.96C326.085 219.867 330.709 221.68 332.341 224.4L375.861 308.176V222.768C375.861 219.323 384.293 217.6 401.157 217.6C418.021 217.6 426.453 219.323 426.453 222.768V402.016ZM534.556 410.72C509.169 410.72 488.407 402.379 472.268 385.696C456.311 369.013 448.332 344.715 448.332 312.8C448.332 280.704 456.401 256.405 472.54 239.904C488.86 223.403 509.804 215.152 535.372 215.152C561.121 215.152 581.884 223.312 597.66 239.632C613.436 255.771 621.324 280.341 621.324 313.344C621.324 346.165 613.255 370.645 597.116 386.784C580.977 402.741 560.124 410.72 534.556 410.72ZM534.828 267.376C526.124 267.376 518.78 271.365 512.796 279.344C506.993 287.323 504.092 298.565 504.092 313.072C504.092 327.397 506.903 338.459 512.524 346.256C518.145 353.872 525.489 357.68 534.556 357.68C543.804 357.68 551.239 353.781 556.86 345.984C562.663 338.187 565.564 327.035 565.564 312.528C565.564 298.021 562.572 286.869 556.588 279.072C550.785 271.275 543.532 267.376 534.828 267.376Z" fill="#968424"/>
</g>
<defs>
<filter id="filter0_d_9_28" x="57" y="141" width="565" height="337" filterUnits="userSpaceOnUse" color-interpolation-filters="sRGB">
<feFlood flood-opacity="0" result="BackgroundImageFix"/>
<feColorMatrix in="SourceAlpha" type="matrix" values="0 0 0 0 0 0 0 0 0 0 0 0 0 0 0 0 0 0 127 0" result="hardAlpha"/>
<feOffset dy="4"/>
<feGaussianBlur stdDeviation="2"/>
<feComposite in2="hardAlpha" operator="out"/>
<feColorMatrix type="matrix" values="0 0 0 0 0 0 0 0 0 0 0 0 0 0 0 0 0 0 0.25 0"/>
<feBlend mode="normal" in2="BackgroundImageFix" result="effect1_dropShadow_9_28"/>
<feBlend mode="normal" in="SourceGraphic" in2="effect1_dropShadow_9_28" result="shape"/>
</filter>
<clipPath id="clip0_9_28">
<rect width="680" height="680" fill="white"/>
</clipPath>
</defs>
</svg>
