<svg width="36" height="36" viewBox="0 0 36 36" fill="none" xmlns="http://www.w3.org/2000/svg">
<g clip-path="url(#clip0_5_20)">
<g filter="url(#filter0_d_5_20)">
<ellipse cx="21" cy="16" rx="12" ry="8" fill="#C52323"/>
</g>
<path d="M9.655 11.8C9.655 11.6 10.195 11.5 11.275 11.5C12.365 11.5 12.91 11.6 12.91 11.8V18.685C12.91 19.705 12.545 20.54 11.815 21.19C11.085 21.83 10.075 22.15 8.785 22.15C7.505 22.15 6.46 21.82 5.65 21.16C4.85 20.49 4.45 19.59 4.45 18.46V11.815C4.45 11.615 4.99 11.515 6.07 11.515C7.16 11.515 7.705 11.615 7.705 11.815V18.58C7.705 18.78 7.81 18.94 8.02 19.06C8.24 19.18 8.47 19.24 8.71 19.24C8.95 19.24 9.165 19.185 9.355 19.075C9.555 18.965 9.655 18.8 9.655 18.58V11.8ZM22.3889 21.67C22.3889 21.88 21.9189 21.985 20.9789 21.985C20.0389 21.985 19.5289 21.91 19.4489 21.76L16.9439 17.08V21.745C16.9439 21.925 16.4789 22.015 15.5489 22.015C14.6289 22.015 14.1689 21.925 14.1689 21.745V11.71C14.1689 11.56 14.5639 11.485 15.3539 11.485C15.6639 11.485 16.0239 11.515 16.4339 11.575C16.8539 11.625 17.1089 11.725 17.1989 11.875L19.5989 16.495V11.785C19.5989 11.595 20.0639 11.5 20.9939 11.5C21.9239 11.5 22.3889 11.595 22.3889 11.785V21.67ZM28.3505 22.15C26.9505 22.15 25.8055 21.69 24.9155 20.77C24.0355 19.85 23.5955 18.51 23.5955 16.75C23.5955 14.98 24.0405 13.64 24.9305 12.73C25.8305 11.82 26.9855 11.365 28.3955 11.365C29.8155 11.365 30.9605 11.815 31.8305 12.715C32.7005 13.605 33.1355 14.96 33.1355 16.78C33.1355 18.59 32.6905 19.94 31.8005 20.83C30.9105 21.71 29.7605 22.15 28.3505 22.15ZM28.3655 14.245C27.8855 14.245 27.4805 14.465 27.1505 14.905C26.8305 15.345 26.6705 15.965 26.6705 16.765C26.6705 17.555 26.8255 18.165 27.1355 18.595C27.4455 19.015 27.8505 19.225 28.3505 19.225C28.8605 19.225 29.2705 19.01 29.5805 18.58C29.9005 18.15 30.0605 17.535 30.0605 16.735C30.0605 15.935 29.8955 15.32 29.5655 14.89C29.2455 14.46 28.8455 14.245 28.3655 14.245Z" fill="black"/>
<path d="M10.655 11.8C10.655 11.6 11.195 11.5 12.275 11.5C13.365 11.5 13.91 11.6 13.91 11.8V18.685C13.91 19.705 13.545 20.54 12.815 21.19C12.085 21.83 11.075 22.15 9.785 22.15C8.505 22.15 7.46 21.82 6.65 21.16C5.85 20.49 5.45 19.59 5.45 18.46V11.815C5.45 11.615 5.99 11.515 7.07 11.515C8.16 11.515 8.705 11.615 8.705 11.815V18.58C8.705 18.78 8.81 18.94 9.02 19.06C9.24 19.18 9.47 19.24 9.71 19.24C9.95 19.24 10.165 19.185 10.355 19.075C10.555 18.965 10.655 18.8 10.655 18.58V11.8ZM23.3889 21.67C23.3889 21.88 22.9189 21.985 21.9789 21.985C21.0389 21.985 20.5289 21.91 20.4489 21.76L17.9439 17.08V21.745C17.9439 21.925 17.4789 22.015 16.5489 22.015C15.6289 22.015 15.1689 21.925 15.1689 21.745V11.71C15.1689 11.56 15.5639 11.485 16.3539 11.485C16.6639 11.485 17.0239 11.515 17.4339 11.575C17.8539 11.625 18.1089 11.725 18.1989 11.875L20.5989 16.495V11.785C20.5989 11.595 21.0639 11.5 21.9939 11.5C22.9239 11.5 23.3889 11.595 23.3889 11.785V21.67ZM29.3505 22.15C27.9505 22.15 26.8055 21.69 25.9155 20.77C25.0355 19.85 24.5955 18.51 24.5955 16.75C24.5955 14.98 25.0405 13.64 25.9305 12.73C26.8305 11.82 27.9855 11.365 29.3955 11.365C30.8155 11.365 31.9605 11.815 32.8305 12.715C33.7005 13.605 34.1355 14.96 34.1355 16.78C34.1355 18.59 33.6905 19.94 32.8005 20.83C31.9105 21.71 30.7605 22.15 29.3505 22.15ZM29.3655 14.245C28.8855 14.245 28.4805 14.465 28.1505 14.905C27.8305 15.345 27.6705 15.965 27.6705 16.765C27.6705 17.555 27.8255 18.165 28.1355 18.595C28.4455 19.015 28.8505 19.225 29.3505 19.225C29.8605 19.225 30.2705 19.01 30.5805 18.58C30.9005 18.15 31.0605 17.535 31.0605 16.735C31.0605 15.935 30.8955 15.32 30.5655 14.89C30.2455 14.46 29.8455 14.245 29.3655 14.245Z" fill="#968424"/>
</g>
<defs>
<filter id="filter0_d_5_20" x="5" y="8" width="32" height="24" filterUnits="userSpaceOnUse" color-interpolation-filters="sRGB">
<feFlood flood-opacity="0" result="BackgroundImageFix"/>
<feColorMatrix in="SourceAlpha" type="matrix" values="0 0 0 0 0 0 0 0 0 0 0 0 0 0 0 0 0 0 127 0" result="hardAlpha"/>
<feOffset dy="4"/>
<feGaussianBlur stdDeviation="2"/>
<feComposite in2="hardAlpha" operator="out"/>
<feColorMatrix type="matrix" values="0 0 0 0 0 0 0 0 0 0 0 0 0 0 0 0 0 0 0.25 0"/>
<feBlend mode="normal" in2="BackgroundImageFix" result="effect1_dropShadow_5_20"/>
<feBlend mode="normal" in="SourceGraphic" in2="effect1_dropShadow_5_20" result="shape"/>
</filter>
<clipPath id="clip0_5_20">
<rect width="36" height="36" fill="white"/>
</clipPath>
</defs>
</svg>
