<svg width="24" height="24" viewBox="0 0 24 24" fill="none" xmlns="http://www.w3.org/2000/svg">
<g clip-path="url(#clip0_1_10)">
<circle cx="12" cy="12" r="12" fill="#CE1D1D"/>
<path d="M5.3355 8.18C5.3355 8.02667 5.7495 7.95 6.5775 7.95C7.41317 7.95 7.831 8.02667 7.831 8.18V13.4585C7.831 14.2405 7.55117 14.8807 6.9915 15.379C6.43183 15.8697 5.6575 16.115 4.6685 16.115C3.68717 16.115 2.886 15.862 2.265 15.356C1.65167 14.8423 1.345 14.1523 1.345 13.286V8.1915C1.345 8.03817 1.759 7.9615 2.587 7.9615C3.42267 7.9615 3.8405 8.03817 3.8405 8.1915V13.378C3.8405 13.5313 3.921 13.654 4.082 13.746C4.25067 13.838 4.427 13.884 4.611 13.884C4.795 13.884 4.95983 13.8418 5.1055 13.7575C5.25883 13.6732 5.3355 13.5467 5.3355 13.378V8.18ZM15.0982 15.747C15.0982 15.908 14.7379 15.9885 14.0172 15.9885C13.2965 15.9885 12.9055 15.931 12.8442 15.816L10.9237 12.228V15.8045C10.9237 15.9425 10.5672 16.0115 9.85419 16.0115C9.14886 16.0115 8.79619 15.9425 8.79619 15.8045V8.111C8.79619 7.996 9.09902 7.9385 9.70469 7.9385C9.94236 7.9385 10.2184 7.9615 10.5327 8.0075C10.8547 8.04583 11.0502 8.1225 11.1192 8.2375L12.9592 11.7795V8.1685C12.9592 8.02283 13.3157 7.95 14.0287 7.95C14.7417 7.95 15.0982 8.02283 15.0982 8.1685V15.747ZM19.6687 16.115C18.5954 16.115 17.7176 15.7623 17.0352 15.057C16.3606 14.3517 16.0232 13.3243 16.0232 11.975C16.0232 10.618 16.3644 9.59067 17.0467 8.893C17.7367 8.19533 18.6222 7.8465 19.7032 7.8465C20.7919 7.8465 21.6697 8.1915 22.3367 8.8815C23.0037 9.56383 23.3372 10.6027 23.3372 11.998C23.3372 13.3857 22.9961 14.4207 22.3137 15.103C21.6314 15.7777 20.7497 16.115 19.6687 16.115ZM19.6802 10.0545C19.3122 10.0545 19.0017 10.2232 18.7487 10.5605C18.5034 10.8978 18.3807 11.3732 18.3807 11.9865C18.3807 12.5922 18.4996 13.0598 18.7372 13.3895C18.9749 13.7115 19.2854 13.8725 19.6687 13.8725C20.0597 13.8725 20.3741 13.7077 20.6117 13.378C20.8571 13.0483 20.9797 12.5768 20.9797 11.9635C20.9797 11.3502 20.8532 10.8787 20.6002 10.549C20.3549 10.2193 20.0482 10.0545 19.6802 10.0545Z" fill="black"/>
<path d="M6.24125 8.35C6.24125 8.2 6.64625 8.125 7.45625 8.125C8.27375 8.125 8.6825 8.2 8.6825 8.35V13.5137C8.6825 14.2787 8.40875 14.905 7.86125 15.3925C7.31375 15.8725 6.55625 16.1125 5.58875 16.1125C4.62875 16.1125 3.845 15.865 3.2375 15.37C2.6375 14.8675 2.3375 14.1925 2.3375 13.345V8.36125C2.3375 8.21125 2.7425 8.13625 3.5525 8.13625C4.37 8.13625 4.77875 8.21125 4.77875 8.36125V13.435C4.77875 13.585 4.8575 13.705 5.015 13.795C5.18 13.885 5.3525 13.93 5.5325 13.93C5.7125 13.93 5.87375 13.8887 6.01625 13.8062C6.16625 13.7237 6.24125 13.6 6.24125 13.435V8.35ZM15.7917 15.7525C15.7917 15.91 15.4392 15.9887 14.7342 15.9887C14.0292 15.9887 13.6467 15.9325 13.5867 15.82L11.708 12.31V15.8087C11.708 15.9437 11.3592 16.0113 10.6617 16.0113C9.97171 16.0113 9.62671 15.9437 9.62671 15.8087V8.2825C9.62671 8.17 9.92296 8.11375 10.5155 8.11375C10.748 8.11375 11.018 8.13625 11.3255 8.18125C11.6405 8.21875 11.8317 8.29375 11.8992 8.40625L13.6992 11.8712V8.33875C13.6992 8.19625 14.048 8.125 14.7455 8.125C15.443 8.125 15.7917 8.19625 15.7917 8.33875V15.7525ZM20.2629 16.1125C19.2129 16.1125 18.3541 15.7675 17.6866 15.0775C17.0266 14.3875 16.6966 13.3825 16.6966 12.0625C16.6966 10.735 17.0304 9.73 17.6979 9.0475C18.3729 8.365 19.2391 8.02375 20.2966 8.02375C21.3616 8.02375 22.2204 8.36125 22.8729 9.03625C23.5254 9.70375 23.8516 10.72 23.8516 12.085C23.8516 13.4425 23.5179 14.455 22.8504 15.1225C22.1829 15.7825 21.3204 16.1125 20.2629 16.1125ZM20.2741 10.1837C19.9141 10.1837 19.6104 10.3487 19.3629 10.6787C19.1229 11.0087 19.0029 11.4737 19.0029 12.0737C19.0029 12.6662 19.1191 13.1237 19.3516 13.4462C19.5841 13.7612 19.8879 13.9187 20.2629 13.9187C20.6454 13.9187 20.9529 13.7575 21.1854 13.435C21.4254 13.1125 21.5454 12.6512 21.5454 12.0512C21.5454 11.4512 21.4216 10.99 21.1741 10.6675C20.9341 10.345 20.6341 10.1837 20.2741 10.1837Z" fill="#968424"/>
</g>
<defs>
<clipPath id="clip0_1_10">
<rect width="24" height="24" fill="white"/>
</clipPath>
</defs>
</svg>
