<svg width="100" height="100" viewBox="0 0 100 100" fill="none" xmlns="http://www.w3.org/2000/svg">
<g filter="url(#filter0_d_1_9)">
<ellipse cx="53" cy="46" rx="32" ry="22" fill="#C52323"/>
</g>
<path d="M27.949 32.84C27.949 32.3467 29.281 32.1 31.945 32.1C34.6337 32.1 35.978 32.3467 35.978 32.84V49.823C35.978 52.339 35.0777 54.3987 33.277 56.002C31.4763 57.5807 28.985 58.37 25.803 58.37C22.6457 58.37 20.068 57.556 18.07 55.928C16.0967 54.2753 15.11 52.0553 15.11 49.268V32.877C15.11 32.3837 16.442 32.137 19.106 32.137C21.7947 32.137 23.139 32.3837 23.139 32.877V49.564C23.139 50.0573 23.398 50.452 23.916 50.748C24.4587 51.044 25.026 51.192 25.618 51.192C26.21 51.192 26.7403 51.0563 27.209 50.785C27.7023 50.5137 27.949 50.1067 27.949 49.564V32.84ZM59.3594 57.186C59.3594 57.704 58.2001 57.963 55.8814 57.963C53.5627 57.963 52.3047 57.778 52.1074 57.408L45.9284 45.864V57.371C45.9284 57.815 44.7814 58.037 42.4874 58.037C40.2181 58.037 39.0834 57.815 39.0834 57.371V32.618C39.0834 32.248 40.0577 32.063 42.0064 32.063C42.7711 32.063 43.6591 32.137 44.6704 32.285C45.7064 32.4083 46.3354 32.655 46.5574 33.025L52.4774 44.421V32.803C52.4774 32.3343 53.6244 32.1 55.9184 32.1C58.2124 32.1 59.3594 32.3343 59.3594 32.803V57.186ZM74.0646 58.37C70.6113 58.37 67.7869 57.2353 65.5916 54.966C63.4209 52.6967 62.3356 49.3913 62.3356 45.05C62.3356 40.684 63.4333 37.3787 65.6286 35.134C67.8486 32.8893 70.6976 31.767 74.1756 31.767C77.6783 31.767 80.5026 32.877 82.6486 35.097C84.7946 37.2923 85.8676 40.6347 85.8676 45.124C85.8676 49.5887 84.7699 52.9187 82.5746 55.114C80.3793 57.2847 77.5426 58.37 74.0646 58.37ZM74.1016 38.871C72.9176 38.871 71.9186 39.4137 71.1046 40.499C70.3153 41.5843 69.9206 43.1137 69.9206 45.087C69.9206 47.0357 70.3029 48.5403 71.0676 49.601C71.8323 50.637 72.8313 51.155 74.0646 51.155C75.3226 51.155 76.3339 50.6247 77.0986 49.564C77.8879 48.5033 78.2826 46.9863 78.2826 45.013C78.2826 43.0397 77.8756 41.5227 77.0616 40.462C76.2723 39.4013 75.2856 38.871 74.1016 38.871Z" fill="black"/>
<path d="M30.572 32.52C30.572 32.04 31.868 31.8 34.46 31.8C37.076 31.8 38.384 32.04 38.384 32.52V49.044C38.384 51.492 37.508 53.496 35.756 55.056C34.004 56.592 31.58 57.36 28.484 57.36C25.412 57.36 22.904 56.568 20.96 54.984C19.04 53.376 18.08 51.216 18.08 48.504V32.556C18.08 32.076 19.376 31.836 21.968 31.836C24.584 31.836 25.892 32.076 25.892 32.556V48.792C25.892 49.272 26.144 49.656 26.648 49.944C27.176 50.232 27.728 50.376 28.304 50.376C28.88 50.376 29.396 50.244 29.852 49.98C30.332 49.716 30.572 49.32 30.572 48.792V32.52ZM61.1335 56.208C61.1335 56.712 60.0055 56.964 57.7495 56.964C55.4935 56.964 54.2695 56.784 54.0775 56.424L48.0655 45.192V56.388C48.0655 56.82 46.9495 57.036 44.7175 57.036C42.5095 57.036 41.4055 56.82 41.4055 56.388V32.304C41.4055 31.944 42.3535 31.764 44.2495 31.764C44.9935 31.764 45.8575 31.836 46.8415 31.98C47.8495 32.1 48.4615 32.34 48.6775 32.7L54.4375 43.788V32.484C54.4375 32.028 55.5535 31.8 57.7855 31.8C60.0175 31.8 61.1335 32.028 61.1335 32.484V56.208ZM75.4412 57.36C72.0812 57.36 69.3332 56.256 67.1972 54.048C65.0852 51.84 64.0292 48.624 64.0292 44.4C64.0292 40.152 65.0972 36.936 67.2332 34.752C69.3932 32.568 72.1652 31.476 75.5492 31.476C78.9572 31.476 81.7052 32.556 83.7932 34.716C85.8812 36.852 86.9252 40.104 86.9252 44.472C86.9252 48.816 85.8572 52.056 83.7212 54.192C81.5852 56.304 78.8252 57.36 75.4412 57.36ZM75.4772 38.388C74.3252 38.388 73.3532 38.916 72.5612 39.972C71.7932 41.028 71.4092 42.516 71.4092 44.436C71.4092 46.332 71.7812 47.796 72.5252 48.828C73.2692 49.836 74.2412 50.34 75.4412 50.34C76.6652 50.34 77.6492 49.824 78.3932 48.792C79.1612 47.76 79.5452 46.284 79.5452 44.364C79.5452 42.444 79.1492 40.968 78.3572 39.936C77.5892 38.904 76.6292 38.388 75.4772 38.388Z" fill="#968424"/>
<defs>
<filter id="filter0_d_1_9" x="17" y="24" width="72" height="52" filterUnits="userSpaceOnUse" color-interpolation-filters="sRGB">
<feFlood flood-opacity="0" result="BackgroundImageFix"/>
<feColorMatrix in="SourceAlpha" type="matrix" values="0 0 0 0 0 0 0 0 0 0 0 0 0 0 0 0 0 0 127 0" result="hardAlpha"/>
<feOffset dy="4"/>
<feGaussianBlur stdDeviation="2"/>
<feComposite in2="hardAlpha" operator="out"/>
<feColorMatrix type="matrix" values="0 0 0 0 0 0 0 0 0 0 0 0 0 0 0 0 0 0 0.25 0"/>
<feBlend mode="normal" in2="BackgroundImageFix" result="effect1_dropShadow_1_9"/>
<feBlend mode="normal" in="SourceGraphic" in2="effect1_dropShadow_1_9" result="shape"/>
</filter>
</defs>
</svg>
