<svg width="240" height="240" viewBox="0 0 240 240" fill="none" xmlns="http://www.w3.org/2000/svg">
<rect x="46" width="148" height="240" fill="white"/>
<rect x="46" width="148" height="240" fill="white"/>
<rect x="52" y="6" width="136" height="228" fill="#E73636"/>
<ellipse cx="119.5" cy="120" rx="54.5" ry="67" fill="white"/>
<path d="M121.788 63.568C123.86 63.568 125.833 63.6667 127.708 63.864C129.681 63.9627 131.309 64.5547 132.592 65.64C133.875 66.7253 134.615 68.6987 134.812 71.56C134.911 72.9413 135.108 75.26 135.404 78.516C135.799 81.6733 136.193 85.3733 136.588 89.616C137.081 93.8587 137.575 98.2493 138.068 102.788C138.66 107.228 139.203 111.52 139.696 115.664C140.189 119.709 140.633 123.212 141.028 126.172C141.423 129.132 141.719 131.105 141.916 132.092C142.212 133.572 142.508 135.348 142.804 137.42C143.1 139.393 143.1 141.367 142.804 143.34C142.508 145.215 141.571 146.793 139.992 148.076C138.512 149.359 136.045 150 132.592 150C129.237 150 126.623 149.655 124.748 148.964C122.873 148.175 121.541 147.237 120.752 146.152C119.963 145.067 119.469 144.08 119.272 143.192C119.173 142.205 119.075 141.515 118.976 141.12C118.877 140.824 118.631 139.443 118.236 136.976C117.841 134.509 117.348 131.549 116.756 128.096C116.263 124.643 115.72 121.239 115.128 117.884C114.635 114.431 114.191 111.569 113.796 109.3C113.401 107.031 113.204 105.896 113.204 105.896C113.204 105.896 112.563 105.945 111.28 106.044C110.096 106.044 108.616 105.995 106.84 105.896C105.163 105.699 103.535 105.304 101.956 104.712C100.476 104.021 99.3907 102.985 98.7 101.604C98.108 100.124 98.256 98.1507 99.144 95.684C100.328 92.5267 101.561 89.1227 102.844 85.472C104.127 81.8213 105.607 78.3187 107.284 74.964C109.06 71.6093 111.083 68.896 113.352 66.824C115.72 64.6533 118.532 63.568 121.788 63.568Z" fill="#E73636"/>
<path d="M95 161.1H146.504V168.5H95V161.1Z" fill="#E73636"/>
</svg>
