<svg width="240" height="240" viewBox="0 0 240 240" fill="none" xmlns="http://www.w3.org/2000/svg">
<rect x="46" width="148" height="240" fill="white"/>
<rect x="46" width="148" height="240" fill="white"/>
<rect x="52" y="6" width="136" height="228" fill="#367DE7"/>
<ellipse cx="119.5" cy="120" rx="54.5" ry="67" fill="white"/>
<path d="M92.808 75.04C92.808 75.04 92.9067 74.448 93.104 73.264C93.4 72.08 94.1893 70.896 95.472 69.712C96.8533 68.4293 99.0733 67.7387 102.132 67.64C104.007 67.5413 106.375 67.492 109.236 67.492C112.097 67.3933 115.107 67.2947 118.264 67.196C121.52 67.0973 124.529 66.9987 127.292 66.9C130.055 66.8013 132.324 66.752 134.1 66.752C135.876 66.6533 136.764 66.604 136.764 66.604C136.764 66.604 137.356 66.604 138.54 66.604C139.823 66.604 141.303 66.8013 142.98 67.196C144.657 67.492 146.137 68.084 147.42 68.972C148.703 69.86 149.393 71.192 149.492 72.968C149.591 74.744 149.097 76.1747 148.012 77.26C146.927 78.2467 145.644 79.036 144.164 79.628C142.783 80.1213 141.549 80.4667 140.464 80.664C139.379 80.7627 138.836 80.812 138.836 80.812L113.972 81.404L112.936 93.836C112.936 93.836 113.725 93.7373 115.304 93.54C116.981 93.244 119.103 93.096 121.668 93.096C124.332 93.096 127.045 93.392 129.808 93.984C132.669 94.4773 135.333 95.464 137.8 96.944C142.437 99.8053 145.595 103.16 147.272 107.008C148.949 110.757 149.837 115.74 149.936 121.956C149.936 125.015 149.541 128.32 148.752 131.872C147.963 135.325 146.433 138.581 144.164 141.64C141.993 144.699 138.836 147.215 134.692 149.188C130.647 151.063 125.269 152 118.56 152C111.949 152 106.473 151.161 102.132 149.484C97.8893 147.807 94.8307 145.833 92.956 143.564C91.18 141.196 90.5387 139.025 91.032 137.052C91.624 134.98 93.3507 133.549 96.212 132.76C100.06 131.675 103.119 131.428 105.388 132.02C107.657 132.513 109.285 133.204 110.272 134.092C111.259 134.881 111.752 135.276 111.752 135.276C111.752 135.276 112.196 135.72 113.084 136.608C114.071 137.496 115.945 137.989 118.708 138.088C121.471 138.187 123.395 136.657 124.48 133.5C125.664 130.244 126.009 126.051 125.516 120.92C125.121 115.789 124.332 111.991 123.148 109.524C121.964 107.057 120.237 105.676 117.968 105.38C116.488 105.183 115.205 105.479 114.12 106.268C113.133 106.959 112.344 107.748 111.752 108.636C111.16 109.425 110.815 109.869 110.716 109.968C110.617 109.968 110.124 110.313 109.236 111.004C108.447 111.695 107.164 112.287 105.388 112.78C103.612 113.175 101.293 113.027 98.432 112.336C94.1893 111.251 91.5253 109.968 90.44 108.488C89.4533 106.909 89.1573 104.591 89.552 101.532C89.9467 98.3747 90.3907 94.4773 90.884 89.84C91.476 85.104 92.1173 80.1707 92.808 75.04Z" fill="#367DE7"/>
<path d="M86 163.1H153.34V170.5H86V163.1Z" fill="#367DE7"/>
</svg>
