<svg width="240" height="240" viewBox="0 0 240 240" fill="none" xmlns="http://www.w3.org/2000/svg">
<rect x="46" width="148" height="240" fill="white"/>
<rect x="46" width="148" height="240" fill="white"/>
<rect x="52" y="6" width="136" height="228" fill="#E7CB36"/>
<ellipse cx="119.5" cy="120" rx="54.5" ry="67" fill="white"/>
<path d="M139.24 151C135.491 151 132.679 150.556 130.804 149.668C128.929 148.78 127.696 147.793 127.104 146.708C126.512 145.623 126.216 144.636 126.216 143.748C126.216 142.86 126.216 142.416 126.216 142.416L126.068 113.556C120.839 113.655 115.856 113.507 111.12 113.112C106.483 112.619 102.339 111.632 98.688 110.152C95.136 108.573 92.2747 106.205 90.104 103.048C87.9333 99.8907 86.7 95.5987 86.404 90.172C86.108 84.7453 87.0947 80.404 89.364 77.148C91.6333 73.7933 94.544 71.2773 98.096 69.6C101.747 67.824 105.447 66.5907 109.196 65.9C112.945 65.2093 116.201 64.8147 118.964 64.716C122.615 64.5187 126.364 64.9133 130.212 65.9C134.159 66.788 137.711 68.564 140.868 71.228C144.124 73.892 146.541 77.74 148.12 82.772C149.107 85.732 149.847 89.3827 150.34 93.724C150.833 98.0653 151.129 102.703 151.228 107.636C151.327 112.471 151.376 117.256 151.376 121.992C151.376 126.629 151.327 130.773 151.228 134.424C151.129 138.075 151.08 140.837 151.08 142.712C151.08 145.08 150.488 146.856 149.304 148.04C148.12 149.125 146.739 149.915 145.16 150.408C143.581 150.803 142.2 151 141.016 151C139.832 151 139.24 151 139.24 151ZM126.956 98.904C126.956 98.904 126.956 98.2627 126.956 96.98C127.055 95.5987 127.005 93.9707 126.808 92.096C126.611 90.1227 126.216 88.1493 125.624 86.176C125.131 84.2027 124.292 82.5747 123.108 81.292C121.924 79.9107 120.296 79.1707 118.224 79.072C115.659 78.9733 113.735 79.516 112.452 80.7C111.169 81.884 110.281 83.2653 109.788 84.844C109.295 86.4227 108.999 87.8533 108.9 89.136C108.9 90.32 108.9 90.8627 108.9 90.764C108.9 90.6653 108.949 91.2573 109.048 92.54C109.147 93.724 109.689 95.056 110.676 96.536C111.663 97.9173 113.389 98.9533 115.856 99.644C118.421 100.335 122.121 100.088 126.956 98.904Z" fill="#E7CB36"/>
<path d="M83 162.1H154.188V169.5H83V162.1Z" fill="#E7CB36"/>
</svg>
