<svg width="240" height="240" viewBox="0 0 240 240" fill="none" xmlns="http://www.w3.org/2000/svg">
<rect x="46" width="148" height="240" fill="white"/>
<rect x="46" width="148" height="240" fill="white"/>
<rect x="52" y="6" width="136" height="228" fill="#E73636"/>
<ellipse cx="119.5" cy="120" rx="54.5" ry="67" fill="white"/>
<path d="M100.54 95.092C100.244 95.092 99.4547 95.092 98.172 95.092C96.8893 95.092 95.4587 94.796 93.88 94.204C92.3013 93.612 90.9693 92.5267 89.884 90.948C88.7987 89.2707 88.3053 86.804 88.404 83.548C88.6013 77.036 91.1667 72.004 96.1 68.452C101.033 64.9 107.447 63.1733 115.34 63.272C119.287 63.272 123.184 63.6667 127.032 64.456C130.979 65.1467 134.531 66.3307 137.688 68.008C140.845 69.6853 143.361 72.004 145.236 74.964C147.209 77.8253 148.196 81.5253 148.196 86.064C148.196 89.7147 147.259 93.6613 145.384 97.904C143.509 102.048 141.191 106.192 138.428 110.336C135.665 114.48 132.853 118.279 129.992 121.732C127.229 125.087 124.861 127.8 122.888 129.872C121.013 131.944 120.027 132.98 119.928 132.98C120.027 132.98 120.915 132.881 122.592 132.684C124.269 132.388 126.193 132.092 128.364 131.796C130.535 131.5 132.459 131.253 134.136 131.056C135.813 130.76 136.652 130.612 136.652 130.612C136.652 130.612 137.195 130.612 138.28 130.612C139.464 130.612 140.796 130.76 142.276 131.056C143.855 131.253 145.285 131.747 146.568 132.536C147.851 133.325 148.591 134.559 148.788 136.236C149.281 139.591 148.788 141.811 147.308 142.896C145.927 143.883 144.101 144.573 141.832 144.968C140.944 145.067 139.02 145.313 136.06 145.708C133.199 146.103 129.844 146.547 125.996 147.04C122.247 147.533 118.547 148.027 114.896 148.52C111.344 148.915 108.384 149.26 106.016 149.556C103.648 149.852 102.464 150 102.464 150C102.464 150 101.675 150 100.096 150C98.616 149.901 96.988 149.605 95.212 149.112C93.5347 148.619 92.4 147.731 91.808 146.448C90.92 144.475 90.5747 142.896 90.772 141.712C91.068 140.429 92.4493 138.407 94.916 135.644C95.9027 134.559 97.4813 132.733 99.652 130.168C101.823 127.504 104.191 124.445 106.756 120.992C109.42 117.44 111.985 113.74 114.452 109.892C116.919 105.945 118.941 102.147 120.52 98.496C122.099 94.7467 122.937 91.392 123.036 88.432C123.135 83.4987 122.839 80.0947 122.148 78.22C121.457 76.3453 120.668 75.3093 119.78 75.112C118.991 74.816 118.448 74.668 118.152 74.668C117.856 74.668 117.165 74.8653 116.08 75.26C114.995 75.556 113.909 76.1973 112.824 77.184C111.837 78.072 111.344 79.5027 111.344 81.476C111.344 83.3507 111.344 85.2747 111.344 87.248C111.344 89.1227 110.604 90.7507 109.124 92.132C107.743 93.5133 104.881 94.5 100.54 95.092Z" fill="#E73636"/>
<path d="M85 161.1H152.488V168.5H85V161.1Z" fill="#E73636"/>
</svg>
