<svg width="240" height="240" viewBox="0 0 240 240" fill="none" xmlns="http://www.w3.org/2000/svg">
<g clip-path="url(#clip0_30_228)">
<rect x="46" width="148" height="240" fill="white"/>
<rect x="46" width="148" height="240" fill="white"/>
<rect x="52" y="6" width="136" height="228" fill="#367DE7"/>
<ellipse cx="119.5" cy="120" rx="54.5" ry="67" fill="white"/>
<path d="M90.168 80.248C91.96 80.248 93.6667 80.3333 95.288 80.504C96.9947 80.5893 98.4027 81.1013 99.512 82.04C100.621 82.9787 101.261 84.6853 101.432 87.16C101.517 88.3547 101.688 90.36 101.944 93.176C102.285 95.9067 102.627 99.1067 102.968 102.776C103.395 106.445 103.821 110.243 104.248 114.168C104.76 118.008 105.229 121.72 105.656 125.304C106.083 128.803 106.467 131.832 106.808 134.392C107.149 136.952 107.405 138.659 107.576 139.512C107.832 140.792 108.088 142.328 108.344 144.12C108.6 145.827 108.6 147.533 108.344 149.24C108.088 150.861 107.277 152.227 105.912 153.336C104.632 154.445 102.499 155 99.512 155C96.6107 155 94.3493 154.701 92.728 154.104C91.1067 153.421 89.9547 152.611 89.272 151.672C88.5893 150.733 88.1627 149.88 87.992 149.112C87.9067 148.259 87.8213 147.661 87.736 147.32C87.6507 147.064 87.4373 145.869 87.096 143.736C86.7547 141.603 86.328 139.043 85.816 136.056C85.3893 133.069 84.92 130.125 84.408 127.224C83.9813 124.237 83.5973 121.763 83.256 119.8C82.9147 117.837 82.744 116.856 82.744 116.856C82.744 116.856 82.1893 116.899 81.08 116.984C80.056 116.984 78.776 116.941 77.24 116.856C75.7893 116.685 74.3813 116.344 73.016 115.832C71.736 115.235 70.7973 114.339 70.2 113.144C69.688 111.864 69.816 110.157 70.584 108.024C71.608 105.293 72.6747 102.349 73.784 99.192C74.8933 96.0347 76.1733 93.0053 77.624 90.104C79.16 87.2027 80.9093 84.856 82.872 83.064C84.92 81.1867 87.352 80.248 90.168 80.248ZM140.556 81.528C140.556 81.528 141.452 81.5707 143.244 81.656C145.036 81.7413 147.255 82.2107 149.9 83.064C152.545 83.832 155.233 85.3253 157.964 87.544C160.695 89.6773 162.999 92.792 164.876 96.888C166.839 100.984 167.948 106.403 168.204 113.144C168.545 123.811 167.82 132.216 166.028 138.36C164.236 144.419 161.377 148.728 157.452 151.288C153.527 153.763 148.535 155 142.476 155C133.431 155 126.391 151.885 121.356 145.656C116.321 139.341 113.804 129.357 113.804 115.704C113.804 108.877 114.529 103.245 115.98 98.808C117.431 94.3707 119.393 90.9147 121.868 88.44C124.343 85.9653 127.159 84.216 130.316 83.192C133.559 82.0827 136.972 81.528 140.556 81.528ZM141.452 91.768C140.855 91.9387 140.172 92.152 139.404 92.408C138.721 92.664 138.039 93.4747 137.356 94.84C136.759 96.2053 136.204 98.5093 135.692 101.752C135.265 104.995 134.967 109.645 134.796 115.704C134.625 122.616 134.753 128.077 135.18 132.088C135.607 136.013 136.247 138.829 137.1 140.536C138.039 142.157 139.148 143.011 140.428 143.096C141.452 143.181 142.391 142.925 143.244 142.328C144.183 141.731 144.993 140.493 145.676 138.616C146.444 136.739 146.999 133.965 147.34 130.296C147.767 126.627 147.98 121.763 147.98 115.704C147.98 109.645 147.639 104.995 146.956 101.752C146.359 98.424 145.591 96.0773 144.652 94.712C143.799 93.2613 143.031 92.408 142.348 92.152C141.751 91.896 141.452 91.768 141.452 91.768Z" fill="#367DE7"/>
<path d="M67 164.6H170.38V171H67V164.6Z" fill="#367DE7"/>
</g>
<defs>
<clipPath id="clip0_30_228">
<rect width="240" height="240" fill="white"/>
</clipPath>
</defs>
</svg>
