<svg width="240" height="240" viewBox="0 0 240 240" fill="none" xmlns="http://www.w3.org/2000/svg">
<rect x="46" width="148" height="240" fill="white"/>
<rect x="46" width="148" height="240" fill="white"/>
<rect x="52" y="6" width="136" height="228" fill="#119F63"/>
<ellipse cx="119.5" cy="120" rx="54.5" ry="67" fill="white"/>
<path d="M119.788 61.568C121.86 61.568 123.833 61.6667 125.708 61.864C127.681 61.9627 129.309 62.5547 130.592 63.64C131.875 64.7253 132.615 66.6987 132.812 69.56C132.911 70.9413 133.108 73.26 133.404 76.516C133.799 79.6733 134.193 83.3733 134.588 87.616C135.081 91.8587 135.575 96.2493 136.068 100.788C136.66 105.228 137.203 109.52 137.696 113.664C138.189 117.709 138.633 121.212 139.028 124.172C139.423 127.132 139.719 129.105 139.916 130.092C140.212 131.572 140.508 133.348 140.804 135.42C141.1 137.393 141.1 139.367 140.804 141.34C140.508 143.215 139.571 144.793 137.992 146.076C136.512 147.359 134.045 148 130.592 148C127.237 148 124.623 147.655 122.748 146.964C120.873 146.175 119.541 145.237 118.752 144.152C117.963 143.067 117.469 142.08 117.272 141.192C117.173 140.205 117.075 139.515 116.976 139.12C116.877 138.824 116.631 137.443 116.236 134.976C115.841 132.509 115.348 129.549 114.756 126.096C114.263 122.643 113.72 119.239 113.128 115.884C112.635 112.431 112.191 109.569 111.796 107.3C111.401 105.031 111.204 103.896 111.204 103.896C111.204 103.896 110.563 103.945 109.28 104.044C108.096 104.044 106.616 103.995 104.84 103.896C103.163 103.699 101.535 103.304 99.956 102.712C98.476 102.021 97.3907 100.985 96.7 99.604C96.108 98.124 96.256 96.1507 97.144 93.684C98.328 90.5267 99.5613 87.1227 100.844 83.472C102.127 79.8213 103.607 76.3187 105.284 72.964C107.06 69.6093 109.083 66.896 111.352 64.824C113.72 62.6533 116.532 61.568 119.788 61.568Z" fill="#119F63"/>
<path d="M93 159.1H144.504V166.5H93V159.1Z" fill="#119F63"/>
</svg>
