<svg width="240" height="240" viewBox="0 0 240 240" fill="none" xmlns="http://www.w3.org/2000/svg">
<rect x="46" width="148" height="240" fill="white"/>
<rect x="46" width="148" height="240" fill="white"/>
<rect x="52" y="6" width="136" height="228" fill="#E73636"/>
<ellipse cx="119.5" cy="120" rx="54.5" ry="67" fill="white"/>
<path d="M106.46 70.672C107.151 70.1787 108.088 69.3893 109.272 68.304C110.456 67.2187 111.887 66.232 113.564 65.344C115.241 64.3573 117.215 63.7653 119.484 63.568C121.753 63.3707 124.319 63.9133 127.18 65.196C130.535 66.676 132.656 68.0573 133.544 69.34C134.432 70.524 134.531 71.6587 133.84 72.744C133.248 73.7307 132.311 74.668 131.028 75.556C129.844 76.444 128.759 77.332 127.772 78.22C125.897 79.8973 124.269 81.772 122.888 83.844C121.605 85.8173 120.619 87.544 119.928 89.024C119.237 90.4053 118.892 91.096 118.892 91.096C124.911 89.616 130.239 89.7147 134.876 91.392C139.513 92.9707 143.164 95.8813 145.828 100.124C148.591 104.268 150.021 109.399 150.12 115.516C150.219 121.633 149.183 127.307 147.012 132.536C144.94 137.765 141.585 142.008 136.948 145.264C132.409 148.421 126.588 150 119.484 150C112.281 150 106.361 148.372 101.724 145.116C97.0867 141.761 93.6333 137.223 91.364 131.5C89.0947 125.777 87.96 119.315 87.96 112.112C87.96 107.771 88.552 103.577 89.736 99.532C91.0187 95.388 92.548 91.5893 94.324 88.136C96.1987 84.6827 98.0733 81.6733 99.948 79.108C101.823 76.444 103.352 74.372 104.536 72.892C105.819 71.412 106.46 70.672 106.46 70.672ZM118.596 100.864C115.537 101.16 113.367 102.344 112.084 104.416C110.801 106.389 110.061 108.609 109.864 111.076C109.765 113.444 109.765 115.417 109.864 116.996C110.16 121.337 111.147 125.185 112.824 128.54C114.501 131.895 117.067 133.424 120.52 133.128C123.973 132.832 126.341 130.957 127.624 127.504C128.907 124.051 129.351 118.92 128.956 112.112C128.759 108.757 128.117 106.291 127.032 104.712C125.947 103.035 124.763 101.949 123.48 101.456C122.197 100.963 121.063 100.765 120.076 100.864C119.089 100.864 118.596 100.864 118.596 100.864Z" fill="#E73636"/>
<path d="M85 161.1H153.376V168.5H85V161.1Z" fill="#E73636"/>
</svg>
