<svg width="240" height="240" viewBox="0 0 240 240" fill="none" xmlns="http://www.w3.org/2000/svg">
<rect x="46" width="148" height="240" fill="white"/>
<rect x="46" width="148" height="240" fill="white"/>
<rect x="52" y="6" width="136" height="228" fill="#E7CB36"/>
<ellipse cx="119.5" cy="120" rx="54.5" ry="67" fill="white"/>
<path d="M119.596 66.048C119.596 66.048 120.632 66.0973 122.704 66.196C124.776 66.2947 127.341 66.8373 130.4 67.824C133.459 68.712 136.567 70.4387 139.724 73.004C142.881 75.4707 145.545 79.072 147.716 83.808C149.985 88.544 151.268 94.8093 151.564 102.604C151.959 114.937 151.12 124.656 149.048 131.76C146.976 138.765 143.671 143.748 139.132 146.708C134.593 149.569 128.821 151 121.816 151C111.357 151 103.217 147.399 97.396 140.196C91.5747 132.895 88.664 121.351 88.664 105.564C88.664 97.6707 89.5027 91.1587 91.18 86.028C92.8573 80.8973 95.1267 76.9013 97.988 74.04C100.849 71.1787 104.105 69.156 107.756 67.972C111.505 66.6893 115.452 66.048 119.596 66.048ZM120.632 77.888C119.941 78.0853 119.152 78.332 118.264 78.628C117.475 78.924 116.685 79.8613 115.896 81.44C115.205 83.0187 114.564 85.6827 113.972 89.432C113.479 93.1813 113.133 98.5587 112.936 105.564C112.739 113.556 112.887 119.871 113.38 124.508C113.873 129.047 114.613 132.303 115.6 134.276C116.685 136.151 117.968 137.137 119.448 137.236C120.632 137.335 121.717 137.039 122.704 136.348C123.789 135.657 124.727 134.227 125.516 132.056C126.404 129.885 127.045 126.679 127.44 122.436C127.933 118.193 128.18 112.569 128.18 105.564C128.18 98.5587 127.785 93.1813 126.996 89.432C126.305 85.584 125.417 82.8707 124.332 81.292C123.345 79.6147 122.457 78.628 121.668 78.332C120.977 78.036 120.632 77.888 120.632 77.888Z" fill="#E7CB36"/>
<path d="M86 162.1H154.08V169.5H86V162.1Z" fill="#E7CB36"/>
</svg>
