<svg width="240" height="240" viewBox="0 0 240 240" fill="none" xmlns="http://www.w3.org/2000/svg">
<rect x="46" width="148" height="240" fill="white"/>
<rect x="46" width="148" height="240" fill="white"/>
<rect x="52" y="6" width="136" height="228" fill="#E73636"/>
<ellipse cx="119.5" cy="120" rx="54.5" ry="67" fill="white"/>
<path d="M94.804 153.008L87.996 88.48C87.996 88.48 87.848 88.184 87.552 87.592C87.3547 87 87.3053 86.2107 87.404 85.224C87.5027 84.2373 88.0453 83.2013 89.032 82.116C90.1173 81.0307 91.9427 80.044 94.508 79.156C97.9613 77.8733 102.007 76.8373 106.644 76.048C111.38 75.16 116.363 74.9133 121.592 75.308C126.92 75.7027 132.149 77.2813 137.28 80.044C140.339 81.6227 142.608 83.892 144.088 86.852C145.568 89.812 146.456 92.9693 146.752 96.324C147.048 99.6787 147.048 102.885 146.752 105.944C146.555 109.003 146.209 111.519 145.716 113.492C145.321 115.465 145.124 116.452 145.124 116.452C145.124 116.452 144.779 117.192 144.088 118.672C143.397 120.152 142.065 121.829 140.092 123.704C138.217 125.48 135.455 126.911 131.804 127.996L152.82 150.64C152.82 150.64 153.165 151.035 153.856 151.824C154.547 152.613 155.089 153.6 155.484 154.784C155.977 155.869 155.879 157.004 155.188 158.188C154.596 159.273 152.968 160.211 150.304 161C147.541 161.789 145.075 161.987 142.904 161.592C140.832 161.197 139.105 160.556 137.724 159.668C136.441 158.78 135.455 157.941 134.764 157.152C134.073 156.363 133.728 155.968 133.728 155.968L114.192 131.844L119.076 152.712C119.076 152.712 119.175 153.156 119.372 154.044C119.569 154.833 119.471 155.771 119.076 156.856C118.681 157.941 117.695 158.928 116.116 159.816C114.537 160.605 112.021 161 108.568 161C105.115 161 102.401 160.605 100.428 159.816C98.5533 159.027 97.2213 158.089 96.432 157.004C95.6427 155.919 95.1493 154.981 94.952 154.192C94.8533 153.403 94.804 153.008 94.804 153.008ZM108.864 88.332L112.416 118.08C112.416 118.08 112.959 118.129 114.044 118.228C115.228 118.327 116.609 118.228 118.188 117.932C119.865 117.636 121.444 116.945 122.924 115.86C124.503 114.676 125.785 112.9 126.772 110.532C127.759 108.065 128.104 104.711 127.808 100.468C127.512 96.4227 126.723 93.4627 125.44 91.588C124.157 89.6147 122.579 88.3813 120.704 87.888C118.829 87.296 116.856 87.148 114.784 87.444C112.712 87.6413 110.739 87.9373 108.864 88.332Z" fill="#E73636"/>
</svg>
