<svg width="240" height="240" viewBox="0 0 240 240" fill="none" xmlns="http://www.w3.org/2000/svg">
<g clip-path="url(#clip0_30_248)">
<rect x="46" width="148" height="240" fill="white"/>
<rect x="46" width="148" height="240" fill="white"/>
<rect x="52" y="6" width="136" height="228" fill="#367DE7"/>
<ellipse cx="119.5" cy="120" rx="54.5" ry="67" fill="white"/>
<path d="M136.06 100.948C132.705 100.948 130.14 100.553 128.364 99.764C126.588 98.876 125.305 97.8893 124.516 96.804C123.825 95.7187 123.431 94.732 123.332 93.844C123.233 92.8573 123.184 92.2653 123.184 92.068C123.184 91.5747 122.987 90.7853 122.592 89.7C122.296 88.516 121.309 87.924 119.632 87.924C116.869 87.924 114.403 88.7627 112.232 90.44C110.16 92.1173 109.025 94.584 108.828 97.84C108.631 101.096 109.469 103.908 111.344 106.276C113.219 108.644 116.919 109.877 122.444 109.976C125.207 109.976 128.117 110.371 131.176 111.16C134.235 111.949 137.096 113.232 139.76 115.008C142.523 116.685 144.693 119.004 146.272 121.964C147.949 124.825 148.788 128.427 148.788 132.768C148.689 141.451 146.371 148.16 141.832 152.896C137.293 157.632 129.745 160 119.188 160C112.183 160 106.559 159.161 102.316 157.484C98.0733 155.708 94.9653 153.636 92.992 151.268C91.1173 148.9 90.1307 146.779 90.032 144.904C89.9333 143.029 90.032 141.204 90.328 139.428C90.7227 137.652 91.7587 136.123 93.436 134.84C95.212 133.557 98.024 132.768 101.872 132.472C105.819 132.176 108.631 132.521 110.308 133.508C111.985 134.396 113.021 135.432 113.416 136.616C113.909 137.8 114.156 138.54 114.156 138.836C114.156 139.132 114.255 139.872 114.452 141.056C114.748 142.141 115.241 143.227 115.932 144.312C116.721 145.299 117.807 145.792 119.188 145.792C121.26 145.792 123.036 144.953 124.516 143.276C125.996 141.599 126.933 138.885 127.328 135.136C128.019 127.736 124.319 124.036 116.228 124.036C114.255 124.036 111.689 123.74 108.532 123.148C105.473 122.457 102.415 121.273 99.356 119.596C96.2973 117.82 93.732 115.353 91.66 112.196C89.588 109.039 88.6013 104.895 88.7 99.764C88.7987 94.6333 89.736 90.44 91.512 87.184C93.288 83.8293 95.6067 81.264 98.468 79.488C101.428 77.6133 104.635 76.2813 108.088 75.492C111.64 74.7027 115.143 74.2587 118.596 74.16C123.233 74.0613 127.673 74.604 131.916 75.788C136.257 76.972 139.859 78.7973 142.72 81.264C145.68 83.632 147.357 86.74 147.752 90.588C148.048 93.4493 147.604 95.62 146.42 97.1C145.335 98.4813 143.953 99.468 142.276 100.06C140.697 100.553 139.267 100.849 137.984 100.948C136.701 100.948 136.06 100.948 136.06 100.948ZM95.656 331.156C95.656 331.156 95.5573 330.219 95.36 328.344C95.1627 326.371 94.8667 323.855 94.472 320.796C94.0773 317.639 93.584 314.284 92.992 310.732C92.4987 307.18 91.9067 303.776 91.216 300.52C90.5253 297.165 89.7853 294.304 88.996 291.936C88.0093 288.976 87.8613 286.756 88.552 285.276C89.2427 283.697 90.2787 282.612 91.66 282.02C93.14 281.428 94.472 281.132 95.656 281.132C96.9387 281.033 97.58 280.984 97.58 280.984C97.58 280.984 98.2707 280.984 99.652 280.984C101.033 280.885 102.661 281.033 104.536 281.428C106.411 281.823 108.137 282.612 109.716 283.796C111.295 284.98 112.281 286.855 112.676 289.42C113.268 292.775 113.663 294.896 113.86 295.784C114.057 296.672 114.156 297.017 114.156 296.82C114.255 296.524 114.304 296.376 114.304 296.376L131.028 281.132C131.028 281.132 131.571 280.737 132.656 279.948C133.84 279.06 135.665 278.419 138.132 278.024C140.697 277.531 144.003 277.876 148.048 279.06C150.909 279.849 152.537 280.885 152.932 282.168C153.425 283.451 153.277 284.635 152.488 285.72C151.797 286.805 151.205 287.595 150.712 288.088C150.416 288.384 149.528 289.272 148.048 290.752C146.568 292.133 144.792 293.811 142.72 295.784C140.747 297.659 138.773 299.533 136.8 301.408C134.827 303.283 133.199 304.861 131.916 306.144C130.633 307.427 129.992 308.068 129.992 308.068L153.82 324.644C153.82 324.644 154.264 325.039 155.152 325.828C156.139 326.519 157.027 327.456 157.816 328.64C158.605 329.824 158.852 331.107 158.556 332.488C158.359 333.771 157.027 335.004 154.56 336.188C152.093 337.372 149.676 337.865 147.308 337.668C145.039 337.372 142.967 336.78 141.092 335.892C139.316 335.004 137.885 334.165 136.8 333.376C135.715 332.587 135.172 332.192 135.172 332.192L118.3 320.5L119.336 332.636C119.336 332.636 119.237 333.179 119.04 334.264C118.843 335.251 117.955 336.287 116.376 337.372C114.896 338.457 112.232 339 108.384 339C104.536 339 101.724 338.359 99.948 337.076C98.172 335.695 96.988 334.363 96.396 333.08C95.9027 331.797 95.656 331.156 95.656 331.156ZM178.756 276.692C178.756 276.692 178.114 276.692 176.832 276.692C175.549 276.593 174.02 276.297 172.244 275.804C170.566 275.212 169.037 274.176 167.656 272.696C166.274 271.216 165.534 268.996 165.436 266.036C165.337 263.076 165.781 260.905 166.768 259.524C167.754 258.044 168.988 257.057 170.468 256.564C171.948 255.972 173.378 255.676 174.76 255.676C176.141 255.577 177.128 255.479 177.72 255.38C178.312 255.281 179.298 255.38 180.68 255.676C182.061 255.873 183.492 256.416 184.972 257.304C186.452 258.093 187.685 259.327 188.672 261.004C189.658 262.583 190.053 264.704 189.856 267.368C189.658 269.933 188.968 271.907 187.784 273.288C186.698 274.571 185.416 275.459 183.936 275.952C182.554 276.347 181.321 276.593 180.236 276.692C179.249 276.692 178.756 276.692 178.756 276.692ZM173.576 329.824L170.024 296.08C170.024 296.08 169.777 295.587 169.284 294.6C168.889 293.515 168.593 292.775 168.396 292.38C168.297 292.084 168.1 291.492 167.804 290.604C167.606 289.617 167.853 288.581 168.544 287.496C169.333 286.411 171.01 285.621 173.576 285.128C176.24 284.635 179.002 284.487 181.864 284.684C184.725 284.881 187.241 285.769 189.412 287.348C191.681 288.828 193.062 291.443 193.556 295.192C193.95 297.955 194.345 301.26 194.74 305.108C195.134 308.857 195.48 312.557 195.776 316.208C196.17 319.76 196.466 322.769 196.664 325.236C196.96 327.604 197.108 328.788 197.108 328.788C197.108 328.788 197.157 329.331 197.256 330.416C197.354 331.403 197.206 332.587 196.812 333.968C196.417 335.251 195.43 336.435 193.852 337.52C192.372 338.507 189.954 339 186.6 339C183.245 339 180.68 338.556 178.904 337.668C177.128 336.681 175.845 335.596 175.056 334.412C174.365 333.228 173.921 332.192 173.724 331.304C173.625 330.317 173.576 329.824 173.576 329.824ZM94.62 539.164L89.736 479.076C89.736 479.076 89.4893 478.681 88.996 477.892C88.6013 477.103 88.2067 476.116 87.812 474.932C87.4173 473.649 87.3187 472.416 87.516 471.232C87.7133 470.048 88.4533 469.061 89.736 468.272C90.8213 467.68 92.7947 466.545 95.656 464.868C98.616 463.092 102.217 461.365 106.46 459.688C110.703 458.011 115.241 456.827 120.076 456.136C125.009 455.445 129.943 455.741 134.876 457.024C139.908 458.208 144.644 460.921 149.084 465.164C153.425 469.308 156.139 473.896 157.224 478.928C158.309 483.96 158.211 488.893 156.928 493.728C155.744 498.563 153.721 502.805 150.86 506.456C148.097 510.107 144.94 512.672 141.388 514.152C136.553 516.125 132.409 517.359 128.956 517.852C125.503 518.247 122.839 518.345 120.964 518.148C119.089 518.049 118.152 518 118.152 518L119.632 540.348C119.632 540.348 119.632 540.841 119.632 541.828C119.632 542.815 119.336 543.949 118.744 545.232C118.251 546.515 117.165 547.6 115.488 548.488C113.811 549.475 111.344 549.968 108.088 549.968C103.747 549.869 100.589 549.179 98.616 547.896C96.7413 546.613 95.6067 545.133 95.212 543.456C94.8173 541.779 94.62 540.348 94.62 539.164ZM113.564 472.416L116.82 504.532C116.82 504.532 117.659 504.532 119.336 504.532C121.013 504.532 122.888 504.236 124.96 503.644C127.131 503.052 129.005 501.917 130.584 500.24C132.163 498.563 132.853 496.047 132.656 492.692C132.459 488.252 131.965 484.305 131.176 480.852C130.387 477.3 129.203 474.587 127.624 472.712C126.045 470.837 123.875 470.147 121.112 470.64C118.349 471.133 116.425 471.528 115.34 471.824C114.353 472.021 113.811 472.169 113.712 472.268C113.613 472.367 113.564 472.416 113.564 472.416Z" fill="#367DE7"/>
</g>
<defs>
<clipPath id="clip0_30_248">
<rect width="240" height="240" fill="white"/>
</clipPath>
</defs>
</svg>
