<svg width="240" height="240" viewBox="0 0 240 240" fill="none" xmlns="http://www.w3.org/2000/svg">
<rect x="46" width="148" height="240" fill="white"/>
<rect x="46" width="148" height="240" fill="white"/>
<rect x="52" y="6" width="136" height="228" fill="#367DE7"/>
<ellipse cx="119.5" cy="120" rx="54.5" ry="67" fill="white"/>
<path d="M100.54 94.092C100.244 94.092 99.4547 94.092 98.172 94.092C96.8893 94.092 95.4587 93.796 93.88 93.204C92.3013 92.612 90.9693 91.5267 89.884 89.948C88.7987 88.2707 88.3053 85.804 88.404 82.548C88.6013 76.036 91.1667 71.004 96.1 67.452C101.033 63.9 107.447 62.1733 115.34 62.272C119.287 62.272 123.184 62.6667 127.032 63.456C130.979 64.1467 134.531 65.3307 137.688 67.008C140.845 68.6853 143.361 71.004 145.236 73.964C147.209 76.8253 148.196 80.5253 148.196 85.064C148.196 88.7147 147.259 92.6613 145.384 96.904C143.509 101.048 141.191 105.192 138.428 109.336C135.665 113.48 132.853 117.279 129.992 120.732C127.229 124.087 124.861 126.8 122.888 128.872C121.013 130.944 120.027 131.98 119.928 131.98C120.027 131.98 120.915 131.881 122.592 131.684C124.269 131.388 126.193 131.092 128.364 130.796C130.535 130.5 132.459 130.253 134.136 130.056C135.813 129.76 136.652 129.612 136.652 129.612C136.652 129.612 137.195 129.612 138.28 129.612C139.464 129.612 140.796 129.76 142.276 130.056C143.855 130.253 145.285 130.747 146.568 131.536C147.851 132.325 148.591 133.559 148.788 135.236C149.281 138.591 148.788 140.811 147.308 141.896C145.927 142.883 144.101 143.573 141.832 143.968C140.944 144.067 139.02 144.313 136.06 144.708C133.199 145.103 129.844 145.547 125.996 146.04C122.247 146.533 118.547 147.027 114.896 147.52C111.344 147.915 108.384 148.26 106.016 148.556C103.648 148.852 102.464 149 102.464 149C102.464 149 101.675 149 100.096 149C98.616 148.901 96.988 148.605 95.212 148.112C93.5347 147.619 92.4 146.731 91.808 145.448C90.92 143.475 90.5747 141.896 90.772 140.712C91.068 139.429 92.4493 137.407 94.916 134.644C95.9027 133.559 97.4813 131.733 99.652 129.168C101.823 126.504 104.191 123.445 106.756 119.992C109.42 116.44 111.985 112.74 114.452 108.892C116.919 104.945 118.941 101.147 120.52 97.496C122.099 93.7467 122.937 90.392 123.036 87.432C123.135 82.4987 122.839 79.0947 122.148 77.22C121.457 75.3453 120.668 74.3093 119.78 74.112C118.991 73.816 118.448 73.668 118.152 73.668C117.856 73.668 117.165 73.8653 116.08 74.26C114.995 74.556 113.909 75.1973 112.824 76.184C111.837 77.072 111.344 78.5027 111.344 80.476C111.344 82.3507 111.344 84.2747 111.344 86.248C111.344 88.1227 110.604 89.7507 109.124 91.132C107.743 92.5133 104.881 93.5 100.54 94.092Z" fill="#367DE7"/>
<path d="M85 160.1H152.488V167.5H85V160.1Z" fill="#367DE7"/>
</svg>
