<svg width="240" height="240" viewBox="0 0 240 240" fill="none" xmlns="http://www.w3.org/2000/svg">
<rect x="46" width="148" height="240" fill="white"/>
<rect x="46" width="148" height="240" fill="white"/>
<rect x="52" y="6" width="136" height="228" fill="#367DE7"/>
<ellipse cx="119.5" cy="120" rx="54.5" ry="67" fill="white"/>
<path d="M90.108 76C90.0093 75.408 90.0587 74.52 90.256 73.336C90.4533 72.152 91.144 70.9187 92.328 69.636C93.6107 68.2547 95.732 67.0213 98.692 65.936C101.751 64.8507 106.043 64.1107 111.568 63.716C119.067 63.2227 125.036 63.864 129.476 65.64C133.916 67.416 137.123 69.784 139.096 72.744C141.168 75.6053 142.401 78.516 142.796 81.476C143.388 85.8173 143.289 89.4187 142.5 92.28C141.809 95.1413 140.823 96.868 139.54 97.46C139.54 97.46 140.033 97.6573 141.02 98.052C142.105 98.4467 143.339 99.3347 144.72 100.716C146.2 101.999 147.483 104.071 148.568 106.932C149.752 109.793 150.492 113.74 150.788 118.772C151.183 125.383 150.689 131.056 149.308 135.792C147.927 140.429 145.164 143.981 141.02 146.448C136.975 148.816 130.956 150 122.964 150C114.972 150 108.657 149.112 104.02 147.336C99.3827 145.461 96.028 143.143 93.956 140.38C91.9827 137.617 90.996 134.904 90.996 132.24C90.996 129.576 91.736 127.553 93.216 126.172C94.7947 124.791 96.3733 123.853 97.952 123.36C99.5307 122.867 100.419 122.62 100.616 122.62C100.813 122.62 101.553 122.62 102.836 122.62C104.217 122.521 105.747 122.62 107.424 122.916C109.2 123.212 110.779 123.853 112.16 124.84C113.541 125.827 114.38 127.356 114.676 129.428C115.071 132.191 115.811 134.164 116.896 135.348C117.981 136.532 119.017 137.272 120.004 137.568C121.089 137.864 121.632 138.012 121.632 138.012C121.632 138.012 121.928 138.012 122.52 138.012C123.211 137.913 123.901 137.519 124.592 136.828C125.381 136.039 126.023 134.608 126.516 132.536C127.009 130.365 127.108 127.208 126.812 123.064C126.417 117.539 125.579 113.592 124.296 111.224C123.013 108.856 121.681 107.425 120.3 106.932C119.017 106.34 118.08 106.044 117.488 106.044C117.093 106.044 116.255 106.044 114.972 106.044C113.788 106.044 112.505 105.896 111.124 105.6C109.743 105.304 108.559 104.811 107.572 104.12C106.585 103.429 106.141 102.443 106.24 101.16C106.339 99.384 106.881 98.052 107.868 97.164C108.855 96.276 109.891 95.684 110.976 95.388C112.061 95.092 112.703 94.944 112.9 94.944C113.196 94.8453 113.887 94.648 114.972 94.352C116.057 94.056 117.044 93.2667 117.932 91.984C118.919 90.6027 119.215 88.432 118.82 85.472C118.524 82.4133 117.636 80.44 116.156 79.552C114.676 78.5653 113.245 78.1213 111.864 78.22C110.581 78.22 109.841 78.22 109.644 78.22C109.545 78.22 108.559 78.4667 106.684 78.96C104.809 79.3547 102.639 79.6507 100.172 79.848C97.804 80.0453 95.6333 79.8973 93.66 79.404C91.6867 78.9107 90.5027 77.776 90.108 76Z" fill="#367DE7"/>
<path d="M87 161.1H154.784V168.5H87V161.1Z" fill="#367DE7"/>
</svg>
