<svg width="240" height="240" viewBox="0 0 240 240" fill="none" xmlns="http://www.w3.org/2000/svg">
<g clip-path="url(#clip0_38_381)">
<rect x="46" width="148" height="240" fill="white"/>
<rect x="46" width="148" height="240" fill="white"/>
<rect x="52" y="6" width="136" height="228" fill="#119F63"/>
<ellipse cx="119.5" cy="120" rx="54.5" ry="67" fill="white"/>
<path d="M98.028 168.38C97.6333 162.559 97.1893 156.491 96.696 150.176C96.2027 143.763 95.7093 137.645 95.216 131.824C94.8213 126.003 94.476 121.069 94.18 117.024C93.884 112.88 93.6373 110.216 93.44 109.032C93.144 106.763 93.2427 105.233 93.736 104.444C94.328 103.556 94.624 103.112 94.624 103.112C94.624 103.112 94.2787 102.767 93.588 102.076C92.8973 101.287 92.552 100.448 92.552 99.56C92.552 97.9813 93.4893 96.6987 95.364 95.712C97.3373 94.7253 99.5573 93.9853 102.024 93.492C104.491 92.9987 106.661 92.6533 108.536 92.456C110.509 92.2587 111.496 92.16 111.496 92.16C111.496 92.16 112.483 92.1107 114.456 92.012C116.429 91.9133 118.945 92.012 122.004 92.308C125.161 92.604 128.516 93.3933 132.068 94.676C135.719 95.86 139.172 97.784 142.428 100.448C145.783 103.112 148.595 106.763 150.864 111.4C153.133 115.939 154.515 121.76 155.008 128.864C155.6 137.251 155.205 144.305 153.824 150.028C152.541 155.751 150.568 160.437 147.904 164.088C145.339 167.64 142.379 170.403 139.024 172.376C135.669 174.349 132.167 175.731 128.516 176.52C124.964 177.211 121.56 177.655 118.304 177.852C115.147 177.951 112.384 178 110.016 178C106.563 178 103.948 177.507 102.172 176.52C100.495 175.533 99.36 174.448 98.768 173.264C98.2747 171.981 98.028 170.847 98.028 169.86C98.028 168.873 98.028 168.38 98.028 168.38ZM113.864 105.48L120.376 165.42C120.376 165.42 120.82 165.371 121.708 165.272C122.596 165.173 123.681 164.729 124.964 163.94C126.345 163.151 127.628 161.72 128.812 159.648C130.095 157.576 131.081 154.665 131.772 150.916C132.463 147.068 132.611 142.085 132.216 135.968C131.821 128.272 130.983 122.303 129.7 118.06C128.516 113.719 127.036 110.611 125.26 108.736C123.583 106.861 121.757 105.776 119.784 105.48C117.811 105.184 115.837 105.184 113.864 105.48Z" fill="#119F63"/>
<path d="M103.84 77.352L102.976 73.176C102.976 73.176 102.964 73.092 102.94 72.924C102.916 72.732 102.952 72.516 103.048 72.276C103.168 72.012 103.408 71.772 103.768 71.556C104.128 71.34 104.704 71.196 105.496 71.124C106.288 71.052 106.912 71.1 107.368 71.268C107.848 71.436 108.208 71.64 108.448 71.88C108.688 72.12 108.844 72.348 108.916 72.564C108.988 72.756 109.024 72.852 109.024 72.852C109.024 72.852 109.072 73.08 109.168 73.536C109.264 73.968 109.36 74.472 109.456 75.048C109.576 75.6 109.684 76.092 109.78 76.524C109.876 76.956 109.924 77.172 109.924 77.172L113.92 77.352C113.92 77.352 114.064 77.364 114.352 77.388C114.64 77.388 114.964 77.436 115.324 77.532C115.684 77.604 116.008 77.736 116.296 77.928C116.584 78.12 116.728 78.408 116.728 78.792C116.728 79.176 116.608 79.464 116.368 79.656C116.128 79.848 115.852 79.98 115.54 80.052C115.252 80.124 114.988 80.172 114.748 80.196C114.508 80.196 114.388 80.196 114.388 80.196H110.428C110.428 80.196 110.428 80.364 110.428 80.7C110.452 81.036 110.476 81.456 110.5 81.96C110.524 82.44 110.548 82.932 110.572 83.436C110.596 83.916 110.62 84.324 110.644 84.66C110.668 84.996 110.68 85.164 110.68 85.164C110.68 85.164 110.668 85.26 110.644 85.452C110.62 85.644 110.536 85.86 110.392 86.1C110.248 86.34 109.996 86.556 109.636 86.748C109.3 86.94 108.796 87.036 108.124 87.036C106.804 87.036 105.928 86.856 105.496 86.496C105.064 86.136 104.824 85.788 104.776 85.452C104.752 85.284 104.716 84.936 104.668 84.408C104.62 83.88 104.572 83.304 104.524 82.68C104.476 82.056 104.428 81.528 104.38 81.096C104.356 80.64 104.344 80.412 104.344 80.412L99.556 80.556C99.556 80.556 99.376 80.544 99.016 80.52C98.68 80.472 98.332 80.364 97.972 80.196C97.612 80.004 97.432 79.704 97.432 79.296C97.432 78.864 97.588 78.552 97.9 78.36C98.212 78.144 98.524 78 98.836 77.928C99.148 77.856 99.316 77.82 99.34 77.82C99.364 77.82 99.628 77.796 100.132 77.748C100.636 77.7 101.236 77.64 101.932 77.568C102.628 77.472 103.264 77.4 103.84 77.352ZM122.325 69.192C122.229 69.192 121.973 69.192 121.557 69.192C121.141 69.192 120.677 69.096 120.165 68.904C119.653 68.712 119.221 68.36 118.869 67.848C118.517 67.304 118.357 66.504 118.389 65.448C118.453 63.336 119.285 61.704 120.885 60.552C122.485 59.4 124.565 58.84 127.125 58.872C128.405 58.872 129.669 59 130.917 59.256C132.197 59.48 133.349 59.864 134.373 60.408C135.397 60.952 136.213 61.704 136.821 62.664C137.461 63.592 137.781 64.792 137.781 66.264C137.781 67.448 137.477 68.728 136.869 70.104C136.261 71.448 135.509 72.792 134.613 74.136C133.717 75.48 132.805 76.712 131.877 77.832C130.981 78.92 130.213 79.8 129.573 80.472C128.965 81.144 128.645 81.48 128.613 81.48C128.645 81.48 128.933 81.448 129.477 81.384C130.021 81.288 130.645 81.192 131.349 81.096C132.053 81 132.677 80.92 133.221 80.856C133.765 80.76 134.037 80.712 134.037 80.712C134.037 80.712 134.213 80.712 134.565 80.712C134.949 80.712 135.381 80.76 135.861 80.856C136.373 80.92 136.837 81.08 137.253 81.336C137.669 81.592 137.909 81.992 137.973 82.536C138.133 83.624 137.973 84.344 137.493 84.696C137.045 85.016 136.453 85.24 135.717 85.368C135.429 85.4 134.805 85.48 133.845 85.608C132.917 85.736 131.829 85.88 130.581 86.04C129.365 86.2 128.165 86.36 126.981 86.52C125.829 86.648 124.869 86.76 124.101 86.856C123.333 86.952 122.949 87 122.949 87C122.949 87 122.693 87 122.181 87C121.701 86.968 121.173 86.872 120.597 86.712C120.053 86.552 119.685 86.264 119.493 85.848C119.205 85.208 119.093 84.696 119.157 84.312C119.253 83.896 119.701 83.24 120.501 82.344C120.821 81.992 121.333 81.4 122.037 80.568C122.741 79.704 123.509 78.712 124.341 77.592C125.205 76.44 126.037 75.24 126.837 73.992C127.637 72.712 128.293 71.48 128.805 70.296C129.317 69.08 129.589 67.992 129.621 67.032C129.653 65.432 129.557 64.328 129.333 63.72C129.109 63.112 128.853 62.776 128.565 62.712C128.309 62.616 128.133 62.568 128.037 62.568C127.941 62.568 127.717 62.632 127.365 62.76C127.013 62.856 126.661 63.064 126.309 63.384C125.989 63.672 125.829 64.136 125.829 64.776C125.829 65.384 125.829 66.008 125.829 66.648C125.829 67.256 125.589 67.784 125.109 68.232C124.661 68.68 123.733 69 122.325 69.192Z" fill="#119F63"/>
</g>
<defs>
<clipPath id="clip0_38_381">
<rect width="240" height="240" fill="white"/>
</clipPath>
</defs>
</svg>
