<svg width="240" height="240" viewBox="0 0 240 240" fill="none" xmlns="http://www.w3.org/2000/svg">
<rect x="46" width="148" height="240" fill="white"/>
<rect x="46" width="148" height="240" fill="white"/>
<rect x="52" y="6" width="136" height="228" fill="#119F63"/>
<ellipse cx="119.5" cy="120" rx="54.5" ry="67" fill="white"/>
<path d="M98.432 104.64C98.432 104.64 97.7907 104.097 96.508 103.012C95.2253 101.927 93.9427 100.101 92.66 97.536C91.3773 94.9707 90.736 91.5667 90.736 87.324C90.8347 82.9827 92.1667 79.2333 94.732 76.076C97.396 72.82 100.899 70.304 105.24 68.528C109.581 66.6533 114.317 65.716 119.448 65.716C124.677 65.6173 129.413 66.456 133.656 68.232C137.997 70.008 141.451 72.4747 144.016 75.632C146.68 78.7893 148.012 82.4893 148.012 86.732C148.012 90.876 147.371 94.28 146.088 96.944C144.904 99.608 143.671 101.581 142.388 102.864C141.204 104.147 140.612 104.788 140.612 104.788C140.612 104.788 141.105 105.183 142.092 105.972C143.079 106.761 144.164 107.945 145.348 109.524C146.631 111.103 147.716 113.125 148.604 115.592C149.492 117.96 149.887 120.821 149.788 124.176C149.689 128.616 148.703 132.957 146.828 137.2C144.953 141.443 141.845 144.995 137.504 147.856C133.261 150.619 127.341 152 119.744 152C112.147 152 106.029 150.569 101.392 147.708C96.7547 144.847 93.4 141.344 91.328 137.2C89.3547 133.056 88.516 129.06 88.812 125.212C89.3053 119.391 90.3413 115 91.92 112.04C93.5973 108.981 95.768 106.515 98.432 104.64ZM119.448 74.3C117.771 74.3987 116.192 75.0893 114.712 76.372C113.331 77.6547 112.344 80.6147 111.752 85.252C111.357 88.3107 111.604 90.728 112.492 92.504C113.38 94.1813 114.515 95.4147 115.896 96.204C117.376 96.8947 118.757 97.24 120.04 97.24C122.013 97.24 123.641 96.2533 124.924 94.28C126.207 92.208 126.749 88.8533 126.552 84.216C126.453 80.664 125.812 78.2467 124.628 76.964C123.444 75.5827 122.26 74.7933 121.076 74.596C119.991 74.3987 119.448 74.3 119.448 74.3ZM119.3 112.484C118.215 112.484 116.981 112.731 115.6 113.224C114.317 113.717 113.084 114.951 111.9 116.924C110.815 118.799 110.025 121.907 109.532 126.248C109.137 130.589 109.581 133.845 110.864 136.016C112.147 138.088 113.676 139.469 115.452 140.16C117.327 140.752 118.856 141.097 120.04 141.196C121.224 141.196 122.507 140.801 123.888 140.012C125.368 139.223 126.651 137.693 127.736 135.424C128.821 133.155 129.315 129.8 129.216 125.36C129.216 122.005 128.673 119.44 127.588 117.664C126.601 115.888 125.467 114.655 124.184 113.964C122.901 113.175 121.767 112.731 120.78 112.632C119.793 112.533 119.3 112.484 119.3 112.484Z" fill="#119F63"/>
<path d="M86 163.1H152.748V170.5H86V163.1Z" fill="#119F63"/>
</svg>
