<svg width="240" height="240" viewBox="0 0 240 240" fill="none" xmlns="http://www.w3.org/2000/svg">
<rect x="46" width="148" height="240" fill="white"/>
<rect x="46" width="148" height="240" fill="white"/>
<rect x="52" y="6" width="136" height="228" fill="#E7CB36"/>
<ellipse cx="119.5" cy="120" rx="54.5" ry="67" fill="white"/>
<path d="M119.788 62.568C121.86 62.568 123.833 62.6667 125.708 62.864C127.681 62.9627 129.309 63.5547 130.592 64.64C131.875 65.7253 132.615 67.6987 132.812 70.56C132.911 71.9413 133.108 74.26 133.404 77.516C133.799 80.6733 134.193 84.3733 134.588 88.616C135.081 92.8587 135.575 97.2493 136.068 101.788C136.66 106.228 137.203 110.52 137.696 114.664C138.189 118.709 138.633 122.212 139.028 125.172C139.423 128.132 139.719 130.105 139.916 131.092C140.212 132.572 140.508 134.348 140.804 136.42C141.1 138.393 141.1 140.367 140.804 142.34C140.508 144.215 139.571 145.793 137.992 147.076C136.512 148.359 134.045 149 130.592 149C127.237 149 124.623 148.655 122.748 147.964C120.873 147.175 119.541 146.237 118.752 145.152C117.963 144.067 117.469 143.08 117.272 142.192C117.173 141.205 117.075 140.515 116.976 140.12C116.877 139.824 116.631 138.443 116.236 135.976C115.841 133.509 115.348 130.549 114.756 127.096C114.263 123.643 113.72 120.239 113.128 116.884C112.635 113.431 112.191 110.569 111.796 108.3C111.401 106.031 111.204 104.896 111.204 104.896C111.204 104.896 110.563 104.945 109.28 105.044C108.096 105.044 106.616 104.995 104.84 104.896C103.163 104.699 101.535 104.304 99.956 103.712C98.476 103.021 97.3907 101.985 96.7 100.604C96.108 99.124 96.256 97.1507 97.144 94.684C98.328 91.5267 99.5613 88.1227 100.844 84.472C102.127 80.8213 103.607 77.3187 105.284 73.964C107.06 70.6093 109.083 67.896 111.352 65.824C113.72 63.6533 116.532 62.568 119.788 62.568Z" fill="#E7CB36"/>
<path d="M93 160.1H144.504V167.5H93V160.1Z" fill="#E7CB36"/>
</svg>
