<svg width="240" height="240" viewBox="0 0 240 240" fill="none" xmlns="http://www.w3.org/2000/svg">
<rect x="46" width="148" height="240" fill="white"/>
<rect x="46" width="148" height="240" fill="white"/>
<rect x="52" y="6" width="136" height="228" fill="#E73636"/>
<ellipse cx="119.5" cy="120" rx="54.5" ry="67" fill="white"/>
<path d="M92.476 73.04C92.476 73.04 92.5253 72.596 92.624 71.708C92.8213 70.82 93.216 69.8333 93.808 68.748C94.4987 67.564 95.6333 66.5773 97.212 65.788C98.7907 64.9 101.011 64.5053 103.872 64.604C107.72 64.7027 110.335 65.344 111.716 66.528C113.196 67.712 113.985 68.9453 114.084 70.228C114.183 71.412 114.232 72.2507 114.232 72.744C114.232 73.04 114.084 74.52 113.788 77.184C113.591 79.7493 113.295 82.9067 112.9 86.656C112.505 90.3067 112.061 93.9573 111.568 97.608C111.173 101.259 110.828 104.317 110.532 106.784C110.335 109.251 110.236 110.484 110.236 110.484L124.148 109.448L122.816 84.14C122.816 84.14 122.816 83.7947 122.816 83.104C122.915 82.4133 123.26 81.624 123.852 80.736C124.543 79.7493 125.677 78.8613 127.256 78.072C128.835 77.2827 131.153 76.7893 134.212 76.592C137.271 76.3947 139.688 76.6413 141.464 77.332C143.24 78.0227 144.572 78.8613 145.46 79.848C146.348 80.736 146.891 81.5747 147.088 82.364C147.384 83.1533 147.532 83.548 147.532 83.548L150.64 141.564C150.64 141.564 150.591 142.008 150.492 142.896C150.492 143.685 150.147 144.672 149.456 145.856C148.864 146.941 147.729 147.928 146.052 148.816C144.375 149.605 141.908 150 138.652 150C135.396 150 132.88 149.605 131.104 148.816C129.328 148.027 128.045 147.089 127.256 146.004C126.565 144.919 126.121 143.981 125.924 143.192C125.825 142.403 125.776 142.008 125.776 142.008L124.74 122.176L105.796 124.396C105.796 124.396 105.007 124.495 103.428 124.692C101.849 124.791 100.024 124.692 97.952 124.396C95.9787 124.1 94.2027 123.311 92.624 122.028C91.144 120.745 90.4533 118.723 90.552 115.96C90.7493 110.435 90.996 104.021 91.292 96.72C91.6867 89.32 92.0813 81.4267 92.476 73.04Z" fill="#E73636"/>
<path d="M87 161.1H154.044V168.5H87V161.1Z" fill="#E73636"/>
</svg>
