<svg width="240" height="240" viewBox="0 0 240 240" fill="none" xmlns="http://www.w3.org/2000/svg">
<rect x="46" width="148" height="240" fill="white"/>
<rect x="46" width="148" height="240" fill="white"/>
<rect x="52" y="6" width="136" height="228" fill="#E73636"/>
<ellipse cx="119.5" cy="120" rx="54.5" ry="67" fill="white"/>
<path d="M100.616 142.564C100.32 135.953 100.764 129.54 101.948 123.324C103.231 117.009 104.859 111.188 106.832 105.86C108.805 100.433 110.828 95.6973 112.9 91.652C114.972 87.6067 116.699 84.4493 118.08 82.18C119.56 79.9107 120.3 78.776 120.3 78.776C120.3 78.776 119.412 78.8747 117.636 79.072C115.959 79.1707 113.936 79.368 111.568 79.664C109.299 79.8613 107.128 80.0587 105.056 80.256C102.984 80.4533 101.603 80.552 100.912 80.552C100.024 80.552 98.6427 80.6013 96.768 80.7C94.8933 80.7987 93.1667 80.5027 91.588 79.812C90.108 79.0227 89.3187 77.4933 89.22 75.224C89.1213 73.5467 89.664 72.2147 90.848 71.228C92.1307 70.1427 93.5613 69.3533 95.14 68.86C96.7187 68.3667 98.1 68.0707 99.284 67.972C100.567 67.7747 101.208 67.676 101.208 67.676L134.804 65.9C134.804 65.9 135.445 65.9493 136.728 66.048C138.011 66.048 139.491 66.2947 141.168 66.788C142.944 67.1827 144.424 67.972 145.608 69.156C146.891 70.2413 147.483 71.82 147.384 73.892C147.384 75.964 146.249 78.6773 143.98 82.032C140.329 87.4587 137.32 92.984 134.952 98.608C132.683 104.232 130.857 109.659 129.476 114.888C128.193 120.019 127.207 124.656 126.516 128.8C125.924 132.845 125.529 136.101 125.332 138.568C125.135 140.936 125.036 142.12 125.036 142.12C125.036 142.12 125.085 142.564 125.184 143.452C125.283 144.34 125.036 145.376 124.444 146.56C123.951 147.744 122.865 148.78 121.188 149.668C119.511 150.556 116.896 151 113.344 151C109.792 151 107.128 150.605 105.352 149.816C103.576 148.928 102.343 147.941 101.652 146.856C100.961 145.672 100.616 144.685 100.616 143.896C100.616 143.008 100.616 142.564 100.616 142.564Z" fill="#E73636"/>
<path d="M87 162.1H152.12V169.5H87V162.1Z" fill="#E73636"/>
</svg>
